<svg width="205" height="306" viewBox="0 0 205 306" fill="none" xmlns="http://www.w3.org/2000/svg">
<path fill-rule="evenodd" clip-rule="evenodd" d="M92.8498 174.048L37.4774 142.881V258.238L55.2612 269.167L55.6654 177.69L92.8498 202.381V305.595L78.7036 296.691L37.4774 270.786L14.8434 256.619L11.61 254.595L0.292969 247.31V38.4524L37.4774 23.0714L81.5329 4.85714L92.8498 0V136.81L55.6654 114.952V27.119L37.4774 34.8095V130.333L92.8498 161.5V174.048ZM195.514 35.6191L204.002 38.8571L202.789 249.738L174.093 267.548L131.654 293.857L111.849 306L111.041 0L120.741 4.04762L195.514 35.2143V35.6191ZM167.222 135.19L166.817 34.8095L148.629 27.119V147.333L167.222 135.19ZM167.222 259.452L166.817 147.738L148.225 159.881V271.19L167.222 259.452Z" fill="url(#paint0_linear)"/>
<defs>
<linearGradient id="paint0_linear" x1="104.987" y1="395.081" x2="104.525" y2="76.5928" gradientUnits="userSpaceOnUse">
<stop stop-color="#E9C0A0"/>
<stop offset="0.1666" stop-color="#E5BB9C"/>
<stop offset="0.3663" stop-color="#D8AC90"/>
<stop offset="0.582" stop-color="#C3947E"/>
<stop offset="0.7709" stop-color="#AB7968"/>
<stop offset="0.7953" stop-color="#BD8C76"/>
<stop offset="0.8298" stop-color="#D0A084"/>
<stop offset="0.8692" stop-color="#DDAE8E"/>
<stop offset="0.9175" stop-color="#E5B794"/>
<stop offset="1" stop-color="#E7B996"/>
</linearGradient>
</defs>
</svg>
