<svg width="287" height="431" viewBox="0 0 287 431" fill="none" xmlns="http://www.w3.org/2000/svg">
<path fill-rule="evenodd" clip-rule="evenodd" d="M130.403 244.861L52.3889 201.014V363.306L77.4444 378.681L78.0139 249.986L130.403 284.722V429.931L110.472 417.403L52.3889 380.958L20.5 361.028L15.9444 358.181L0 347.931V54.0972L52.3889 32.4583L114.458 6.83333L130.403 0V192.472L78.0139 161.722V38.1528L52.3889 48.9722V183.361L130.403 227.208V244.861ZM275.041 50.1111L287 54.6667L285.291 351.347L244.861 376.403L185.069 413.417L157.166 430.5L156.027 0L169.694 5.69444L275.041 49.5417V50.1111ZM235.18 190.194L234.611 48.9722L208.986 38.1528V207.278L235.18 190.194ZM235.18 365.014L234.611 207.847L208.416 224.931V381.528L235.18 365.014Z" fill="#121B24" fill-opacity="0.6"/>
</svg>
