<svg width="337" height="221" viewBox="0 0 337 221" fill="none" xmlns="http://www.w3.org/2000/svg">
<path d="M190.8 65.8H200.68V60.6H185.08V97H200.68V91.8H190.8V81.14H198.652V75.94H190.8V65.8ZM212.857 60.6H204.225V97H213.221C218.941 97 221.905 93.984 221.905 88.368V85.404C221.905 81.556 220.709 78.8 217.641 77.604C220.189 76.408 221.333 74.016 221.333 70.272V68.972C221.333 63.356 218.785 60.6 212.857 60.6ZM212.493 80.62C215.093 80.62 216.185 81.66 216.185 85.04V88.212C216.185 90.916 215.145 91.8 213.221 91.8H209.945V80.62H212.493ZM212.701 65.8C214.729 65.8 215.613 66.944 215.613 69.544V71.572C215.613 74.484 214.313 75.42 212.181 75.42H209.945V65.8H212.701ZM231.122 97V65.8H240.482V60.6H225.402V97H231.122ZM250.062 65.8H259.942V60.6H244.342V97H259.942V91.8H250.062V81.14H257.914V75.94H250.062V65.8ZM269.206 81.4H275.706V97H281.53V60.6H275.706V76.2H269.206V60.6H263.486V97H269.206V81.4ZM296.338 80.308L298.678 71.364V97H303.826V60.6H297.534L292.854 75.628L290.774 83.636V60.6H285.678V97H291.554L296.338 80.308ZM313.745 97H307.869V60.6H312.965V83.636L315.045 75.628L319.725 60.6H326.017V97H320.869V71.364L318.529 80.308L313.745 97ZM319.621 52.488C319.465 54.412 318.581 54.88 317.021 54.88C315.513 54.88 314.733 54.412 314.577 52.488H311.041C311.145 56.024 313.017 58.26 317.021 58.26C321.077 58.26 323.105 56.024 323.105 52.488H319.621ZM193.712 112.6H185.08V149H194.076C199.796 149 202.76 145.984 202.76 140.368V137.404C202.76 133.556 201.564 130.8 198.496 129.604C201.044 128.408 202.188 126.016 202.188 122.272V120.972C202.188 115.356 199.64 112.6 193.712 112.6ZM193.348 132.62C195.948 132.62 197.04 133.66 197.04 137.04V140.212C197.04 142.916 196 143.8 194.076 143.8H190.8V132.62H193.348ZM193.556 117.8C195.584 117.8 196.468 118.944 196.468 121.544V123.572C196.468 126.484 195.168 127.42 193.036 127.42H190.8V117.8H193.556ZM211.457 120.972C211.457 118.372 212.601 117.384 214.421 117.384C216.241 117.384 217.385 118.372 217.385 120.972V140.628C217.385 143.228 216.241 144.216 214.421 144.216C212.601 144.216 211.457 143.228 211.457 140.628V120.972ZM205.737 140.264C205.737 146.088 208.805 149.416 214.421 149.416C220.037 149.416 223.105 146.088 223.105 140.264V121.336C223.105 115.512 220.037 112.184 214.421 112.184C208.805 112.184 205.737 115.512 205.737 121.336V140.264ZM235.246 112.6H226.822V149H232.542V135.324H235.246C240.966 135.324 243.774 132.152 243.774 126.328V121.596C243.774 115.772 240.966 112.6 235.246 112.6ZM235.246 117.8C237.066 117.8 238.054 118.632 238.054 121.232V126.692C238.054 129.292 237.066 130.124 235.246 130.124H232.542V117.8H235.246ZM251.676 120.972C251.676 118.372 252.82 117.384 254.64 117.384C256.46 117.384 257.604 118.372 257.604 120.972V140.628C257.604 143.228 256.46 144.216 254.64 144.216C252.82 144.216 251.676 143.228 251.676 140.628V120.972ZM245.956 140.264C245.956 146.088 249.024 149.416 254.64 149.416C260.256 149.416 263.324 146.088 263.324 140.264V121.336C263.324 115.512 260.256 112.184 254.64 112.184C249.024 112.184 245.956 115.512 245.956 121.336V140.264ZM276.141 149C281.861 149 284.773 145.828 284.773 140.004V136.104C284.773 130.28 281.861 127.108 276.141 127.108H272.813V117.8H283.109V112.6H267.093V149H276.141ZM272.813 143.8V132.308H276.141C277.961 132.308 279.053 133.14 279.053 135.74V140.368C279.053 142.968 277.961 143.8 276.141 143.8H272.813ZM294.343 117.8H304.223V112.6H288.623V149H304.223V143.8H294.343V133.14H302.195V127.94H294.343V117.8ZM313.644 149H307.768V112.6H312.864V135.636L314.944 127.628L319.624 112.6H325.916V149H320.768V123.364L318.428 132.308L313.644 149ZM319.52 104.488C319.364 106.412 318.48 106.88 316.92 106.88C315.412 106.88 314.632 106.412 314.476 104.488H310.94C311.044 108.024 312.916 110.26 316.92 110.26C320.975 110.26 323.004 108.024 323.004 104.488H319.52Z" fill="url(#paint0_linear)"/>
<path d="M191.924 45.382H186.464L185.288 48H184.21L188.69 38.2H189.712L194.192 48H193.1L191.924 45.382ZM191.546 44.542L189.194 39.278L186.842 44.542H191.546ZM203.741 47.132V49.778H202.803V48H196.209V49.778H195.271V47.132H195.691C196.186 47.104 196.522 46.74 196.699 46.04C196.877 45.34 196.998 44.36 197.063 43.1L197.161 40.636H202.593V47.132H203.741ZM197.973 43.156C197.927 44.2013 197.838 45.0647 197.707 45.746C197.577 46.418 197.343 46.88 197.007 47.132H201.599V41.518H198.057L197.973 43.156ZM211.068 44.192C212.067 44.4253 212.566 45.0273 212.566 45.998C212.566 46.642 212.328 47.1367 211.852 47.482C211.376 47.8273 210.667 48 209.724 48H206.378V40.636H209.626C210.466 40.636 211.124 40.7993 211.6 41.126C212.076 41.4527 212.314 41.9193 212.314 42.526C212.314 42.9273 212.202 43.2727 211.978 43.562C211.764 43.842 211.46 44.052 211.068 44.192ZM207.344 43.912H209.556C210.126 43.912 210.56 43.8047 210.858 43.59C211.166 43.3753 211.32 43.0627 211.32 42.652C211.32 42.2413 211.166 41.9333 210.858 41.728C210.56 41.5227 210.126 41.42 209.556 41.42H207.344V43.912ZM209.682 47.216C210.317 47.216 210.793 47.1133 211.11 46.908C211.428 46.7027 211.586 46.3807 211.586 45.942C211.586 45.5033 211.442 45.1813 211.152 44.976C210.863 44.7613 210.406 44.654 209.78 44.654H207.344V47.216H209.682ZM218.634 48.07C217.925 48.07 217.285 47.9113 216.716 47.594C216.147 47.2673 215.699 46.8193 215.372 46.25C215.045 45.6807 214.882 45.0367 214.882 44.318C214.882 43.5993 215.045 42.9553 215.372 42.386C215.699 41.8167 216.147 41.3733 216.716 41.056C217.285 40.7387 217.925 40.58 218.634 40.58C219.343 40.58 219.983 40.7387 220.552 41.056C221.121 41.3733 221.565 41.8167 221.882 42.386C222.209 42.9553 222.372 43.5993 222.372 44.318C222.372 45.0367 222.209 45.6807 221.882 46.25C221.565 46.8193 221.121 47.2673 220.552 47.594C219.983 47.9113 219.343 48.07 218.634 48.07ZM218.634 47.188C219.157 47.188 219.623 47.0713 220.034 46.838C220.454 46.5953 220.781 46.2547 221.014 45.816C221.247 45.3773 221.364 44.878 221.364 44.318C221.364 43.758 221.247 43.2587 221.014 42.82C220.781 42.3813 220.454 42.0453 220.034 41.812C219.623 41.5693 219.157 41.448 218.634 41.448C218.111 41.448 217.64 41.5693 217.22 41.812C216.809 42.0453 216.483 42.3813 216.24 42.82C216.007 43.2587 215.89 43.758 215.89 44.318C215.89 44.878 216.007 45.3773 216.24 45.816C216.483 46.2547 216.809 46.5953 217.22 46.838C217.64 47.0713 218.111 47.188 218.634 47.188ZM227.87 44.724H226.19V48H225.196V40.636H226.19V43.87H227.884L230.474 40.636H231.552L228.654 44.206L231.762 48H230.586L227.87 44.724ZM236.428 40.58C237.39 40.58 238.127 40.8227 238.64 41.308C239.154 41.784 239.41 42.4933 239.41 43.436V48H238.458V46.852C238.234 47.2347 237.903 47.5333 237.464 47.748C237.035 47.9627 236.522 48.07 235.924 48.07C235.103 48.07 234.45 47.874 233.964 47.482C233.479 47.09 233.236 46.572 233.236 45.928C233.236 45.3027 233.46 44.7987 233.908 44.416C234.366 44.0333 235.089 43.842 236.078 43.842H238.416V43.394C238.416 42.7593 238.239 42.2787 237.884 41.952C237.53 41.616 237.012 41.448 236.33 41.448C235.864 41.448 235.416 41.5273 234.986 41.686C234.557 41.8353 234.188 42.0453 233.88 42.316L233.432 41.574C233.806 41.2567 234.254 41.014 234.776 40.846C235.299 40.6687 235.85 40.58 236.428 40.58ZM236.078 47.286C236.638 47.286 237.119 47.16 237.52 46.908C237.922 46.6467 238.22 46.2733 238.416 45.788V44.584H236.106C234.846 44.584 234.216 45.0227 234.216 45.9C234.216 46.3293 234.38 46.67 234.706 46.922C235.033 47.1647 235.49 47.286 236.078 47.286ZM247.937 41.518H245.151V48H244.157V41.518H241.371V40.636H247.937V41.518Z" fill="#AB7968"/>
<path fill-rule="evenodd" clip-rule="evenodd" d="M66.7917 125.417L26.8333 102.958V186.083L39.6667 193.958L39.9583 128.042L66.7917 145.833V220.208L56.5833 213.792L26.8333 195.125L10.5 184.917L8.16667 183.458L0 178.208V27.7083L26.8333 16.625L58.625 3.5L66.7917 0V98.5833L39.9583 82.8333V19.5417L26.8333 25.0833V93.9167L66.7917 116.375V125.417ZM140.876 25.6667L147.001 28L146.126 179.958L125.418 192.792L94.793 211.75L80.5013 220.5L79.918 0L86.918 2.91667L140.876 25.375V25.6667ZM120.46 97.4167L120.168 25.0833L107.043 19.5417V106.167L120.46 97.4167ZM120.46 186.958L120.168 106.458L106.751 115.208V195.417L120.46 186.958Z" fill="url(#paint1_linear)"/>
<defs>
<linearGradient id="paint0_linear" x1="262.146" y1="179.365" x2="262.089" y2="81.5283" gradientUnits="userSpaceOnUse">
<stop stop-color="#E9C0A0"/>
<stop offset="0.1666" stop-color="#E5BB9C"/>
<stop offset="0.3663" stop-color="#D8AC90"/>
<stop offset="0.582" stop-color="#C3947E"/>
<stop offset="0.7709" stop-color="#AB7968"/>
<stop offset="0.7953" stop-color="#BD8C76"/>
<stop offset="0.8298" stop-color="#D0A084"/>
<stop offset="0.8692" stop-color="#DDAE8E"/>
<stop offset="0.9175" stop-color="#E5B794"/>
<stop offset="1" stop-color="#E7B996"/>
</linearGradient>
<linearGradient id="paint1_linear" x1="75.5496" y1="284.691" x2="75.2174" y2="55.1919" gradientUnits="userSpaceOnUse">
<stop stop-color="#E9C0A0"/>
<stop offset="0.1666" stop-color="#E5BB9C"/>
<stop offset="0.3663" stop-color="#D8AC90"/>
<stop offset="0.582" stop-color="#C3947E"/>
<stop offset="0.7709" stop-color="#AB7968"/>
<stop offset="0.7953" stop-color="#BD8C76"/>
<stop offset="0.8298" stop-color="#D0A084"/>
<stop offset="0.8692" stop-color="#DDAE8E"/>
<stop offset="0.9175" stop-color="#E5B794"/>
<stop offset="1" stop-color="#E7B996"/>
</linearGradient>
</defs>
</svg>
