<?xml version="1.0" encoding="UTF-8"?>
<svg width="531px" height="221px" viewBox="0 0 531 221" version="1.1" xmlns="http://www.w3.org/2000/svg" xmlns:xlink="http://www.w3.org/1999/xlink">
    <!-- Generator: Sketch 52.1 (67048) - http://www.bohemiancoding.com/sketch -->
    <title>Group</title>
    <desc>Created with Sketch.</desc>
    <defs>
        <linearGradient x1="3.02875563%" y1="125.837536%" x2="3.01598953%" y2="22.7305476%" id="linearGradient-1">
            <stop stop-color="#E9C0A0" offset="0%"></stop>
            <stop stop-color="#E5BB9C" offset="16.66%"></stop>
            <stop stop-color="#D8AC90" offset="36.63%"></stop>
            <stop stop-color="#C3947E" offset="58.2%"></stop>
            <stop stop-color="#AB7968" offset="77.09%"></stop>
            <stop stop-color="#BD8C76" offset="79.53%"></stop>
            <stop stop-color="#D0A084" offset="82.98%"></stop>
            <stop stop-color="#DDAE8E" offset="86.92%"></stop>
            <stop stop-color="#E5B794" offset="91.75%"></stop>
            <stop stop-color="#E7B996" offset="100%"></stop>
        </linearGradient>
        <linearGradient x1="49.4880334%" y1="131.404959%" x2="49.4834492%" y2="23.8831497%" id="linearGradient-2">
            <stop stop-color="#E9C0A0" offset="0%"></stop>
            <stop stop-color="#E5BB9C" offset="16.66%"></stop>
            <stop stop-color="#D8AC90" offset="36.63%"></stop>
            <stop stop-color="#C3947E" offset="58.2%"></stop>
            <stop stop-color="#AB7968" offset="77.09%"></stop>
            <stop stop-color="#BD8C76" offset="79.53%"></stop>
            <stop stop-color="#D0A084" offset="82.98%"></stop>
            <stop stop-color="#DDAE8E" offset="86.92%"></stop>
            <stop stop-color="#E5B794" offset="91.75%"></stop>
            <stop stop-color="#E7B996" offset="100%"></stop>
        </linearGradient>
        <linearGradient x1="54.6811696%" y1="130.898192%" x2="54.640726%" y2="29.9606925%" id="linearGradient-3">
            <stop stop-color="#E9C0A0" offset="0%"></stop>
            <stop stop-color="#E5BB9C" offset="16.66%"></stop>
            <stop stop-color="#D8AC90" offset="36.63%"></stop>
            <stop stop-color="#C3947E" offset="58.2%"></stop>
            <stop stop-color="#AB7968" offset="77.09%"></stop>
            <stop stop-color="#BD8C76" offset="79.53%"></stop>
            <stop stop-color="#D0A084" offset="82.98%"></stop>
            <stop stop-color="#DDAE8E" offset="86.92%"></stop>
            <stop stop-color="#E5B794" offset="91.75%"></stop>
            <stop stop-color="#E7B996" offset="100%"></stop>
        </linearGradient>
        <linearGradient x1="51.3942082%" y1="129.111565%" x2="51.1676791%" y2="25.0303401%" id="linearGradient-4">
            <stop stop-color="#E9C0A0" offset="0%"></stop>
            <stop stop-color="#E5BB9C" offset="16.66%"></stop>
            <stop stop-color="#D8AC90" offset="36.63%"></stop>
            <stop stop-color="#C3947E" offset="58.2%"></stop>
            <stop stop-color="#AB7968" offset="77.09%"></stop>
            <stop stop-color="#BD8C76" offset="79.53%"></stop>
            <stop stop-color="#D0A084" offset="82.98%"></stop>
            <stop stop-color="#DDAE8E" offset="86.92%"></stop>
            <stop stop-color="#E5B794" offset="91.75%"></stop>
            <stop stop-color="#E7B996" offset="100%"></stop>
        </linearGradient>
        <linearGradient x1="60.1984294%" y1="133.720276%" x2="60.1547596%" y2="23.5636597%" id="linearGradient-5">
            <stop stop-color="#E9C0A0" offset="0%"></stop>
            <stop stop-color="#E5BB9C" offset="16.66%"></stop>
            <stop stop-color="#D8AC90" offset="36.63%"></stop>
            <stop stop-color="#C3947E" offset="58.2%"></stop>
            <stop stop-color="#AB7968" offset="77.09%"></stop>
            <stop stop-color="#BD8C76" offset="79.53%"></stop>
            <stop stop-color="#D0A084" offset="82.98%"></stop>
            <stop stop-color="#DDAE8E" offset="86.92%"></stop>
            <stop stop-color="#E5B794" offset="91.75%"></stop>
            <stop stop-color="#E7B996" offset="100%"></stop>
        </linearGradient>
    </defs>
    <g id="Page-1" stroke="none" stroke-width="1" fill="none" fill-rule="evenodd">
        <g id="Group">
            <g id="preloader-2" opacity="0.01" fill-rule="nonzero">
                <path d="M103.912,118.688 C102.2,118.688 101.4,119.808 101.4,121.504 L101.4,127.296 C101.4,128.992 102.2,130.112 103.912,130.112 C105.64,130.112 106.44,128.992 106.44,127.296 L106.44,125.904 L105.256,125.904 L105.256,127.36 C105.256,128.368 104.856,128.976 103.944,128.976 C103.048,128.976 102.632,128.368 102.632,127.36 L102.632,121.44 C102.632,120.432 103.048,119.824 103.944,119.824 C104.856,119.824 105.256,120.432 105.256,121.44 L105.256,122.512 L106.44,122.512 L106.44,121.504 C106.44,119.808 105.64,118.688 103.912,118.688 Z M114.934,118.8 L113.638,118.8 L112.63,122.688 L111.974,125.504 L111.206,122.688 L110.07,118.8 L108.822,118.8 L111.398,127.056 L111.142,127.792 C110.934,128.64 110.502,128.944 109.542,128.896 L109.542,130.016 C111.574,130.112 112.15,129.216 112.534,127.536 L114.934,118.8 Z M124.182,131.536 L124.182,128.896 L123.334,128.896 L123.334,118.8 L118.838,118.8 L118.406,127.264 C118.374,127.952 118.294,128.464 117.91,128.896 L117.19,128.896 L117.19,131.536 L118.39,131.536 L118.39,130 L122.966,130 L122.966,131.536 L124.182,131.536 Z M119.99,119.936 L122.07,119.936 L122.07,128.896 L119.11,128.896 C119.462,128.528 119.574,128.048 119.622,127.248 L119.99,119.936 Z M128.122,123.76 L128.122,119.936 L131.482,119.936 L131.482,118.8 L126.874,118.8 L126.874,130 L131.482,130 L131.482,128.864 L128.122,128.864 L128.122,124.88 L130.858,124.88 L130.858,123.76 L128.122,123.76 Z M135.488,123.424 L135.488,119.936 L138.976,119.936 L138.976,118.8 L134.256,118.8 L134.256,130 L136.864,130 C138.624,130 139.44,129.024 139.44,127.28 L139.44,126.048 C139.44,124.256 138.544,123.424 136.8,123.424 L135.488,123.424 Z M135.488,128.864 L135.488,124.544 L136.8,124.544 C137.712,124.544 138.192,124.88 138.192,125.968 L138.192,127.36 C138.192,128.4 137.776,128.864 136.864,128.864 L135.488,128.864 Z M146.262,124.96 L146.262,130 L147.51,130 L147.51,118.8 L146.262,118.8 L146.262,123.84 L143.51,123.84 L143.51,118.8 L142.262,118.8 L142.262,130 L143.51,130 L143.51,124.96 L146.262,124.96 Z M154.489,127.744 L154.921,130 L156.169,130 L154.025,118.8 L152.217,118.8 L150.073,130 L151.225,130 L151.657,127.744 L154.489,127.744 Z M153.049,120.208 L154.313,126.672 L151.817,126.672 L153.049,120.208 Z M162.519,125.216 L162.519,130 L163.767,130 L163.767,118.8 L161.271,118.8 C159.511,118.8 158.775,119.696 158.775,121.36 L158.775,122.272 C158.775,123.504 159.207,124.272 160.151,124.576 C159.143,124.88 158.759,125.712 158.759,126.912 L158.759,128.656 C158.759,129.152 158.727,129.616 158.535,130 L159.799,130 C159.943,129.68 160.007,129.392 160.007,128.64 L160.007,126.88 C160.007,125.616 160.599,125.216 161.639,125.216 L162.519,125.216 Z M162.519,119.936 L162.519,124.08 L161.575,124.08 C160.599,124.08 160.007,123.76 160.007,122.544 L160.007,121.472 C160.007,120.464 160.375,119.936 161.303,119.936 L162.519,119.936 Z M106.277,141.936 L106.277,152 L107.525,152 L107.525,140.8 L102.277,140.8 L102.277,152 L103.525,152 L103.525,141.936 L106.277,141.936 Z M110.409,140.8 L110.409,152 L111.657,152 L111.657,147.584 L112.761,147.584 C114.537,147.584 115.369,146.656 115.369,144.88 L115.369,143.536 C115.369,141.84 114.617,140.8 112.857,140.8 L110.409,140.8 Z M111.657,146.464 L111.657,141.936 L112.857,141.936 C113.769,141.936 114.137,142.448 114.137,143.472 L114.137,144.96 C114.137,146.032 113.689,146.464 112.761,146.464 L111.657,146.464 Z M122.042,149.744 L122.474,152 L123.722,152 L121.578,140.8 L119.77,140.8 L117.626,152 L118.778,152 L119.21,149.744 L122.042,149.744 Z M120.602,142.208 L121.866,148.672 L119.37,148.672 L120.602,142.208 Z M130.6,152 L131.88,152 L128.952,145.904 L131.784,140.8 L130.52,140.8 L127.544,146.208 L127.544,140.8 L126.296,140.8 L126.296,152 L127.544,152 L127.544,148.24 L128.2,147.136 L130.6,152 Z M137.403,152 L137.403,141.936 L139.467,141.936 L139.467,140.8 L134.091,140.8 L134.091,141.936 L136.155,141.936 L136.155,152 L137.403,152 Z M146.156,143.088 L146.156,152 L147.276,152 L147.276,140.8 L145.884,140.8 L144.092,146.064 L143.1,149.152 L143.1,140.8 L141.996,140.8 L141.996,152 L143.292,152 L144.94,146.832 L146.156,143.088 Z M154.447,152 L155.727,152 L152.799,145.904 L155.631,140.8 L154.367,140.8 L151.391,146.208 L151.391,140.8 L150.143,140.8 L150.143,152 L151.391,152 L151.391,148.24 L152.047,147.136 L154.447,152 Z M162.386,149.744 L162.818,152 L164.066,152 L161.922,140.8 L160.114,140.8 L157.97,152 L159.122,152 L159.554,149.744 L162.386,149.744 Z M160.946,142.208 L162.21,148.672 L159.714,148.672 L160.946,142.208 Z" id="Shape" fill="url(#linearGradient-1)"></path>
                <path d="M81.6565,73 L82.9365,73 L80.0085,66.904 L82.8405,61.8 L81.5765,61.8 L78.6005,67.208 L78.6005,61.8 L77.3525,61.8 L77.3525,73 L78.6005,73 L78.6005,69.24 L79.2565,68.136 L81.6565,73 Z M85.4034,70.296 C85.4034,71.992 86.2514,73.112 87.9634,73.112 C89.6914,73.112 90.5394,71.992 90.5394,70.296 L90.5394,64.504 C90.5394,62.792 89.6914,61.688 87.9634,61.688 C86.2514,61.688 85.4034,62.792 85.4034,64.504 L85.4034,70.296 Z M86.6354,64.44 C86.6354,63.432 87.0674,62.824 87.9634,62.824 C88.8754,62.824 89.2914,63.432 89.2914,64.44 L89.2914,70.36 C89.2914,71.384 88.8754,71.976 87.9634,71.976 C87.0674,71.976 86.6354,71.384 86.6354,70.36 L86.6354,64.44 Z M99.222,63.992 L99.222,73 L100.406,73 L100.406,61.8 L98.662,61.8 L96.886,70.744 L95.046,61.8 L93.302,61.8 L93.302,73 L94.39,73 L94.39,64.072 L96.246,72.984 L97.446,72.984 L99.222,63.992 Z M107.293,62.936 L107.293,73 L108.541,73 L108.541,61.8 L103.293,61.8 L103.293,73 L104.541,73 L104.541,62.936 L107.293,62.936 Z M115.952,62.936 L115.952,73 L117.2,73 L117.2,61.8 L112.64,61.8 L112.336,70.28 C112.304,71.352 112.128,71.88 111.088,71.88 L111.088,73.016 L111.296,73.016 C113.008,73 113.488,71.992 113.552,70.216 L113.808,62.936 L115.952,62.936 Z M121.382,66.76 L121.382,62.936 L124.742,62.936 L124.742,61.8 L120.134,61.8 L120.134,73 L124.742,73 L124.742,71.864 L121.382,71.864 L121.382,67.88 L124.118,67.88 L124.118,66.76 L121.382,66.76 Z M131.803,73 L133.083,73 L130.155,66.904 L132.987,61.8 L131.723,61.8 L128.747,67.208 L128.747,61.8 L127.499,61.8 L127.499,73 L128.747,73 L128.747,69.24 L129.403,68.136 L131.803,73 Z M138.062,61.688 C136.35,61.688 135.55,62.808 135.55,64.504 L135.55,70.296 C135.55,71.992 136.35,73.112 138.062,73.112 C139.79,73.112 140.59,71.992 140.59,70.296 L140.59,68.904 L139.406,68.904 L139.406,70.36 C139.406,71.368 139.006,71.976 138.094,71.976 C137.198,71.976 136.782,71.368 136.782,70.36 L136.782,64.44 C136.782,63.432 137.198,62.824 138.094,62.824 C139.006,62.824 139.406,63.432 139.406,64.44 L139.406,65.512 L140.59,65.512 L140.59,64.504 C140.59,62.808 139.79,61.688 138.062,61.688 Z M147.324,67.96 L147.324,73 L148.572,73 L148.572,61.8 L147.324,61.8 L147.324,66.84 L144.572,66.84 L144.572,61.8 L143.324,61.8 L143.324,73 L144.572,73 L144.572,67.96 L147.324,67.96 Z M151.36,70.296 C151.36,71.992 152.208,73.112 153.92,73.112 C155.648,73.112 156.496,71.992 156.496,70.296 L156.496,64.504 C156.496,62.792 155.648,61.688 153.92,61.688 C152.208,61.688 151.36,62.792 151.36,64.504 L151.36,70.296 Z M152.592,64.44 C152.592,63.432 153.024,62.824 153.92,62.824 C154.832,62.824 155.248,63.432 155.248,64.44 L155.248,70.36 C155.248,71.384 154.832,71.976 153.92,71.976 C153.024,71.976 152.592,71.384 152.592,70.36 L152.592,64.44 Z M160.522,66.76 L160.522,62.936 L163.882,62.936 L163.882,61.8 L159.274,61.8 L159.274,73 L163.882,73 L163.882,71.864 L160.522,71.864 L160.522,67.88 L163.258,67.88 L163.258,66.76 L160.522,66.76 Z M2.9716,83.688 C1.25962,83.688 0.45962,84.808 0.45962,86.504 L0.45962,92.296 C0.45962,93.992 1.25962,95.112 2.9716,95.112 C4.6996,95.112 5.4996,93.992 5.4996,92.296 L5.4996,90.904 L4.3156,90.904 L4.3156,92.36 C4.3156,93.368 3.9156,93.976 3.0036,93.976 C2.1076,93.976 1.69162,93.368 1.69162,92.36 L1.69162,86.44 C1.69162,85.432 2.1076,84.824 3.0036,84.824 C3.9156,84.824 4.3156,85.432 4.3156,86.44 L4.3156,87.512 L5.4996,87.512 L5.4996,86.504 C5.4996,84.808 4.6996,83.688 2.9716,83.688 Z M8.1377,92.296 C8.1377,93.992 8.9857,95.112 10.6977,95.112 C12.4257,95.112 13.2737,93.992 13.2737,92.296 L13.2737,86.504 C13.2737,84.792 12.4257,83.688 10.6977,83.688 C8.9857,83.688 8.1377,84.792 8.1377,86.504 L8.1377,92.296 Z M9.3697,86.44 C9.3697,85.432 9.8017,84.824 10.6977,84.824 C11.6097,84.824 12.0257,85.432 12.0257,86.44 L12.0257,92.36 C12.0257,93.384 11.6097,93.976 10.6977,93.976 C9.8017,93.976 9.3697,93.384 9.3697,92.36 L9.3697,86.44 Z M20.0525,84.936 L20.0525,95 L21.3005,95 L21.3005,83.8 L16.0525,83.8 L16.0525,95 L17.3005,95 L17.3005,84.936 L20.0525,84.936 Z M24.1837,83.8 L24.1837,95 L25.4317,95 L25.4317,90.584 L26.5357,90.584 C28.3117,90.584 29.1437,89.656 29.1437,87.88 L29.1437,86.536 C29.1437,84.84 28.3917,83.8 26.6317,83.8 L24.1837,83.8 Z M25.4317,89.464 L25.4317,84.936 L26.6317,84.936 C27.5437,84.936 27.9117,85.448 27.9117,86.472 L27.9117,87.96 C27.9117,89.032 27.4637,89.464 26.5357,89.464 L25.4317,89.464 Z M31.6252,92.296 C31.6252,93.992 32.4732,95.112 34.1852,95.112 C35.9132,95.112 36.7612,93.992 36.7612,92.296 L36.7612,86.504 C36.7612,84.792 35.9132,83.688 34.1852,83.688 C32.4732,83.688 31.6252,84.792 31.6252,86.504 L31.6252,92.296 Z M32.8572,86.44 C32.8572,85.432 33.2892,84.824 34.1852,84.824 C35.0972,84.824 35.5132,85.432 35.5132,86.44 L35.5132,92.36 C35.5132,93.384 35.0972,93.976 34.1852,93.976 C33.2892,93.976 32.8572,93.384 32.8572,92.36 L32.8572,86.44 Z M39.54,83.8 L39.54,95 L42.116,95 C43.86,95 44.676,94.056 44.676,92.376 L44.676,91.432 C44.676,90.2 44.26,89.336 43.172,89.032 C44.148,88.728 44.484,87.992 44.484,86.808 L44.484,86.28 C44.484,84.632 43.796,83.8 42.052,83.8 L39.54,83.8 Z M40.788,88.552 L40.788,84.936 L42.02,84.936 C42.916,84.936 43.252,85.416 43.252,86.408 L43.252,87.064 C43.252,88.232 42.74,88.552 41.748,88.552 L40.788,88.552 Z M40.788,93.864 L40.788,89.688 L41.876,89.688 C42.948,89.688 43.444,90.104 43.444,91.352 L43.444,92.344 C43.444,93.384 43.028,93.864 42.116,93.864 L40.788,93.864 Z M47.3096,92.296 C47.3096,93.992 48.1576,95.112 49.8696,95.112 C51.5976,95.112 52.4456,93.992 52.4456,92.296 L52.4456,86.504 C52.4456,84.792 51.5976,83.688 49.8696,83.688 C48.1576,83.688 47.3096,84.792 47.3096,86.504 L47.3096,92.296 Z M48.5416,86.44 C48.5416,85.432 48.9736,84.824 49.8696,84.824 C50.7816,84.824 51.1976,85.432 51.1976,86.44 L51.1976,92.36 C51.1976,93.384 50.7816,93.976 49.8696,93.976 C48.9736,93.976 48.5416,93.384 48.5416,92.36 L48.5416,86.44 Z M62.8404,95 L64.1204,95 L61.5764,88.52 L64.0564,83.8 L62.8084,83.8 L60.1044,88.952 L60.1044,83.8 L58.8724,83.8 L58.8724,88.952 L56.1844,83.8 L54.9364,83.8 L57.4324,88.552 L54.8724,95 L56.1524,95 L58.2964,89.704 L58.8724,90.776 L58.8724,95 L60.1044,95 L60.1044,90.776 L60.6964,89.72 L62.8404,95 Z M73.3729,96.536 L73.3729,93.896 L72.5249,93.896 L72.5249,83.8 L68.0289,83.8 L67.5969,92.264 C67.5649,92.952 67.4849,93.464 67.1009,93.896 L66.3809,93.896 L66.3809,96.536 L67.5809,96.536 L67.5809,95 L72.1569,95 L72.1569,96.536 L73.3729,96.536 Z M69.1809,84.936 L71.2609,84.936 L71.2609,93.896 L68.3009,93.896 C68.6529,93.528 68.7649,93.048 68.8129,92.248 L69.1809,84.936 Z M77.313,88.76 L77.313,84.936 L80.673,84.936 L80.673,83.8 L76.065,83.8 L76.065,95 L80.673,95 L80.673,93.864 L77.313,93.864 L77.313,89.88 L80.049,89.88 L80.049,88.76 L77.313,88.76 Z M87.4306,89.96 L87.4306,95 L88.6786,95 L88.6786,83.8 L87.4306,83.8 L87.4306,88.84 L84.6786,88.84 L84.6786,83.8 L83.4306,83.8 L83.4306,95 L84.6786,95 L84.6786,89.96 L87.4306,89.96 Z M95.722,86.088 L95.722,95 L96.842,95 L96.842,83.8 L95.45,83.8 L93.658,89.064 L92.666,92.152 L92.666,83.8 L91.5619,83.8 L91.5619,95 L92.858,95 L94.506,89.832 L95.722,86.088 Z M100.957,88.76 L100.957,84.936 L104.317,84.936 L104.317,83.8 L99.709,83.8 L99.709,95 L104.317,95 L104.317,93.864 L100.957,93.864 L100.957,89.88 L103.693,89.88 L103.693,88.76 L100.957,88.76 Z M112.407,88.424 L112.407,84.936 L115.895,84.936 L115.895,83.8 L111.175,83.8 L111.175,95 L113.783,95 C115.543,95 116.359,94.024 116.359,92.28 L116.359,91.048 C116.359,89.256 115.463,88.424 113.719,88.424 L112.407,88.424 Z M112.407,93.864 L112.407,89.544 L113.719,89.544 C114.631,89.544 115.111,89.88 115.111,90.968 L115.111,92.36 C115.111,93.4 114.695,93.864 113.783,93.864 L112.407,93.864 Z M123.341,86.088 L123.341,95 L124.461,95 L124.461,83.8 L123.069,83.8 L121.277,89.064 L120.285,92.152 L120.285,83.8 L119.181,83.8 L119.181,95 L120.477,95 L122.125,89.832 L123.341,86.088 Z M129.776,83.688 C128.064,83.688 127.28,84.776 127.28,86.488 L127.28,87.192 L128.432,87.192 L128.432,86.44 C128.432,85.432 128.848,84.824 129.744,84.824 C130.656,84.824 131.056,85.4 131.056,86.552 L131.056,87.064 C131.056,88.04 130.512,88.6 129.68,88.6 L129.088,88.6 L129.088,89.72 L129.616,89.72 C130.56,89.72 131.056,90.296 131.056,91.384 L131.056,92.264 C131.056,93.384 130.656,93.976 129.744,93.976 C128.848,93.976 128.432,93.368 128.432,92.36 L128.432,91.208 L127.264,91.208 L127.264,92.296 C127.264,93.992 128.064,95.112 129.776,95.112 C131.504,95.112 132.304,93.992 132.304,92.296 L132.304,91.416 C132.304,90.296 131.872,89.432 130.928,89.112 C131.84,88.776 132.304,87.944 132.304,86.792 L132.304,86.504 C132.304,84.808 131.504,83.688 129.776,83.688 Z M139.115,89.96 L139.115,95 L140.363,95 L140.363,83.8 L139.115,83.8 L139.115,88.84 L136.363,88.84 L136.363,83.8 L135.115,83.8 L135.115,95 L136.363,95 L136.363,89.96 L139.115,89.96 Z M144.494,88.76 L144.494,84.936 L147.854,84.936 L147.854,83.8 L143.246,83.8 L143.246,95 L147.854,95 L147.854,93.864 L144.494,93.864 L144.494,89.88 L147.23,89.88 L147.23,88.76 L144.494,88.76 Z M153.028,83.688 C151.316,83.688 150.516,84.808 150.516,86.504 L150.516,92.296 C150.516,93.992 151.316,95.112 153.028,95.112 C154.756,95.112 155.556,93.992 155.556,92.296 L155.556,90.904 L154.372,90.904 L154.372,92.36 C154.372,93.368 153.972,93.976 153.06,93.976 C152.164,93.976 151.748,93.368 151.748,92.36 L151.748,86.44 C151.748,85.432 152.164,84.824 153.06,84.824 C153.972,84.824 154.372,85.432 154.372,86.44 L154.372,87.512 L155.556,87.512 L155.556,86.504 C155.556,84.808 154.756,83.688 153.028,83.688 Z M162.386,92.744 L162.818,95 L164.066,95 L161.922,83.8 L160.114,83.8 L157.97,95 L159.122,95 L159.554,92.744 L162.386,92.744 Z M160.946,85.208 L162.21,91.672 L159.714,91.672 L160.946,85.208 Z" id="Shape" fill="url(#linearGradient-2)"></path>
                <path d="M394.8,65.8 L404.68,65.8 L404.68,60.6 L389.08,60.6 L389.08,97 L404.68,97 L404.68,91.8 L394.8,91.8 L394.8,81.14 L402.652,81.14 L402.652,75.94 L394.8,75.94 L394.8,65.8 Z M416.857,60.6 L408.225,60.6 L408.225,97 L417.221,97 C422.941,97 425.905,93.984 425.905,88.368 L425.905,85.404 C425.905,81.556 424.709,78.8 421.641,77.604 C424.189,76.408 425.333,74.016 425.333,70.272 L425.333,68.972 C425.333,63.356 422.785,60.6 416.857,60.6 Z M416.493,80.62 C419.093,80.62 420.185,81.66 420.185,85.04 L420.185,88.212 C420.185,90.916 419.145,91.8 417.221,91.8 L413.945,91.8 L413.945,80.62 L416.493,80.62 Z M416.701,65.8 C418.729,65.8 419.613,66.944 419.613,69.544 L419.613,71.572 C419.613,74.484 418.313,75.42 416.181,75.42 L413.945,75.42 L413.945,65.8 L416.701,65.8 Z M435.122,97 L435.122,65.8 L444.482,65.8 L444.482,60.6 L429.402,60.6 L429.402,97 L435.122,97 Z M454.062,65.8 L463.942,65.8 L463.942,60.6 L448.342,60.6 L448.342,97 L463.942,97 L463.942,91.8 L454.062,91.8 L454.062,81.14 L461.914,81.14 L461.914,75.94 L454.062,75.94 L454.062,65.8 Z M473.206,81.4 L479.706,81.4 L479.706,97 L485.53,97 L485.53,60.6 L479.706,60.6 L479.706,76.2 L473.206,76.2 L473.206,60.6 L467.486,60.6 L467.486,97 L473.206,97 L473.206,81.4 Z M500.338,80.308 L502.678,71.364 L502.678,97 L507.826,97 L507.826,60.6 L501.534,60.6 L496.854,75.628 L494.774,83.636 L494.774,60.6 L489.678,60.6 L489.678,97 L495.554,97 L500.338,80.308 Z M517.745,97 L511.869,97 L511.869,60.6 L516.965,60.6 L516.965,83.636 L519.045,75.628 L523.725,60.6 L530.017,60.6 L530.017,97 L524.869,97 L524.869,71.364 L522.529,80.308 L517.745,97 Z M523.621,52.488 C523.465,54.412 522.581,54.88 521.021,54.88 C519.513,54.88 518.733,54.412 518.577,52.488 L515.041,52.488 C515.145,56.024 517.017,58.26 521.021,58.26 C525.077,58.26 527.105,56.024 527.105,52.488 L523.621,52.488 Z M397.712,112.6 L389.08,112.6 L389.08,149 L398.076,149 C403.796,149 406.76,145.984 406.76,140.368 L406.76,137.404 C406.76,133.556 405.564,130.8 402.496,129.604 C405.044,128.408 406.188,126.016 406.188,122.272 L406.188,120.972 C406.188,115.356 403.64,112.6 397.712,112.6 Z M397.348,132.62 C399.948,132.62 401.04,133.66 401.04,137.04 L401.04,140.212 C401.04,142.916 400,143.8 398.076,143.8 L394.8,143.8 L394.8,132.62 L397.348,132.62 Z M397.556,117.8 C399.584,117.8 400.468,118.944 400.468,121.544 L400.468,123.572 C400.468,126.484 399.168,127.42 397.036,127.42 L394.8,127.42 L394.8,117.8 L397.556,117.8 Z M415.457,120.972 C415.457,118.372 416.601,117.384 418.421,117.384 C420.241,117.384 421.385,118.372 421.385,120.972 L421.385,140.628 C421.385,143.228 420.241,144.216 418.421,144.216 C416.601,144.216 415.457,143.228 415.457,140.628 L415.457,120.972 Z M409.737,140.264 C409.737,146.088 412.805,149.416 418.421,149.416 C424.037,149.416 427.105,146.088 427.105,140.264 L427.105,121.336 C427.105,115.512 424.037,112.184 418.421,112.184 C412.805,112.184 409.737,115.512 409.737,121.336 L409.737,140.264 Z M439.246,112.6 L430.822,112.6 L430.822,149 L436.542,149 L436.542,135.324 L439.246,135.324 C444.966,135.324 447.774,132.152 447.774,126.328 L447.774,121.596 C447.774,115.772 444.966,112.6 439.246,112.6 Z M439.246,117.8 C441.066,117.8 442.054,118.632 442.054,121.232 L442.054,126.692 C442.054,129.292 441.066,130.124 439.246,130.124 L436.542,130.124 L436.542,117.8 L439.246,117.8 Z M455.676,120.972 C455.676,118.372 456.82,117.384 458.64,117.384 C460.46,117.384 461.604,118.372 461.604,120.972 L461.604,140.628 C461.604,143.228 460.46,144.216 458.64,144.216 C456.82,144.216 455.676,143.228 455.676,140.628 L455.676,120.972 Z M449.956,140.264 C449.956,146.088 453.024,149.416 458.64,149.416 C464.256,149.416 467.324,146.088 467.324,140.264 L467.324,121.336 C467.324,115.512 464.256,112.184 458.64,112.184 C453.024,112.184 449.956,115.512 449.956,121.336 L449.956,140.264 Z M480.141,149 C485.861,149 488.773,145.828 488.773,140.004 L488.773,136.104 C488.773,130.28 485.861,127.108 480.141,127.108 L476.813,127.108 L476.813,117.8 L487.109,117.8 L487.109,112.6 L471.093,112.6 L471.093,149 L480.141,149 Z M476.813,143.8 L476.813,132.308 L480.141,132.308 C481.961,132.308 483.053,133.14 483.053,135.74 L483.053,140.368 C483.053,142.968 481.961,143.8 480.141,143.8 L476.813,143.8 Z M498.343,117.8 L508.223,117.8 L508.223,112.6 L492.623,112.6 L492.623,149 L508.223,149 L508.223,143.8 L498.343,143.8 L498.343,133.14 L506.195,133.14 L506.195,127.94 L498.343,127.94 L498.343,117.8 Z M517.644,149 L511.768,149 L511.768,112.6 L516.864,112.6 L516.864,135.636 L518.944,127.628 L523.624,112.6 L529.916,112.6 L529.916,149 L524.768,149 L524.768,123.364 L522.428,132.308 L517.644,149 Z M523.52,104.488 C523.364,106.412 522.48,106.88 520.92,106.88 C519.412,106.88 518.632,106.412 518.476,104.488 L514.94,104.488 C515.044,108.024 516.916,110.26 520.92,110.26 C524.975,110.26 527.004,108.024 527.004,104.488 L523.52,104.488 Z" id="Shape" fill="url(#linearGradient-3)"></path>
                <path d="M395.924,45.382 L390.464,45.382 L389.288,48 L388.21,48 L392.69,38.2 L393.712,38.2 L398.192,48 L397.1,48 L395.924,45.382 Z M395.546,44.542 L393.194,39.278 L390.842,44.542 L395.546,44.542 Z M407.741,47.132 L407.741,49.778 L406.803,49.778 L406.803,48 L400.209,48 L400.209,49.778 L399.271,49.778 L399.271,47.132 L399.691,47.132 C400.186,47.104 400.522,46.74 400.699,46.04 C400.877,45.34 400.998,44.36 401.063,43.1 L401.161,40.636 L406.593,40.636 L406.593,47.132 L407.741,47.132 Z M401.973,43.156 C401.927,44.2013 401.838,45.0647 401.707,45.746 C401.577,46.418 401.343,46.88 401.007,47.132 L405.599,47.132 L405.599,41.518 L402.057,41.518 L401.973,43.156 Z M415.068,44.192 C416.067,44.4253 416.566,45.0273 416.566,45.998 C416.566,46.642 416.328,47.1367 415.852,47.482 C415.376,47.8273 414.667,48 413.724,48 L410.378,48 L410.378,40.636 L413.626,40.636 C414.466,40.636 415.124,40.7993 415.6,41.126 C416.076,41.4527 416.314,41.9193 416.314,42.526 C416.314,42.9273 416.202,43.2727 415.978,43.562 C415.764,43.842 415.46,44.052 415.068,44.192 Z M411.344,43.912 L413.556,43.912 C414.126,43.912 414.56,43.8047 414.858,43.59 C415.166,43.3753 415.32,43.0627 415.32,42.652 C415.32,42.2413 415.166,41.9333 414.858,41.728 C414.56,41.5227 414.126,41.42 413.556,41.42 L411.344,41.42 L411.344,43.912 Z M413.682,47.216 C414.317,47.216 414.793,47.1133 415.11,46.908 C415.428,46.7027 415.586,46.3807 415.586,45.942 C415.586,45.5033 415.442,45.1813 415.152,44.976 C414.863,44.7613 414.406,44.654 413.78,44.654 L411.344,44.654 L411.344,47.216 L413.682,47.216 Z M422.634,48.07 C421.925,48.07 421.285,47.9113 420.716,47.594 C420.147,47.2673 419.699,46.8193 419.372,46.25 C419.045,45.6807 418.882,45.0367 418.882,44.318 C418.882,43.5993 419.045,42.9553 419.372,42.386 C419.699,41.8167 420.147,41.3733 420.716,41.056 C421.285,40.7387 421.925,40.58 422.634,40.58 C423.343,40.58 423.983,40.7387 424.552,41.056 C425.121,41.3733 425.565,41.8167 425.882,42.386 C426.209,42.9553 426.372,43.5993 426.372,44.318 C426.372,45.0367 426.209,45.6807 425.882,46.25 C425.565,46.8193 425.121,47.2673 424.552,47.594 C423.983,47.9113 423.343,48.07 422.634,48.07 Z M422.634,47.188 C423.157,47.188 423.623,47.0713 424.034,46.838 C424.454,46.5953 424.781,46.2547 425.014,45.816 C425.247,45.3773 425.364,44.878 425.364,44.318 C425.364,43.758 425.247,43.2587 425.014,42.82 C424.781,42.3813 424.454,42.0453 424.034,41.812 C423.623,41.5693 423.157,41.448 422.634,41.448 C422.111,41.448 421.64,41.5693 421.22,41.812 C420.809,42.0453 420.483,42.3813 420.24,42.82 C420.007,43.2587 419.89,43.758 419.89,44.318 C419.89,44.878 420.007,45.3773 420.24,45.816 C420.483,46.2547 420.809,46.5953 421.22,46.838 C421.64,47.0713 422.111,47.188 422.634,47.188 Z M431.87,44.724 L430.19,44.724 L430.19,48 L429.196,48 L429.196,40.636 L430.19,40.636 L430.19,43.87 L431.884,43.87 L434.474,40.636 L435.552,40.636 L432.654,44.206 L435.762,48 L434.586,48 L431.87,44.724 Z M440.428,40.58 C441.39,40.58 442.127,40.8227 442.64,41.308 C443.154,41.784 443.41,42.4933 443.41,43.436 L443.41,48 L442.458,48 L442.458,46.852 C442.234,47.2347 441.903,47.5333 441.464,47.748 C441.035,47.9627 440.522,48.07 439.924,48.07 C439.103,48.07 438.45,47.874 437.964,47.482 C437.479,47.09 437.236,46.572 437.236,45.928 C437.236,45.3027 437.46,44.7987 437.908,44.416 C438.366,44.0333 439.089,43.842 440.078,43.842 L442.416,43.842 L442.416,43.394 C442.416,42.7593 442.239,42.2787 441.884,41.952 C441.53,41.616 441.012,41.448 440.33,41.448 C439.864,41.448 439.416,41.5273 438.986,41.686 C438.557,41.8353 438.188,42.0453 437.88,42.316 L437.432,41.574 C437.806,41.2567 438.254,41.014 438.776,40.846 C439.299,40.6687 439.85,40.58 440.428,40.58 Z M440.078,47.286 C440.638,47.286 441.119,47.16 441.52,46.908 C441.922,46.6467 442.22,46.2733 442.416,45.788 L442.416,44.584 L440.106,44.584 C438.846,44.584 438.216,45.0227 438.216,45.9 C438.216,46.3293 438.38,46.67 438.706,46.922 C439.033,47.1647 439.49,47.286 440.078,47.286 Z M451.937,41.518 L449.151,41.518 L449.151,48 L448.157,48 L448.157,41.518 L445.371,41.518 L445.371,40.636 L451.937,40.636 L451.937,41.518 Z" id="Shape" fill="#AB7968"></path>
                <path d="M270.792,125.417 L230.833,102.958 L230.833,186.083 L243.667,193.958 L243.958,128.042 L270.792,145.833 L270.792,220.208 L260.583,213.792 L230.833,195.125 L214.5,184.917 L212.167,183.458 L204,178.208 L204,27.7083 L230.833,16.625 L262.625,3.5 L270.792,0 L270.792,98.5833 L243.958,82.8333 L243.958,19.5417 L230.833,25.0833 L230.833,93.9167 L270.792,116.375 L270.792,125.417 Z M344.876,25.6667 L351.001,28 L350.126,179.958 L329.418,192.792 L298.793,211.75 L284.501,220.5 L283.918,0 L290.918,2.91667 L344.876,25.375 L344.876,25.6667 Z M324.46,97.4167 L324.168,25.0833 L311.043,19.5417 L311.043,106.167 L324.46,97.4167 Z M324.46,186.958 L324.168,106.458 L310.751,115.208 L310.751,195.417 L324.46,186.958 Z" id="Shape" fill="url(#linearGradient-4)"></path>
            </g>
            <g id="preloader-2-en" transform="translate(204.000000, 0.000000)">
                <path d="M185.596,38.2 L186.632,38.2 L186.632,47.104 L192.12,47.104 L192.12,48 L185.596,48 L185.596,38.2 Z M196.933,40.58 C197.895,40.58 198.632,40.8227 199.145,41.308 C199.659,41.784 199.915,42.4933 199.915,43.436 L199.915,48 L198.963,48 L198.963,46.852 C198.739,47.2347 198.408,47.5333 197.969,47.748 C197.54,47.9627 197.027,48.07 196.429,48.07 C195.608,48.07 194.955,47.874 194.469,47.482 C193.984,47.09 193.741,46.572 193.741,45.928 C193.741,45.3027 193.965,44.7987 194.413,44.416 C194.871,44.0333 195.594,43.842 196.583,43.842 L198.921,43.842 L198.921,43.394 C198.921,42.7593 198.744,42.2787 198.389,41.952 C198.035,41.616 197.517,41.448 196.835,41.448 C196.369,41.448 195.921,41.5273 195.491,41.686 C195.062,41.8353 194.693,42.0453 194.385,42.316 L193.937,41.574 C194.311,41.2567 194.759,41.014 195.281,40.846 C195.804,40.6687 196.355,40.58 196.933,40.58 Z M196.583,47.286 C197.143,47.286 197.624,47.16 198.025,46.908 C198.427,46.6467 198.725,46.2733 198.921,45.788 L198.921,44.584 L196.611,44.584 C195.351,44.584 194.721,45.0227 194.721,45.9 C194.721,46.3293 194.885,46.67 195.211,46.922 C195.538,47.1647 195.995,47.286 196.583,47.286 Z M213.987,40.636 L211.201,48 L210.263,48 L207.939,41.966 L205.615,48 L204.677,48 L201.905,40.636 L202.857,40.636 L205.167,46.894 L207.533,40.636 L208.387,40.636 L210.739,46.894 L213.077,40.636 L213.987,40.636 Z M222.303,40.636 L218.621,48.882 C218.322,49.5727 217.977,50.0627 217.585,50.352 C217.193,50.6413 216.722,50.786 216.171,50.786 C215.816,50.786 215.485,50.73 215.177,50.618 C214.869,50.506 214.603,50.338 214.379,50.114 L214.841,49.372 C215.214,49.7453 215.662,49.932 216.185,49.932 C216.521,49.932 216.806,49.8387 217.039,49.652 C217.282,49.4653 217.506,49.148 217.711,48.7 L218.033,47.986 L214.743,40.636 L215.779,40.636 L218.551,46.894 L221.323,40.636 L222.303,40.636 Z M230.61,44.626 L224.45,44.626 C224.506,45.3913 224.8,46.012 225.332,46.488 C225.864,46.9547 226.536,47.188 227.348,47.188 C227.805,47.188 228.225,47.1087 228.608,46.95 C228.99,46.782 229.322,46.5393 229.602,46.222 L230.162,46.866 C229.835,47.258 229.424,47.5567 228.93,47.762 C228.444,47.9673 227.908,48.07 227.32,48.07 C226.564,48.07 225.892,47.9113 225.304,47.594 C224.725,47.2673 224.272,46.8193 223.946,46.25 C223.619,45.6807 223.456,45.0367 223.456,44.318 C223.456,43.5993 223.61,42.9553 223.918,42.386 C224.235,41.8167 224.664,41.3733 225.206,41.056 C225.756,40.7387 226.372,40.58 227.054,40.58 C227.735,40.58 228.346,40.7387 228.888,41.056 C229.429,41.3733 229.854,41.8167 230.162,42.386 C230.47,42.946 230.624,43.59 230.624,44.318 L230.61,44.626 Z M227.054,41.434 C226.344,41.434 225.747,41.6627 225.262,42.12 C224.786,42.568 224.515,43.156 224.45,43.884 L229.672,43.884 C229.606,43.156 229.331,42.568 228.846,42.12 C228.37,41.6627 227.772,41.434 227.054,41.434 Z M234.299,42.078 C234.532,41.5833 234.878,41.21 235.335,40.958 C235.802,40.706 236.376,40.58 237.057,40.58 L237.057,41.546 L236.819,41.532 C236.044,41.532 235.438,41.77 234.999,42.246 C234.56,42.722 234.341,43.3893 234.341,44.248 L234.341,48 L233.347,48 L233.347,40.636 L234.299,40.636 L234.299,42.078 Z" id="Shape" fill="#AB7968" fill-rule="nonzero"></path>
                <path d="M66.792,125.417 L26.833,102.958 L26.833,186.083 L39.667,193.958 L39.958,128.042 L66.792,145.833 L66.792,220.208 L56.583,213.792 L26.833,195.125 L10.5,184.917 L8.167,183.458 L0,178.208 L0,27.7083 L26.833,16.625 L58.625,3.5 L66.792,0 L66.792,98.5833 L39.958,82.8333 L39.958,19.5417 L26.833,25.0833 L26.833,93.9167 L66.792,116.375 L66.792,125.417 Z M140.876,25.6667 L147.001,28 L146.126,179.958 L125.418,192.792 L94.793,211.75 L80.501,220.5 L79.918,0 L86.918,2.91667 L140.876,25.375 L140.876,25.6667 Z M120.46,97.4167 L120.168,25.0833 L107.043,19.5417 L107.043,106.167 L120.46,97.4167 Z M120.46,186.958 L120.168,106.458 L106.751,115.208 L106.751,195.417 L120.46,186.958 Z" id="Shape" fill="url(#linearGradient-4)"></path>
                <path d="M190.8,65.8 L200.68,65.8 L200.68,60.6 L185.08,60.6 L185.08,97 L200.68,97 L200.68,91.8 L190.8,91.8 L190.8,81.14 L198.652,81.14 L198.652,75.94 L190.8,75.94 L190.8,65.8 Z M208.489,60.6 L202.717,60.6 L208.333,97 L216.861,97 L222.477,60.6 L217.225,60.6 L212.857,90.292 L208.489,60.6 Z M230.866,81.4 L237.366,81.4 L237.366,97 L243.19,97 L243.19,60.6 L237.366,60.6 L237.366,76.2 L230.866,76.2 L230.866,60.6 L225.146,60.6 L225.146,97 L230.866,97 L230.866,81.4 Z M253.058,65.8 L262.938,65.8 L262.938,60.6 L247.338,60.6 L247.338,97 L262.938,97 L262.938,91.8 L253.058,91.8 L253.058,81.14 L260.91,81.14 L260.91,75.94 L253.058,75.94 L253.058,65.8 Z M278.702,97 L284.578,97 L284.578,60.6 L279.482,60.6 L279.482,82.388 L273.606,60.6 L266.43,60.6 L266.43,97 L271.578,97 L271.578,70.636 L278.702,97 Z M288.674,97 L294.394,97 L294.394,60.6 L288.674,60.6 L288.674,97 Z M298.576,97 L304.296,97 L304.296,60.6 L298.576,60.6 L298.576,97 Z M189.344,112.6 L183.572,112.6 L189.188,149 L197.716,149 L203.332,112.6 L198.08,112.6 L193.712,142.292 L189.344,112.6 Z M211.203,120.972 C211.203,118.372 212.347,117.384 214.167,117.384 C215.987,117.384 217.131,118.372 217.131,120.972 L217.131,140.628 C217.131,143.228 215.987,144.216 214.167,144.216 C212.347,144.216 211.203,143.228 211.203,140.628 L211.203,120.972 Z M205.483,140.264 C205.483,146.088 208.551,149.416 214.167,149.416 C219.783,149.416 222.851,146.088 222.851,140.264 L222.851,121.336 C222.851,115.512 219.783,112.184 214.167,112.184 C208.551,112.184 205.483,115.512 205.483,121.336 L205.483,140.264 Z M244.352,149 C243.78,147.648 243.728,146.348 243.728,144.58 L243.728,138.964 C243.728,135.168 242.792,132.412 239.932,131.216 C242.48,130.02 243.676,127.576 243.676,123.832 L243.676,120.972 C243.676,115.356 241.128,112.6 235.2,112.6 L226.568,112.6 L226.568,149 L232.288,149 L232.288,134.18 L234.264,134.18 C236.864,134.18 238.008,135.428 238.008,138.808 L238.008,144.528 C238.008,147.492 238.216,148.064 238.528,149 L244.352,149 Z M235.044,117.8 C237.072,117.8 237.956,118.944 237.956,121.544 L237.956,125.132 C237.956,128.044 236.656,128.98 234.524,128.98 L232.288,128.98 L232.288,117.8 L235.044,117.8 Z M252.742,120.972 C252.742,118.372 253.886,117.384 255.706,117.384 C257.526,117.384 258.67,118.372 258.67,120.972 L258.67,140.628 C258.67,143.228 257.526,144.216 255.706,144.216 C253.886,144.216 252.742,143.228 252.742,140.628 L252.742,120.972 Z M247.022,140.264 C247.022,146.088 250.09,149.416 255.706,149.416 C261.322,149.416 264.39,146.088 264.39,140.264 L264.39,121.336 C264.39,115.512 261.322,112.184 255.706,112.184 C250.09,112.184 247.022,115.512 247.022,121.336 L247.022,140.264 Z M276.739,112.6 L268.107,112.6 L268.107,149 L277.103,149 C282.823,149 285.787,145.984 285.787,140.368 L285.787,137.404 C285.787,133.556 284.591,130.8 281.523,129.604 C284.071,128.408 285.215,126.016 285.215,122.272 L285.215,120.972 C285.215,115.356 282.667,112.6 276.739,112.6 Z M276.375,132.62 C278.975,132.62 280.067,133.66 280.067,137.04 L280.067,140.212 C280.067,142.916 279.027,143.8 277.103,143.8 L273.827,143.8 L273.827,132.62 L276.375,132.62 Z M276.583,117.8 C278.611,117.8 279.495,118.944 279.495,121.544 L279.495,123.572 C279.495,126.484 278.195,127.42 276.063,127.42 L273.827,127.42 L273.827,117.8 L276.583,117.8 Z M294.952,117.8 L304.832,117.8 L304.832,112.6 L289.232,112.6 L289.232,149 L304.832,149 L304.832,143.8 L294.952,143.8 L294.952,133.14 L302.804,133.14 L302.804,127.94 L294.952,127.94 L294.952,117.8 Z M308.377,149 L314.097,149 L314.097,112.6 L308.377,112.6 L308.377,149 Z" id="Shape" fill="url(#linearGradient-5)" fill-rule="nonzero"></path>
            </g>
        </g>
    </g>
</svg>