<svg width="549" height="221" viewBox="0 0 549 221" fill="none" xmlns="http://www.w3.org/2000/svg">
<path d="M397.596 38.2H398.632V47.104H404.12V48H397.596V38.2ZM408.933 40.58C409.895 40.58 410.632 40.8227 411.145 41.308C411.659 41.784 411.915 42.4933 411.915 43.436V48H410.963V46.852C410.739 47.2347 410.408 47.5333 409.969 47.748C409.54 47.9627 409.027 48.07 408.429 48.07C407.608 48.07 406.955 47.874 406.469 47.482C405.984 47.09 405.741 46.572 405.741 45.928C405.741 45.3027 405.965 44.7987 406.413 44.416C406.871 44.0333 407.594 43.842 408.583 43.842H410.921V43.394C410.921 42.7593 410.744 42.2787 410.389 41.952C410.035 41.616 409.517 41.448 408.835 41.448C408.369 41.448 407.921 41.5273 407.491 41.686C407.062 41.8353 406.693 42.0453 406.385 42.316L405.937 41.574C406.311 41.2567 406.759 41.014 407.281 40.846C407.804 40.6687 408.355 40.58 408.933 40.58ZM408.583 47.286C409.143 47.286 409.624 47.16 410.025 46.908C410.427 46.6467 410.725 46.2733 410.921 45.788V44.584H408.611C407.351 44.584 406.721 45.0227 406.721 45.9C406.721 46.3293 406.885 46.67 407.211 46.922C407.538 47.1647 407.995 47.286 408.583 47.286ZM425.987 40.636L423.201 48H422.263L419.939 41.966L417.615 48H416.677L413.905 40.636H414.857L417.167 46.894L419.533 40.636H420.387L422.739 46.894L425.077 40.636H425.987ZM434.303 40.636L430.621 48.882C430.322 49.5727 429.977 50.0627 429.585 50.352C429.193 50.6413 428.722 50.786 428.171 50.786C427.816 50.786 427.485 50.73 427.177 50.618C426.869 50.506 426.603 50.338 426.379 50.114L426.841 49.372C427.214 49.7453 427.662 49.932 428.185 49.932C428.521 49.932 428.806 49.8387 429.039 49.652C429.282 49.4653 429.506 49.148 429.711 48.7L430.033 47.986L426.743 40.636H427.779L430.551 46.894L433.323 40.636H434.303ZM442.61 44.626H436.45C436.506 45.3913 436.8 46.012 437.332 46.488C437.864 46.9547 438.536 47.188 439.348 47.188C439.805 47.188 440.225 47.1087 440.608 46.95C440.99 46.782 441.322 46.5393 441.602 46.222L442.162 46.866C441.835 47.258 441.424 47.5567 440.93 47.762C440.444 47.9673 439.908 48.07 439.32 48.07C438.564 48.07 437.892 47.9113 437.304 47.594C436.725 47.2673 436.272 46.8193 435.946 46.25C435.619 45.6807 435.456 45.0367 435.456 44.318C435.456 43.5993 435.61 42.9553 435.918 42.386C436.235 41.8167 436.664 41.3733 437.206 41.056C437.756 40.7387 438.372 40.58 439.054 40.58C439.735 40.58 440.346 40.7387 440.888 41.056C441.429 41.3733 441.854 41.8167 442.162 42.386C442.47 42.946 442.624 43.59 442.624 44.318L442.61 44.626ZM439.054 41.434C438.344 41.434 437.747 41.6627 437.262 42.12C436.786 42.568 436.515 43.156 436.45 43.884H441.672C441.606 43.156 441.331 42.568 440.846 42.12C440.37 41.6627 439.772 41.434 439.054 41.434ZM446.299 42.078C446.532 41.5833 446.878 41.21 447.335 40.958C447.802 40.706 448.376 40.58 449.057 40.58V41.546L448.819 41.532C448.044 41.532 447.438 41.77 446.999 42.246C446.56 42.722 446.341 43.3893 446.341 44.248V48H445.347V40.636H446.299V42.078Z" fill="#AB7968"/>
<path fill-rule="evenodd" clip-rule="evenodd" d="M278.792 125.417L238.833 102.958V186.083L251.667 193.958L251.958 128.042L278.792 145.833V220.208L268.583 213.792L238.833 195.125L222.5 184.917L220.167 183.458L212 178.208V27.7083L238.833 16.625L270.625 3.5L278.792 0V98.5833L251.958 82.8333V19.5417L238.833 25.0833V93.9167L278.792 116.375V125.417ZM352.876 25.6667L359.001 28L358.126 179.958L337.418 192.792L306.793 211.75L292.501 220.5L291.918 0L298.918 2.91667L352.876 25.375V25.6667ZM332.46 97.4167L332.168 25.0833L319.043 19.5417V106.167L332.46 97.4167ZM332.46 186.958L332.168 106.458L318.751 115.208V195.417L332.46 186.958Z" fill="url(#paint0_linear)"/>
<path d="M402.8 65.8H412.68V60.6H397.08V97H412.68V91.8H402.8V81.14H410.652V75.94H402.8V65.8ZM420.489 60.6H414.717L420.333 97H428.861L434.477 60.6H429.225L424.857 90.292L420.489 60.6ZM442.866 81.4H449.366V97H455.19V60.6H449.366V76.2H442.866V60.6H437.146V97H442.866V81.4ZM465.058 65.8H474.938V60.6H459.338V97H474.938V91.8H465.058V81.14H472.91V75.94H465.058V65.8ZM490.702 97H496.578V60.6H491.482V82.388L485.606 60.6H478.43V97H483.578V70.636L490.702 97ZM500.674 97H506.394V60.6H500.674V97ZM510.576 97H516.296V60.6H510.576V97ZM401.344 112.6H395.572L401.188 149H409.716L415.332 112.6H410.08L405.712 142.292L401.344 112.6ZM423.203 120.972C423.203 118.372 424.347 117.384 426.167 117.384C427.987 117.384 429.131 118.372 429.131 120.972V140.628C429.131 143.228 427.987 144.216 426.167 144.216C424.347 144.216 423.203 143.228 423.203 140.628V120.972ZM417.483 140.264C417.483 146.088 420.551 149.416 426.167 149.416C431.783 149.416 434.851 146.088 434.851 140.264V121.336C434.851 115.512 431.783 112.184 426.167 112.184C420.551 112.184 417.483 115.512 417.483 121.336V140.264ZM456.352 149C455.78 147.648 455.728 146.348 455.728 144.58V138.964C455.728 135.168 454.792 132.412 451.932 131.216C454.48 130.02 455.676 127.576 455.676 123.832V120.972C455.676 115.356 453.128 112.6 447.2 112.6H438.568V149H444.288V134.18H446.264C448.864 134.18 450.008 135.428 450.008 138.808V144.528C450.008 147.492 450.216 148.064 450.528 149H456.352ZM447.044 117.8C449.072 117.8 449.956 118.944 449.956 121.544V125.132C449.956 128.044 448.656 128.98 446.524 128.98H444.288V117.8H447.044ZM464.742 120.972C464.742 118.372 465.886 117.384 467.706 117.384C469.526 117.384 470.67 118.372 470.67 120.972V140.628C470.67 143.228 469.526 144.216 467.706 144.216C465.886 144.216 464.742 143.228 464.742 140.628V120.972ZM459.022 140.264C459.022 146.088 462.09 149.416 467.706 149.416C473.322 149.416 476.39 146.088 476.39 140.264V121.336C476.39 115.512 473.322 112.184 467.706 112.184C462.09 112.184 459.022 115.512 459.022 121.336V140.264ZM488.739 112.6H480.107V149H489.103C494.823 149 497.787 145.984 497.787 140.368V137.404C497.787 133.556 496.591 130.8 493.523 129.604C496.071 128.408 497.215 126.016 497.215 122.272V120.972C497.215 115.356 494.667 112.6 488.739 112.6ZM488.375 132.62C490.975 132.62 492.067 133.66 492.067 137.04V140.212C492.067 142.916 491.027 143.8 489.103 143.8H485.827V132.62H488.375ZM488.583 117.8C490.611 117.8 491.495 118.944 491.495 121.544V123.572C491.495 126.484 490.195 127.42 488.063 127.42H485.827V117.8H488.583ZM506.952 117.8H516.832V112.6H501.232V149H516.832V143.8H506.952V133.14H514.804V127.94H506.952V117.8ZM520.377 149H526.097V112.6H520.377V149Z" fill="url(#paint1_linear)"/>
<defs>
<linearGradient id="paint0_linear" x1="287.55" y1="284.691" x2="287.217" y2="55.1919" gradientUnits="userSpaceOnUse">
<stop stop-color="#E9C0A0"/>
<stop offset="0.1666" stop-color="#E5BB9C"/>
<stop offset="0.3663" stop-color="#D8AC90"/>
<stop offset="0.582" stop-color="#C3947E"/>
<stop offset="0.7709" stop-color="#AB7968"/>
<stop offset="0.7953" stop-color="#BD8C76"/>
<stop offset="0.8298" stop-color="#D0A084"/>
<stop offset="0.8692" stop-color="#DDAE8E"/>
<stop offset="0.9175" stop-color="#E5B794"/>
<stop offset="1" stop-color="#E7B996"/>
</linearGradient>
<linearGradient id="paint1_linear" x1="474.146" y1="179.365" x2="474.089" y2="81.5283" gradientUnits="userSpaceOnUse">
<stop stop-color="#E9C0A0"/>
<stop offset="0.1666" stop-color="#E5BB9C"/>
<stop offset="0.3663" stop-color="#D8AC90"/>
<stop offset="0.582" stop-color="#C3947E"/>
<stop offset="0.7709" stop-color="#AB7968"/>
<stop offset="0.7953" stop-color="#BD8C76"/>
<stop offset="0.8298" stop-color="#D0A084"/>
<stop offset="0.8692" stop-color="#DDAE8E"/>
<stop offset="0.9175" stop-color="#E5B794"/>
<stop offset="1" stop-color="#E7B996"/>
</linearGradient>
</defs>
</svg>
