<svg width="15" height="16" viewBox="0 0 15 16" fill="none" xmlns="http://www.w3.org/2000/svg">
<path d="M11.8456 11.31C11.2466 11.31 10.7075 11.5498 10.2994 11.9267L4.6686 8.59577C4.70978 8.41304 4.73973 8.2265 4.73973 8.03236C4.73973 7.84202 4.70604 7.65548 4.6686 7.46895L10.2357 4.16845C10.6588 4.56817 11.2204 4.81941 11.8456 4.81941C13.1597 4.81941 14.2155 3.7459 14.2155 2.40971C14.2155 1.07733 13.1559 0 11.8456 0C10.5352 0 9.47572 1.07733 9.47572 2.4059C9.47572 2.60005 9.50942 2.78277 9.54686 2.96931L3.97973 6.26981C3.55293 5.86629 2.99509 5.61884 2.36987 5.61884C1.05951 5.62646 0 6.69998 0 8.03236C0 9.36474 1.05951 10.4421 2.36987 10.4421C2.99135 10.4421 3.55293 10.1908 3.97973 9.7911L9.60301 13.1297C9.56557 13.301 9.53937 13.4761 9.53937 13.655C9.53937 14.9493 10.5764 16 11.8456 16C13.1148 16 14.1518 14.9493 14.1518 13.655C14.1518 12.3607 13.1148 11.31 11.8456 11.31Z" fill="#AB7968"/>
</svg>
