<svg width="42" height="33" viewBox="0 0 42 33" fill="none" xmlns="http://www.w3.org/2000/svg">
<path fill-rule="evenodd" clip-rule="evenodd" d="M14.3822 1.45031L23.572 6.75671C23.8269 6.9024 24.151 6.81449 24.2979 6.56204L24.5629 6.10236C24.7099 5.84991 24.6219 5.52462 24.3695 5.37768L15.1784 0.0712754C14.9247 -0.0756711 14.5994 0.0122454 14.4537 0.264692L14.1887 0.724371C14.0418 0.978073 14.1285 1.30337 14.3822 1.45031ZM6.42205 15.2371L15.6131 20.5447C15.8668 20.6904 16.1921 20.6038 16.3378 20.3513L16.6028 19.8929C16.7498 19.6404 16.6631 19.3139 16.4094 19.1682L7.21832 13.8618C6.96462 13.7149 6.63933 13.8028 6.49364 14.0552L6.22863 14.5149C6.08043 14.7648 6.16709 15.0901 6.42205 15.2371ZM20.4381 12.1873L38.8328 21.7212C39.0915 21.8569 39.1845 22.1734 39.04 22.4233L37.7125 24.7217C37.5668 24.9754 37.2465 25.0533 37.0004 24.8963L19.5476 13.7321L17.0734 18.0149C16.929 18.2673 16.6024 18.3553 16.35 18.2083L8.07701 13.4332C7.82457 13.2875 7.73791 12.9609 7.88234 12.7085L13.72 2.59808C13.8657 2.34563 14.1922 2.25772 14.4447 2.40341L22.7189 7.1798C22.9701 7.32549 23.0568 7.65203 22.9111 7.90448L20.4381 12.1873ZM41.7361 23.0642L40.818 22.5342C40.5668 22.3872 40.239 22.4751 40.0933 22.7276L38.4995 25.4844C38.3551 25.7368 38.4418 26.0634 38.6942 26.2078L39.6123 26.7378C39.8647 26.8848 40.19 26.7981 40.337 26.5444L41.9295 23.7876C42.0765 23.5352 41.9898 23.2086 41.7361 23.0642ZM20.7697 27.336H21.8762C22.3597 27.336 22.7528 27.7316 22.7528 28.2101V31.713C22.7528 32.194 22.3622 32.5884 21.8787 32.5884H0.875399C0.393113 32.5884 0 32.194 0 31.713V28.2126C0 27.7316 0.391857 27.336 0.875399 27.336H1.98315C1.84248 27.1802 1.74954 26.9793 1.74954 26.7532V25.8791C1.74954 25.398 2.14266 25.0037 2.62494 25.0037H20.1279C20.6089 25.0037 21.002 25.398 21.002 25.8791V26.7532C21.002 26.9793 20.9091 27.1802 20.7697 27.336ZM2.20043 31.3814H20.6315C21.1402 31.3814 21.5534 30.9669 21.5547 30.462L21.5534 29.5389C21.5547 29.0353 21.1402 28.6208 20.6315 28.6208H2.20043C1.69428 28.6183 1.28107 29.0353 1.27982 29.5402V30.462C1.27982 30.9669 1.69428 31.3814 2.20043 31.3814Z" fill="url(#paint0_linear)"/>
<defs>
<linearGradient id="paint0_linear" x1="21.586" y1="42.0753" x2="21.5606" y2="8.15692" gradientUnits="userSpaceOnUse">
<stop stop-color="#E9C0A0"/>
<stop offset="0.1666" stop-color="#E5BB9C"/>
<stop offset="0.3663" stop-color="#D8AC90"/>
<stop offset="0.582" stop-color="#C3947E"/>
<stop offset="0.7709" stop-color="#AB7968"/>
<stop offset="0.7953" stop-color="#BD8C76"/>
<stop offset="0.8298" stop-color="#D0A084"/>
<stop offset="0.8692" stop-color="#DDAE8E"/>
<stop offset="0.9175" stop-color="#E5B794"/>
<stop offset="1" stop-color="#E7B996"/>
</linearGradient>
</defs>
</svg>
