<svg width="549" height="221" viewBox="0 0 549 221" fill="none" xmlns="http://www.w3.org/2000/svg">
<path d="M111.912 118.688C110.2 118.688 109.4 119.808 109.4 121.504V127.296C109.4 128.992 110.2 130.112 111.912 130.112C113.64 130.112 114.44 128.992 114.44 127.296V125.904H113.256V127.36C113.256 128.368 112.856 128.976 111.944 128.976C111.048 128.976 110.632 128.368 110.632 127.36V121.44C110.632 120.432 111.048 119.824 111.944 119.824C112.856 119.824 113.256 120.432 113.256 121.44V122.512H114.44V121.504C114.44 119.808 113.64 118.688 111.912 118.688ZM122.934 118.8H121.638L120.63 122.688L119.974 125.504L119.206 122.688L118.07 118.8H116.822L119.398 127.056L119.142 127.792C118.934 128.64 118.502 128.944 117.542 128.896V130.016C119.574 130.112 120.15 129.216 120.534 127.536L122.934 118.8ZM132.182 131.536V128.896H131.334V118.8H126.838L126.406 127.264C126.374 127.952 126.294 128.464 125.91 128.896H125.19V131.536H126.39V130H130.966V131.536H132.182ZM127.99 119.936H130.07V128.896H127.11C127.462 128.528 127.574 128.048 127.622 127.248L127.99 119.936ZM136.122 123.76V119.936H139.482V118.8H134.874V130H139.482V128.864H136.122V124.88H138.858V123.76H136.122ZM143.488 123.424V119.936H146.976V118.8H142.256V130H144.864C146.624 130 147.44 129.024 147.44 127.28V126.048C147.44 124.256 146.544 123.424 144.8 123.424H143.488ZM143.488 128.864V124.544H144.8C145.712 124.544 146.192 124.88 146.192 125.968V127.36C146.192 128.4 145.776 128.864 144.864 128.864H143.488ZM154.262 124.96V130H155.51V118.8H154.262V123.84H151.51V118.8H150.262V130H151.51V124.96H154.262ZM162.489 127.744L162.921 130H164.169L162.025 118.8H160.217L158.073 130H159.225L159.657 127.744H162.489ZM161.049 120.208L162.313 126.672H159.817L161.049 120.208ZM170.519 125.216V130H171.767V118.8H169.271C167.511 118.8 166.775 119.696 166.775 121.36V122.272C166.775 123.504 167.207 124.272 168.151 124.576C167.143 124.88 166.759 125.712 166.759 126.912V128.656C166.759 129.152 166.727 129.616 166.535 130H167.799C167.943 129.68 168.007 129.392 168.007 128.64V126.88C168.007 125.616 168.599 125.216 169.639 125.216H170.519ZM170.519 119.936V124.08H169.575C168.599 124.08 168.007 123.76 168.007 122.544V121.472C168.007 120.464 168.375 119.936 169.303 119.936H170.519ZM114.277 141.936V152H115.525V140.8H110.277V152H111.525V141.936H114.277ZM118.409 140.8V152H119.657V147.584H120.761C122.537 147.584 123.369 146.656 123.369 144.88V143.536C123.369 141.84 122.617 140.8 120.857 140.8H118.409ZM119.657 146.464V141.936H120.857C121.769 141.936 122.137 142.448 122.137 143.472V144.96C122.137 146.032 121.689 146.464 120.761 146.464H119.657ZM130.042 149.744L130.474 152H131.722L129.578 140.8H127.77L125.626 152H126.778L127.21 149.744H130.042ZM128.602 142.208L129.866 148.672H127.37L128.602 142.208ZM138.6 152H139.88L136.952 145.904L139.784 140.8H138.52L135.544 146.208V140.8H134.296V152H135.544V148.24L136.2 147.136L138.6 152ZM145.403 152V141.936H147.467V140.8H142.091V141.936H144.155V152H145.403ZM154.156 143.088V152H155.276V140.8H153.884L152.092 146.064L151.1 149.152V140.8H149.996V152H151.292L152.94 146.832L154.156 143.088ZM162.447 152H163.727L160.799 145.904L163.631 140.8H162.367L159.391 146.208V140.8H158.143V152H159.391V148.24L160.047 147.136L162.447 152ZM170.386 149.744L170.818 152H172.066L169.922 140.8H168.114L165.97 152H167.122L167.554 149.744H170.386ZM168.946 142.208L170.21 148.672H167.714L168.946 142.208Z" fill="url(#paint0_linear)"/>
<path d="M89.6565 73H90.9365L88.0085 66.904L90.8405 61.8H89.5765L86.6005 67.208V61.8H85.3525V73H86.6005V69.24L87.2565 68.136L89.6565 73ZM93.4034 70.296C93.4034 71.992 94.2514 73.112 95.9634 73.112C97.6914 73.112 98.5394 71.992 98.5394 70.296V64.504C98.5394 62.792 97.6914 61.688 95.9634 61.688C94.2514 61.688 93.4034 62.792 93.4034 64.504V70.296ZM94.6354 64.44C94.6354 63.432 95.0674 62.824 95.9634 62.824C96.8754 62.824 97.2914 63.432 97.2914 64.44V70.36C97.2914 71.384 96.8754 71.976 95.9634 71.976C95.0674 71.976 94.6354 71.384 94.6354 70.36V64.44ZM107.222 63.992V73H108.406V61.8H106.662L104.886 70.744L103.046 61.8H101.302V73H102.39V64.072L104.246 72.984H105.446L107.222 63.992ZM115.293 62.936V73H116.541V61.8H111.293V73H112.541V62.936H115.293ZM123.952 62.936V73H125.2V61.8H120.64L120.336 70.28C120.304 71.352 120.128 71.88 119.088 71.88V73.016H119.296C121.008 73 121.488 71.992 121.552 70.216L121.808 62.936H123.952ZM129.382 66.76V62.936H132.742V61.8H128.134V73H132.742V71.864H129.382V67.88H132.118V66.76H129.382ZM139.803 73H141.083L138.155 66.904L140.987 61.8H139.723L136.747 67.208V61.8H135.499V73H136.747V69.24L137.403 68.136L139.803 73ZM146.062 61.688C144.35 61.688 143.55 62.808 143.55 64.504V70.296C143.55 71.992 144.35 73.112 146.062 73.112C147.79 73.112 148.59 71.992 148.59 70.296V68.904H147.406V70.36C147.406 71.368 147.006 71.976 146.094 71.976C145.198 71.976 144.782 71.368 144.782 70.36V64.44C144.782 63.432 145.198 62.824 146.094 62.824C147.006 62.824 147.406 63.432 147.406 64.44V65.512H148.59V64.504C148.59 62.808 147.79 61.688 146.062 61.688ZM155.324 67.96V73H156.572V61.8H155.324V66.84H152.572V61.8H151.324V73H152.572V67.96H155.324ZM159.36 70.296C159.36 71.992 160.208 73.112 161.92 73.112C163.648 73.112 164.496 71.992 164.496 70.296V64.504C164.496 62.792 163.648 61.688 161.92 61.688C160.208 61.688 159.36 62.792 159.36 64.504V70.296ZM160.592 64.44C160.592 63.432 161.024 62.824 161.92 62.824C162.832 62.824 163.248 63.432 163.248 64.44V70.36C163.248 71.384 162.832 71.976 161.92 71.976C161.024 71.976 160.592 71.384 160.592 70.36V64.44ZM168.522 66.76V62.936H171.882V61.8H167.274V73H171.882V71.864H168.522V67.88H171.258V66.76H168.522ZM10.9716 83.688C9.25962 83.688 8.45962 84.808 8.45962 86.504V92.296C8.45962 93.992 9.25962 95.112 10.9716 95.112C12.6996 95.112 13.4996 93.992 13.4996 92.296V90.904H12.3156V92.36C12.3156 93.368 11.9156 93.976 11.0036 93.976C10.1076 93.976 9.69162 93.368 9.69162 92.36V86.44C9.69162 85.432 10.1076 84.824 11.0036 84.824C11.9156 84.824 12.3156 85.432 12.3156 86.44V87.512H13.4996V86.504C13.4996 84.808 12.6996 83.688 10.9716 83.688ZM16.1377 92.296C16.1377 93.992 16.9857 95.112 18.6977 95.112C20.4257 95.112 21.2737 93.992 21.2737 92.296V86.504C21.2737 84.792 20.4257 83.688 18.6977 83.688C16.9857 83.688 16.1377 84.792 16.1377 86.504V92.296ZM17.3697 86.44C17.3697 85.432 17.8017 84.824 18.6977 84.824C19.6097 84.824 20.0257 85.432 20.0257 86.44V92.36C20.0257 93.384 19.6097 93.976 18.6977 93.976C17.8017 93.976 17.3697 93.384 17.3697 92.36V86.44ZM28.0525 84.936V95H29.3005V83.8H24.0525V95H25.3005V84.936H28.0525ZM32.1837 83.8V95H33.4317V90.584H34.5357C36.3117 90.584 37.1437 89.656 37.1437 87.88V86.536C37.1437 84.84 36.3917 83.8 34.6317 83.8H32.1837ZM33.4317 89.464V84.936H34.6317C35.5437 84.936 35.9117 85.448 35.9117 86.472V87.96C35.9117 89.032 35.4637 89.464 34.5357 89.464H33.4317ZM39.6252 92.296C39.6252 93.992 40.4732 95.112 42.1852 95.112C43.9132 95.112 44.7612 93.992 44.7612 92.296V86.504C44.7612 84.792 43.9132 83.688 42.1852 83.688C40.4732 83.688 39.6252 84.792 39.6252 86.504V92.296ZM40.8572 86.44C40.8572 85.432 41.2892 84.824 42.1852 84.824C43.0972 84.824 43.5132 85.432 43.5132 86.44V92.36C43.5132 93.384 43.0972 93.976 42.1852 93.976C41.2892 93.976 40.8572 93.384 40.8572 92.36V86.44ZM47.54 83.8V95H50.116C51.86 95 52.676 94.056 52.676 92.376V91.432C52.676 90.2 52.26 89.336 51.172 89.032C52.148 88.728 52.484 87.992 52.484 86.808V86.28C52.484 84.632 51.796 83.8 50.052 83.8H47.54ZM48.788 88.552V84.936H50.02C50.916 84.936 51.252 85.416 51.252 86.408V87.064C51.252 88.232 50.74 88.552 49.748 88.552H48.788ZM48.788 93.864V89.688H49.876C50.948 89.688 51.444 90.104 51.444 91.352V92.344C51.444 93.384 51.028 93.864 50.116 93.864H48.788ZM55.3096 92.296C55.3096 93.992 56.1576 95.112 57.8696 95.112C59.5976 95.112 60.4456 93.992 60.4456 92.296V86.504C60.4456 84.792 59.5976 83.688 57.8696 83.688C56.1576 83.688 55.3096 84.792 55.3096 86.504V92.296ZM56.5416 86.44C56.5416 85.432 56.9736 84.824 57.8696 84.824C58.7816 84.824 59.1976 85.432 59.1976 86.44V92.36C59.1976 93.384 58.7816 93.976 57.8696 93.976C56.9736 93.976 56.5416 93.384 56.5416 92.36V86.44ZM70.8404 95H72.1204L69.5764 88.52L72.0564 83.8H70.8084L68.1044 88.952V83.8H66.8724V88.952L64.1844 83.8H62.9364L65.4324 88.552L62.8724 95H64.1524L66.2964 89.704L66.8724 90.776V95H68.1044V90.776L68.6964 89.72L70.8404 95ZM81.3729 96.536V93.896H80.5249V83.8H76.0289L75.5969 92.264C75.5649 92.952 75.4849 93.464 75.1009 93.896H74.3809V96.536H75.5809V95H80.1569V96.536H81.3729ZM77.1809 84.936H79.2609V93.896H76.3009C76.6529 93.528 76.7649 93.048 76.8129 92.248L77.1809 84.936ZM85.313 88.76V84.936H88.673V83.8H84.065V95H88.673V93.864H85.313V89.88H88.049V88.76H85.313ZM95.4306 89.96V95H96.6786V83.8H95.4306V88.84H92.6786V83.8H91.4306V95H92.6786V89.96H95.4306ZM103.722 86.088V95H104.842V83.8H103.45L101.658 89.064L100.666 92.152V83.8H99.5619V95H100.858L102.506 89.832L103.722 86.088ZM108.957 88.76V84.936H112.317V83.8H107.709V95H112.317V93.864H108.957V89.88H111.693V88.76H108.957ZM120.407 88.424V84.936H123.895V83.8H119.175V95H121.783C123.543 95 124.359 94.024 124.359 92.28V91.048C124.359 89.256 123.463 88.424 121.719 88.424H120.407ZM120.407 93.864V89.544H121.719C122.631 89.544 123.111 89.88 123.111 90.968V92.36C123.111 93.4 122.695 93.864 121.783 93.864H120.407ZM131.341 86.088V95H132.461V83.8H131.069L129.277 89.064L128.285 92.152V83.8H127.181V95H128.477L130.125 89.832L131.341 86.088ZM137.776 83.688C136.064 83.688 135.28 84.776 135.28 86.488V87.192H136.432V86.44C136.432 85.432 136.848 84.824 137.744 84.824C138.656 84.824 139.056 85.4 139.056 86.552V87.064C139.056 88.04 138.512 88.6 137.68 88.6H137.088V89.72H137.616C138.56 89.72 139.056 90.296 139.056 91.384V92.264C139.056 93.384 138.656 93.976 137.744 93.976C136.848 93.976 136.432 93.368 136.432 92.36V91.208H135.264V92.296C135.264 93.992 136.064 95.112 137.776 95.112C139.504 95.112 140.304 93.992 140.304 92.296V91.416C140.304 90.296 139.872 89.432 138.928 89.112C139.84 88.776 140.304 87.944 140.304 86.792V86.504C140.304 84.808 139.504 83.688 137.776 83.688ZM147.115 89.96V95H148.363V83.8H147.115V88.84H144.363V83.8H143.115V95H144.363V89.96H147.115ZM152.494 88.76V84.936H155.854V83.8H151.246V95H155.854V93.864H152.494V89.88H155.23V88.76H152.494ZM161.028 83.688C159.316 83.688 158.516 84.808 158.516 86.504V92.296C158.516 93.992 159.316 95.112 161.028 95.112C162.756 95.112 163.556 93.992 163.556 92.296V90.904H162.372V92.36C162.372 93.368 161.972 93.976 161.06 93.976C160.164 93.976 159.748 93.368 159.748 92.36V86.44C159.748 85.432 160.164 84.824 161.06 84.824C161.972 84.824 162.372 85.432 162.372 86.44V87.512H163.556V86.504C163.556 84.808 162.756 83.688 161.028 83.688ZM170.386 92.744L170.818 95H172.066L169.922 83.8H168.114L165.97 95H167.122L167.554 92.744H170.386ZM168.946 85.208L170.21 91.672H167.714L168.946 85.208Z" fill="url(#paint1_linear)"/>
<path d="M402.8 65.8H412.68V60.6H397.08V97H412.68V91.8H402.8V81.14H410.652V75.94H402.8V65.8ZM424.857 60.6H416.225V97H425.221C430.941 97 433.905 93.984 433.905 88.368V85.404C433.905 81.556 432.709 78.8 429.641 77.604C432.189 76.408 433.333 74.016 433.333 70.272V68.972C433.333 63.356 430.785 60.6 424.857 60.6ZM424.493 80.62C427.093 80.62 428.185 81.66 428.185 85.04V88.212C428.185 90.916 427.145 91.8 425.221 91.8H421.945V80.62H424.493ZM424.701 65.8C426.729 65.8 427.613 66.944 427.613 69.544V71.572C427.613 74.484 426.313 75.42 424.181 75.42H421.945V65.8H424.701ZM443.122 97V65.8H452.482V60.6H437.402V97H443.122ZM462.062 65.8H471.942V60.6H456.342V97H471.942V91.8H462.062V81.14H469.914V75.94H462.062V65.8ZM481.206 81.4H487.706V97H493.53V60.6H487.706V76.2H481.206V60.6H475.486V97H481.206V81.4ZM508.338 80.308L510.678 71.364V97H515.826V60.6H509.534L504.854 75.628L502.774 83.636V60.6H497.678V97H503.554L508.338 80.308ZM525.745 97H519.869V60.6H524.965V83.636L527.045 75.628L531.725 60.6H538.017V97H532.869V71.364L530.529 80.308L525.745 97ZM531.621 52.488C531.465 54.412 530.581 54.88 529.021 54.88C527.513 54.88 526.733 54.412 526.577 52.488H523.041C523.145 56.024 525.017 58.26 529.021 58.26C533.077 58.26 535.105 56.024 535.105 52.488H531.621ZM405.712 112.6H397.08V149H406.076C411.796 149 414.76 145.984 414.76 140.368V137.404C414.76 133.556 413.564 130.8 410.496 129.604C413.044 128.408 414.188 126.016 414.188 122.272V120.972C414.188 115.356 411.64 112.6 405.712 112.6ZM405.348 132.62C407.948 132.62 409.04 133.66 409.04 137.04V140.212C409.04 142.916 408 143.8 406.076 143.8H402.8V132.62H405.348ZM405.556 117.8C407.584 117.8 408.468 118.944 408.468 121.544V123.572C408.468 126.484 407.168 127.42 405.036 127.42H402.8V117.8H405.556ZM423.457 120.972C423.457 118.372 424.601 117.384 426.421 117.384C428.241 117.384 429.385 118.372 429.385 120.972V140.628C429.385 143.228 428.241 144.216 426.421 144.216C424.601 144.216 423.457 143.228 423.457 140.628V120.972ZM417.737 140.264C417.737 146.088 420.805 149.416 426.421 149.416C432.037 149.416 435.105 146.088 435.105 140.264V121.336C435.105 115.512 432.037 112.184 426.421 112.184C420.805 112.184 417.737 115.512 417.737 121.336V140.264ZM447.246 112.6H438.822V149H444.542V135.324H447.246C452.966 135.324 455.774 132.152 455.774 126.328V121.596C455.774 115.772 452.966 112.6 447.246 112.6ZM447.246 117.8C449.066 117.8 450.054 118.632 450.054 121.232V126.692C450.054 129.292 449.066 130.124 447.246 130.124H444.542V117.8H447.246ZM463.676 120.972C463.676 118.372 464.82 117.384 466.64 117.384C468.46 117.384 469.604 118.372 469.604 120.972V140.628C469.604 143.228 468.46 144.216 466.64 144.216C464.82 144.216 463.676 143.228 463.676 140.628V120.972ZM457.956 140.264C457.956 146.088 461.024 149.416 466.64 149.416C472.256 149.416 475.324 146.088 475.324 140.264V121.336C475.324 115.512 472.256 112.184 466.64 112.184C461.024 112.184 457.956 115.512 457.956 121.336V140.264ZM488.141 149C493.861 149 496.773 145.828 496.773 140.004V136.104C496.773 130.28 493.861 127.108 488.141 127.108H484.813V117.8H495.109V112.6H479.093V149H488.141ZM484.813 143.8V132.308H488.141C489.961 132.308 491.053 133.14 491.053 135.74V140.368C491.053 142.968 489.961 143.8 488.141 143.8H484.813ZM506.343 117.8H516.223V112.6H500.623V149H516.223V143.8H506.343V133.14H514.195V127.94H506.343V117.8ZM525.644 149H519.768V112.6H524.864V135.636L526.944 127.628L531.624 112.6H537.916V149H532.768V123.364L530.428 132.308L525.644 149ZM531.52 104.488C531.364 106.412 530.48 106.88 528.92 106.88C527.412 106.88 526.632 106.412 526.476 104.488H522.94C523.044 108.024 524.916 110.26 528.92 110.26C532.975 110.26 535.004 108.024 535.004 104.488H531.52Z" fill="url(#paint2_linear)"/>
<path d="M403.924 45.382H398.464L397.288 48H396.21L400.69 38.2H401.712L406.192 48H405.1L403.924 45.382ZM403.546 44.542L401.194 39.278L398.842 44.542H403.546ZM415.741 47.132V49.778H414.803V48H408.209V49.778H407.271V47.132H407.691C408.186 47.104 408.522 46.74 408.699 46.04C408.877 45.34 408.998 44.36 409.063 43.1L409.161 40.636H414.593V47.132H415.741ZM409.973 43.156C409.927 44.2013 409.838 45.0647 409.707 45.746C409.577 46.418 409.343 46.88 409.007 47.132H413.599V41.518H410.057L409.973 43.156ZM423.068 44.192C424.067 44.4253 424.566 45.0273 424.566 45.998C424.566 46.642 424.328 47.1367 423.852 47.482C423.376 47.8273 422.667 48 421.724 48H418.378V40.636H421.626C422.466 40.636 423.124 40.7993 423.6 41.126C424.076 41.4527 424.314 41.9193 424.314 42.526C424.314 42.9273 424.202 43.2727 423.978 43.562C423.764 43.842 423.46 44.052 423.068 44.192ZM419.344 43.912H421.556C422.126 43.912 422.56 43.8047 422.858 43.59C423.166 43.3753 423.32 43.0627 423.32 42.652C423.32 42.2413 423.166 41.9333 422.858 41.728C422.56 41.5227 422.126 41.42 421.556 41.42H419.344V43.912ZM421.682 47.216C422.317 47.216 422.793 47.1133 423.11 46.908C423.428 46.7027 423.586 46.3807 423.586 45.942C423.586 45.5033 423.442 45.1813 423.152 44.976C422.863 44.7613 422.406 44.654 421.78 44.654H419.344V47.216H421.682ZM430.634 48.07C429.925 48.07 429.285 47.9113 428.716 47.594C428.147 47.2673 427.699 46.8193 427.372 46.25C427.045 45.6807 426.882 45.0367 426.882 44.318C426.882 43.5993 427.045 42.9553 427.372 42.386C427.699 41.8167 428.147 41.3733 428.716 41.056C429.285 40.7387 429.925 40.58 430.634 40.58C431.343 40.58 431.983 40.7387 432.552 41.056C433.121 41.3733 433.565 41.8167 433.882 42.386C434.209 42.9553 434.372 43.5993 434.372 44.318C434.372 45.0367 434.209 45.6807 433.882 46.25C433.565 46.8193 433.121 47.2673 432.552 47.594C431.983 47.9113 431.343 48.07 430.634 48.07ZM430.634 47.188C431.157 47.188 431.623 47.0713 432.034 46.838C432.454 46.5953 432.781 46.2547 433.014 45.816C433.247 45.3773 433.364 44.878 433.364 44.318C433.364 43.758 433.247 43.2587 433.014 42.82C432.781 42.3813 432.454 42.0453 432.034 41.812C431.623 41.5693 431.157 41.448 430.634 41.448C430.111 41.448 429.64 41.5693 429.22 41.812C428.809 42.0453 428.483 42.3813 428.24 42.82C428.007 43.2587 427.89 43.758 427.89 44.318C427.89 44.878 428.007 45.3773 428.24 45.816C428.483 46.2547 428.809 46.5953 429.22 46.838C429.64 47.0713 430.111 47.188 430.634 47.188ZM439.87 44.724H438.19V48H437.196V40.636H438.19V43.87H439.884L442.474 40.636H443.552L440.654 44.206L443.762 48H442.586L439.87 44.724ZM448.428 40.58C449.39 40.58 450.127 40.8227 450.64 41.308C451.154 41.784 451.41 42.4933 451.41 43.436V48H450.458V46.852C450.234 47.2347 449.903 47.5333 449.464 47.748C449.035 47.9627 448.522 48.07 447.924 48.07C447.103 48.07 446.45 47.874 445.964 47.482C445.479 47.09 445.236 46.572 445.236 45.928C445.236 45.3027 445.46 44.7987 445.908 44.416C446.366 44.0333 447.089 43.842 448.078 43.842H450.416V43.394C450.416 42.7593 450.239 42.2787 449.884 41.952C449.53 41.616 449.012 41.448 448.33 41.448C447.864 41.448 447.416 41.5273 446.986 41.686C446.557 41.8353 446.188 42.0453 445.88 42.316L445.432 41.574C445.806 41.2567 446.254 41.014 446.776 40.846C447.299 40.6687 447.85 40.58 448.428 40.58ZM448.078 47.286C448.638 47.286 449.119 47.16 449.52 46.908C449.922 46.6467 450.22 46.2733 450.416 45.788V44.584H448.106C446.846 44.584 446.216 45.0227 446.216 45.9C446.216 46.3293 446.38 46.67 446.706 46.922C447.033 47.1647 447.49 47.286 448.078 47.286ZM459.937 41.518H457.151V48H456.157V41.518H453.371V40.636H459.937V41.518Z" fill="#AB7968"/>
<path fill-rule="evenodd" clip-rule="evenodd" d="M278.792 125.417L238.833 102.958V186.083L251.667 193.958L251.958 128.042L278.792 145.833V220.208L268.583 213.792L238.833 195.125L222.5 184.917L220.167 183.458L212 178.208V27.7083L238.833 16.625L270.625 3.5L278.792 0V98.5833L251.958 82.8333V19.5417L238.833 25.0833V93.9167L278.792 116.375V125.417ZM352.876 25.6667L359.001 28L358.126 179.958L337.418 192.792L306.793 211.75L292.501 220.5L291.918 0L298.918 2.91667L352.876 25.375V25.6667ZM332.46 97.4167L332.168 25.0833L319.043 19.5417V106.167L332.46 97.4167ZM332.46 186.958L332.168 106.458L318.751 115.208V195.417L332.46 186.958Z" fill="url(#paint3_linear)"/>
<defs>
<linearGradient id="paint0_linear" x1="111.298" y1="160.607" x2="111.29" y2="126.26" gradientUnits="userSpaceOnUse">
<stop stop-color="#E9C0A0"/>
<stop offset="0.1666" stop-color="#E5BB9C"/>
<stop offset="0.3663" stop-color="#D8AC90"/>
<stop offset="0.582" stop-color="#C3947E"/>
<stop offset="0.7709" stop-color="#AB7968"/>
<stop offset="0.7953" stop-color="#BD8C76"/>
<stop offset="0.8298" stop-color="#D0A084"/>
<stop offset="0.8692" stop-color="#DDAE8E"/>
<stop offset="0.9175" stop-color="#E5B794"/>
<stop offset="1" stop-color="#E7B996"/>
</linearGradient>
<linearGradient id="paint1_linear" x1="89.4252" y1="107.48" x2="89.4177" y2="70.0108" gradientUnits="userSpaceOnUse">
<stop stop-color="#E9C0A0"/>
<stop offset="0.1666" stop-color="#E5BB9C"/>
<stop offset="0.3663" stop-color="#D8AC90"/>
<stop offset="0.582" stop-color="#C3947E"/>
<stop offset="0.7709" stop-color="#AB7968"/>
<stop offset="0.7953" stop-color="#BD8C76"/>
<stop offset="0.8298" stop-color="#D0A084"/>
<stop offset="0.8692" stop-color="#DDAE8E"/>
<stop offset="0.9175" stop-color="#E5B794"/>
<stop offset="1" stop-color="#E7B996"/>
</linearGradient>
<linearGradient id="paint2_linear" x1="474.146" y1="179.365" x2="474.089" y2="81.5283" gradientUnits="userSpaceOnUse">
<stop stop-color="#E9C0A0"/>
<stop offset="0.1666" stop-color="#E5BB9C"/>
<stop offset="0.3663" stop-color="#D8AC90"/>
<stop offset="0.582" stop-color="#C3947E"/>
<stop offset="0.7709" stop-color="#AB7968"/>
<stop offset="0.7953" stop-color="#BD8C76"/>
<stop offset="0.8298" stop-color="#D0A084"/>
<stop offset="0.8692" stop-color="#DDAE8E"/>
<stop offset="0.9175" stop-color="#E5B794"/>
<stop offset="1" stop-color="#E7B996"/>
</linearGradient>
<linearGradient id="paint3_linear" x1="287.55" y1="284.691" x2="287.217" y2="55.1919" gradientUnits="userSpaceOnUse">
<stop stop-color="#E9C0A0"/>
<stop offset="0.1666" stop-color="#E5BB9C"/>
<stop offset="0.3663" stop-color="#D8AC90"/>
<stop offset="0.582" stop-color="#C3947E"/>
<stop offset="0.7709" stop-color="#AB7968"/>
<stop offset="0.7953" stop-color="#BD8C76"/>
<stop offset="0.8298" stop-color="#D0A084"/>
<stop offset="0.8692" stop-color="#DDAE8E"/>
<stop offset="0.9175" stop-color="#E5B794"/>
<stop offset="1" stop-color="#E7B996"/>
</linearGradient>
</defs>
</svg>
