<?xml version="1.0" encoding="UTF-8"?>
<svg width="531px" height="221px" viewBox="0 0 531 221" version="1.1" xmlns="http://www.w3.org/2000/svg" xmlns:xlink="http://www.w3.org/1999/xlink">
    <!-- Generator: Sketch 52.1 (67048) - http://www.bohemiancoding.com/sketch -->
    <title>Group</title>
    <desc>Created with Sketch.</desc>
    <defs>
        <linearGradient x1="3.02875563%" y1="125.837536%" x2="3.01598953%" y2="22.7305476%" id="linearGradient-1">
            <stop stop-color="#E9C0A0" offset="0%"></stop>
            <stop stop-color="#E5BB9C" offset="16.66%"></stop>
            <stop stop-color="#D8AC90" offset="36.63%"></stop>
            <stop stop-color="#C3947E" offset="58.2%"></stop>
            <stop stop-color="#AB7968" offset="77.09%"></stop>
            <stop stop-color="#BD8C76" offset="79.53%"></stop>
            <stop stop-color="#D0A084" offset="82.98%"></stop>
            <stop stop-color="#DDAE8E" offset="86.92%"></stop>
            <stop stop-color="#E5B794" offset="91.75%"></stop>
            <stop stop-color="#E7B996" offset="100%"></stop>
        </linearGradient>
        <linearGradient x1="49.4880334%" y1="131.404959%" x2="49.4834492%" y2="23.8831497%" id="linearGradient-2">
            <stop stop-color="#E9C0A0" offset="0%"></stop>
            <stop stop-color="#E5BB9C" offset="16.66%"></stop>
            <stop stop-color="#D8AC90" offset="36.63%"></stop>
            <stop stop-color="#C3947E" offset="58.2%"></stop>
            <stop stop-color="#AB7968" offset="77.09%"></stop>
            <stop stop-color="#BD8C76" offset="79.53%"></stop>
            <stop stop-color="#D0A084" offset="82.98%"></stop>
            <stop stop-color="#DDAE8E" offset="86.92%"></stop>
            <stop stop-color="#E5B794" offset="91.75%"></stop>
            <stop stop-color="#E7B996" offset="100%"></stop>
        </linearGradient>
        <linearGradient x1="54.6811696%" y1="130.898192%" x2="54.640726%" y2="29.9606925%" id="linearGradient-3">
            <stop stop-color="#E9C0A0" offset="0%"></stop>
            <stop stop-color="#E5BB9C" offset="16.66%"></stop>
            <stop stop-color="#D8AC90" offset="36.63%"></stop>
            <stop stop-color="#C3947E" offset="58.2%"></stop>
            <stop stop-color="#AB7968" offset="77.09%"></stop>
            <stop stop-color="#BD8C76" offset="79.53%"></stop>
            <stop stop-color="#D0A084" offset="82.98%"></stop>
            <stop stop-color="#DDAE8E" offset="86.92%"></stop>
            <stop stop-color="#E5B794" offset="91.75%"></stop>
            <stop stop-color="#E7B996" offset="100%"></stop>
        </linearGradient>
        <linearGradient x1="51.3942082%" y1="129.111565%" x2="51.1676791%" y2="25.0303401%" id="linearGradient-4">
            <stop stop-color="#E9C0A0" offset="0%"></stop>
            <stop stop-color="#E5BB9C" offset="16.66%"></stop>
            <stop stop-color="#D8AC90" offset="36.63%"></stop>
            <stop stop-color="#C3947E" offset="58.2%"></stop>
            <stop stop-color="#AB7968" offset="77.09%"></stop>
            <stop stop-color="#BD8C76" offset="79.53%"></stop>
            <stop stop-color="#D0A084" offset="82.98%"></stop>
            <stop stop-color="#DDAE8E" offset="86.92%"></stop>
            <stop stop-color="#E5B794" offset="91.75%"></stop>
            <stop stop-color="#E7B996" offset="100%"></stop>
        </linearGradient>
        <linearGradient x1="463.980769%" y1="321.519231%" x2="463.551282%" y2="44.3659341%" id="linearGradient-5">
            <stop stop-color="#E9C0A0" offset="0%"></stop>
            <stop stop-color="#E5BB9C" offset="16.66%"></stop>
            <stop stop-color="#D8AC90" offset="36.63%"></stop>
            <stop stop-color="#C3947E" offset="58.2%"></stop>
            <stop stop-color="#AB7968" offset="77.09%"></stop>
            <stop stop-color="#BD8C76" offset="79.53%"></stop>
            <stop stop-color="#D0A084" offset="82.98%"></stop>
            <stop stop-color="#DDAE8E" offset="86.92%"></stop>
            <stop stop-color="#E5B794" offset="91.75%"></stop>
            <stop stop-color="#E7B996" offset="100%"></stop>
        </linearGradient>
        <linearGradient x1="301.108597%" y1="321.519231%" x2="300.729638%" y2="44.3659341%" id="linearGradient-6">
            <stop stop-color="#E9C0A0" offset="0%"></stop>
            <stop stop-color="#E5BB9C" offset="16.66%"></stop>
            <stop stop-color="#D8AC90" offset="36.63%"></stop>
            <stop stop-color="#C3947E" offset="58.2%"></stop>
            <stop stop-color="#AB7968" offset="77.09%"></stop>
            <stop stop-color="#BD8C76" offset="79.53%"></stop>
            <stop stop-color="#D0A084" offset="82.98%"></stop>
            <stop stop-color="#DDAE8E" offset="86.92%"></stop>
            <stop stop-color="#E5B794" offset="91.75%"></stop>
            <stop stop-color="#E7B996" offset="100%"></stop>
        </linearGradient>
        <linearGradient x1="212.592838%" y1="321.519231%" x2="212.148541%" y2="44.3659341%" id="linearGradient-7">
            <stop stop-color="#E9C0A0" offset="0%"></stop>
            <stop stop-color="#E5BB9C" offset="16.66%"></stop>
            <stop stop-color="#D8AC90" offset="36.63%"></stop>
            <stop stop-color="#C3947E" offset="58.2%"></stop>
            <stop stop-color="#AB7968" offset="77.09%"></stop>
            <stop stop-color="#BD8C76" offset="79.53%"></stop>
            <stop stop-color="#D0A084" offset="82.98%"></stop>
            <stop stop-color="#DDAE8E" offset="86.92%"></stop>
            <stop stop-color="#E5B794" offset="91.75%"></stop>
            <stop stop-color="#E7B996" offset="100%"></stop>
        </linearGradient>
        <linearGradient x1="84.0961538%" y1="321.519231%" x2="83.6666667%" y2="44.3659341%" id="linearGradient-8">
            <stop stop-color="#E9C0A0" offset="0%"></stop>
            <stop stop-color="#E5BB9C" offset="16.66%"></stop>
            <stop stop-color="#D8AC90" offset="36.63%"></stop>
            <stop stop-color="#C3947E" offset="58.2%"></stop>
            <stop stop-color="#AB7968" offset="77.09%"></stop>
            <stop stop-color="#BD8C76" offset="79.53%"></stop>
            <stop stop-color="#D0A084" offset="82.98%"></stop>
            <stop stop-color="#DDAE8E" offset="86.92%"></stop>
            <stop stop-color="#E5B794" offset="91.75%"></stop>
            <stop stop-color="#E7B996" offset="100%"></stop>
        </linearGradient>
        <linearGradient x1="-33.3906008%" y1="321.519231%" x2="-33.7619153%" y2="44.3659341%" id="linearGradient-9">
            <stop stop-color="#E9C0A0" offset="0%"></stop>
            <stop stop-color="#E5BB9C" offset="16.66%"></stop>
            <stop stop-color="#D8AC90" offset="36.63%"></stop>
            <stop stop-color="#C3947E" offset="58.2%"></stop>
            <stop stop-color="#AB7968" offset="77.09%"></stop>
            <stop stop-color="#BD8C76" offset="79.53%"></stop>
            <stop stop-color="#D0A084" offset="82.98%"></stop>
            <stop stop-color="#DDAE8E" offset="86.92%"></stop>
            <stop stop-color="#E5B794" offset="91.75%"></stop>
            <stop stop-color="#E7B996" offset="100%"></stop>
        </linearGradient>
        <linearGradient x1="-493.304196%" y1="321.519231%" x2="-494.475524%" y2="44.3659341%" id="linearGradient-10">
            <stop stop-color="#E9C0A0" offset="0%"></stop>
            <stop stop-color="#E5BB9C" offset="16.66%"></stop>
            <stop stop-color="#D8AC90" offset="36.63%"></stop>
            <stop stop-color="#C3947E" offset="58.2%"></stop>
            <stop stop-color="#AB7968" offset="77.09%"></stop>
            <stop stop-color="#BD8C76" offset="79.53%"></stop>
            <stop stop-color="#D0A084" offset="82.98%"></stop>
            <stop stop-color="#DDAE8E" offset="86.92%"></stop>
            <stop stop-color="#E5B794" offset="91.75%"></stop>
            <stop stop-color="#E7B996" offset="100%"></stop>
        </linearGradient>
        <linearGradient x1="-210.045184%" y1="281.148904%" x2="-210.414371%" y2="54.5048526%" id="linearGradient-11">
            <stop stop-color="#E9C0A0" offset="0%"></stop>
            <stop stop-color="#E5BB9C" offset="16.66%"></stop>
            <stop stop-color="#D8AC90" offset="36.63%"></stop>
            <stop stop-color="#C3947E" offset="58.2%"></stop>
            <stop stop-color="#AB7968" offset="77.09%"></stop>
            <stop stop-color="#BD8C76" offset="79.53%"></stop>
            <stop stop-color="#D0A084" offset="82.98%"></stop>
            <stop stop-color="#DDAE8E" offset="86.92%"></stop>
            <stop stop-color="#E5B794" offset="91.75%"></stop>
            <stop stop-color="#E7B996" offset="100%"></stop>
        </linearGradient>
        <linearGradient x1="409.394796%" y1="178.662088%" x2="409.015837%" y2="-98.4912088%" id="linearGradient-12">
            <stop stop-color="#E9C0A0" offset="0%"></stop>
            <stop stop-color="#E5BB9C" offset="16.66%"></stop>
            <stop stop-color="#D8AC90" offset="36.63%"></stop>
            <stop stop-color="#C3947E" offset="58.2%"></stop>
            <stop stop-color="#AB7968" offset="77.09%"></stop>
            <stop stop-color="#BD8C76" offset="79.53%"></stop>
            <stop stop-color="#D0A084" offset="82.98%"></stop>
            <stop stop-color="#DDAE8E" offset="86.92%"></stop>
            <stop stop-color="#E5B794" offset="91.75%"></stop>
            <stop stop-color="#E7B996" offset="100%"></stop>
        </linearGradient>
        <linearGradient x1="297.812068%" y1="175.786957%" x2="297.426301%" y2="-95.1729695%" id="linearGradient-13">
            <stop stop-color="#E9C0A0" offset="0%"></stop>
            <stop stop-color="#E5BB9C" offset="16.66%"></stop>
            <stop stop-color="#D8AC90" offset="36.63%"></stop>
            <stop stop-color="#C3947E" offset="58.2%"></stop>
            <stop stop-color="#AB7968" offset="77.09%"></stop>
            <stop stop-color="#BD8C76" offset="79.53%"></stop>
            <stop stop-color="#D0A084" offset="82.98%"></stop>
            <stop stop-color="#DDAE8E" offset="86.92%"></stop>
            <stop stop-color="#E5B794" offset="91.75%"></stop>
            <stop stop-color="#E7B996" offset="100%"></stop>
        </linearGradient>
        <linearGradient x1="180.739736%" y1="178.662088%" x2="180.344502%" y2="-98.4912088%" id="linearGradient-14">
            <stop stop-color="#E9C0A0" offset="0%"></stop>
            <stop stop-color="#E5BB9C" offset="16.66%"></stop>
            <stop stop-color="#D8AC90" offset="36.63%"></stop>
            <stop stop-color="#C3947E" offset="58.2%"></stop>
            <stop stop-color="#AB7968" offset="77.09%"></stop>
            <stop stop-color="#BD8C76" offset="79.53%"></stop>
            <stop stop-color="#D0A084" offset="82.98%"></stop>
            <stop stop-color="#DDAE8E" offset="86.92%"></stop>
            <stop stop-color="#E5B794" offset="91.75%"></stop>
            <stop stop-color="#E7B996" offset="100%"></stop>
        </linearGradient>
        <linearGradient x1="66.242515%" y1="175.786957%" x2="65.856748%" y2="-95.1729695%" id="linearGradient-15">
            <stop stop-color="#E9C0A0" offset="0%"></stop>
            <stop stop-color="#E5BB9C" offset="16.66%"></stop>
            <stop stop-color="#D8AC90" offset="36.63%"></stop>
            <stop stop-color="#C3947E" offset="58.2%"></stop>
            <stop stop-color="#AB7968" offset="77.09%"></stop>
            <stop stop-color="#BD8C76" offset="79.53%"></stop>
            <stop stop-color="#D0A084" offset="82.98%"></stop>
            <stop stop-color="#DDAE8E" offset="86.92%"></stop>
            <stop stop-color="#E5B794" offset="91.75%"></stop>
            <stop stop-color="#E7B996" offset="100%"></stop>
        </linearGradient>
        <linearGradient x1="-54.479638%" y1="178.662088%" x2="-54.8585973%" y2="-98.4912088%" id="linearGradient-16">
            <stop stop-color="#E9C0A0" offset="0%"></stop>
            <stop stop-color="#E5BB9C" offset="16.66%"></stop>
            <stop stop-color="#D8AC90" offset="36.63%"></stop>
            <stop stop-color="#C3947E" offset="58.2%"></stop>
            <stop stop-color="#AB7968" offset="77.09%"></stop>
            <stop stop-color="#BD8C76" offset="79.53%"></stop>
            <stop stop-color="#D0A084" offset="82.98%"></stop>
            <stop stop-color="#DDAE8E" offset="86.92%"></stop>
            <stop stop-color="#E5B794" offset="91.75%"></stop>
            <stop stop-color="#E7B996" offset="100%"></stop>
        </linearGradient>
        <linearGradient x1="-199.75641%" y1="178.662088%" x2="-200.185897%" y2="-98.4912088%" id="linearGradient-17">
            <stop stop-color="#E9C0A0" offset="0%"></stop>
            <stop stop-color="#E5BB9C" offset="16.66%"></stop>
            <stop stop-color="#D8AC90" offset="36.63%"></stop>
            <stop stop-color="#C3947E" offset="58.2%"></stop>
            <stop stop-color="#AB7968" offset="77.09%"></stop>
            <stop stop-color="#BD8C76" offset="79.53%"></stop>
            <stop stop-color="#D0A084" offset="82.98%"></stop>
            <stop stop-color="#DDAE8E" offset="86.92%"></stop>
            <stop stop-color="#E5B794" offset="91.75%"></stop>
            <stop stop-color="#E7B996" offset="100%"></stop>
        </linearGradient>
        <linearGradient x1="-277.2041%" y1="164.326474%" x2="-277.573286%" y2="-62.3175773%" id="linearGradient-18">
            <stop stop-color="#E9C0A0" offset="0%"></stop>
            <stop stop-color="#E5BB9C" offset="16.66%"></stop>
            <stop stop-color="#D8AC90" offset="36.63%"></stop>
            <stop stop-color="#C3947E" offset="58.2%"></stop>
            <stop stop-color="#AB7968" offset="77.09%"></stop>
            <stop stop-color="#BD8C76" offset="79.53%"></stop>
            <stop stop-color="#D0A084" offset="82.98%"></stop>
            <stop stop-color="#DDAE8E" offset="86.92%"></stop>
            <stop stop-color="#E5B794" offset="91.75%"></stop>
            <stop stop-color="#E7B996" offset="100%"></stop>
        </linearGradient>
    </defs>
    <g id="Page-1" stroke="none" stroke-width="1" fill="none" fill-rule="evenodd">
        <g id="Group">
            <g id="preloader-2" opacity="0.01" fill-rule="nonzero">
                <path d="M103.912,118.688 C102.2,118.688 101.4,119.808 101.4,121.504 L101.4,127.296 C101.4,128.992 102.2,130.112 103.912,130.112 C105.64,130.112 106.44,128.992 106.44,127.296 L106.44,125.904 L105.256,125.904 L105.256,127.36 C105.256,128.368 104.856,128.976 103.944,128.976 C103.048,128.976 102.632,128.368 102.632,127.36 L102.632,121.44 C102.632,120.432 103.048,119.824 103.944,119.824 C104.856,119.824 105.256,120.432 105.256,121.44 L105.256,122.512 L106.44,122.512 L106.44,121.504 C106.44,119.808 105.64,118.688 103.912,118.688 Z M114.934,118.8 L113.638,118.8 L112.63,122.688 L111.974,125.504 L111.206,122.688 L110.07,118.8 L108.822,118.8 L111.398,127.056 L111.142,127.792 C110.934,128.64 110.502,128.944 109.542,128.896 L109.542,130.016 C111.574,130.112 112.15,129.216 112.534,127.536 L114.934,118.8 Z M124.182,131.536 L124.182,128.896 L123.334,128.896 L123.334,118.8 L118.838,118.8 L118.406,127.264 C118.374,127.952 118.294,128.464 117.91,128.896 L117.19,128.896 L117.19,131.536 L118.39,131.536 L118.39,130 L122.966,130 L122.966,131.536 L124.182,131.536 Z M119.99,119.936 L122.07,119.936 L122.07,128.896 L119.11,128.896 C119.462,128.528 119.574,128.048 119.622,127.248 L119.99,119.936 Z M128.122,123.76 L128.122,119.936 L131.482,119.936 L131.482,118.8 L126.874,118.8 L126.874,130 L131.482,130 L131.482,128.864 L128.122,128.864 L128.122,124.88 L130.858,124.88 L130.858,123.76 L128.122,123.76 Z M135.488,123.424 L135.488,119.936 L138.976,119.936 L138.976,118.8 L134.256,118.8 L134.256,130 L136.864,130 C138.624,130 139.44,129.024 139.44,127.28 L139.44,126.048 C139.44,124.256 138.544,123.424 136.8,123.424 L135.488,123.424 Z M135.488,128.864 L135.488,124.544 L136.8,124.544 C137.712,124.544 138.192,124.88 138.192,125.968 L138.192,127.36 C138.192,128.4 137.776,128.864 136.864,128.864 L135.488,128.864 Z M146.262,124.96 L146.262,130 L147.51,130 L147.51,118.8 L146.262,118.8 L146.262,123.84 L143.51,123.84 L143.51,118.8 L142.262,118.8 L142.262,130 L143.51,130 L143.51,124.96 L146.262,124.96 Z M154.489,127.744 L154.921,130 L156.169,130 L154.025,118.8 L152.217,118.8 L150.073,130 L151.225,130 L151.657,127.744 L154.489,127.744 Z M153.049,120.208 L154.313,126.672 L151.817,126.672 L153.049,120.208 Z M162.519,125.216 L162.519,130 L163.767,130 L163.767,118.8 L161.271,118.8 C159.511,118.8 158.775,119.696 158.775,121.36 L158.775,122.272 C158.775,123.504 159.207,124.272 160.151,124.576 C159.143,124.88 158.759,125.712 158.759,126.912 L158.759,128.656 C158.759,129.152 158.727,129.616 158.535,130 L159.799,130 C159.943,129.68 160.007,129.392 160.007,128.64 L160.007,126.88 C160.007,125.616 160.599,125.216 161.639,125.216 L162.519,125.216 Z M162.519,119.936 L162.519,124.08 L161.575,124.08 C160.599,124.08 160.007,123.76 160.007,122.544 L160.007,121.472 C160.007,120.464 160.375,119.936 161.303,119.936 L162.519,119.936 Z M106.277,141.936 L106.277,152 L107.525,152 L107.525,140.8 L102.277,140.8 L102.277,152 L103.525,152 L103.525,141.936 L106.277,141.936 Z M110.409,140.8 L110.409,152 L111.657,152 L111.657,147.584 L112.761,147.584 C114.537,147.584 115.369,146.656 115.369,144.88 L115.369,143.536 C115.369,141.84 114.617,140.8 112.857,140.8 L110.409,140.8 Z M111.657,146.464 L111.657,141.936 L112.857,141.936 C113.769,141.936 114.137,142.448 114.137,143.472 L114.137,144.96 C114.137,146.032 113.689,146.464 112.761,146.464 L111.657,146.464 Z M122.042,149.744 L122.474,152 L123.722,152 L121.578,140.8 L119.77,140.8 L117.626,152 L118.778,152 L119.21,149.744 L122.042,149.744 Z M120.602,142.208 L121.866,148.672 L119.37,148.672 L120.602,142.208 Z M130.6,152 L131.88,152 L128.952,145.904 L131.784,140.8 L130.52,140.8 L127.544,146.208 L127.544,140.8 L126.296,140.8 L126.296,152 L127.544,152 L127.544,148.24 L128.2,147.136 L130.6,152 Z M137.403,152 L137.403,141.936 L139.467,141.936 L139.467,140.8 L134.091,140.8 L134.091,141.936 L136.155,141.936 L136.155,152 L137.403,152 Z M146.156,143.088 L146.156,152 L147.276,152 L147.276,140.8 L145.884,140.8 L144.092,146.064 L143.1,149.152 L143.1,140.8 L141.996,140.8 L141.996,152 L143.292,152 L144.94,146.832 L146.156,143.088 Z M154.447,152 L155.727,152 L152.799,145.904 L155.631,140.8 L154.367,140.8 L151.391,146.208 L151.391,140.8 L150.143,140.8 L150.143,152 L151.391,152 L151.391,148.24 L152.047,147.136 L154.447,152 Z M162.386,149.744 L162.818,152 L164.066,152 L161.922,140.8 L160.114,140.8 L157.97,152 L159.122,152 L159.554,149.744 L162.386,149.744 Z M160.946,142.208 L162.21,148.672 L159.714,148.672 L160.946,142.208 Z" id="Shape" fill="url(#linearGradient-1)"></path>
                <path d="M81.6565,73 L82.9365,73 L80.0085,66.904 L82.8405,61.8 L81.5765,61.8 L78.6005,67.208 L78.6005,61.8 L77.3525,61.8 L77.3525,73 L78.6005,73 L78.6005,69.24 L79.2565,68.136 L81.6565,73 Z M85.4034,70.296 C85.4034,71.992 86.2514,73.112 87.9634,73.112 C89.6914,73.112 90.5394,71.992 90.5394,70.296 L90.5394,64.504 C90.5394,62.792 89.6914,61.688 87.9634,61.688 C86.2514,61.688 85.4034,62.792 85.4034,64.504 L85.4034,70.296 Z M86.6354,64.44 C86.6354,63.432 87.0674,62.824 87.9634,62.824 C88.8754,62.824 89.2914,63.432 89.2914,64.44 L89.2914,70.36 C89.2914,71.384 88.8754,71.976 87.9634,71.976 C87.0674,71.976 86.6354,71.384 86.6354,70.36 L86.6354,64.44 Z M99.222,63.992 L99.222,73 L100.406,73 L100.406,61.8 L98.662,61.8 L96.886,70.744 L95.046,61.8 L93.302,61.8 L93.302,73 L94.39,73 L94.39,64.072 L96.246,72.984 L97.446,72.984 L99.222,63.992 Z M107.293,62.936 L107.293,73 L108.541,73 L108.541,61.8 L103.293,61.8 L103.293,73 L104.541,73 L104.541,62.936 L107.293,62.936 Z M115.952,62.936 L115.952,73 L117.2,73 L117.2,61.8 L112.64,61.8 L112.336,70.28 C112.304,71.352 112.128,71.88 111.088,71.88 L111.088,73.016 L111.296,73.016 C113.008,73 113.488,71.992 113.552,70.216 L113.808,62.936 L115.952,62.936 Z M121.382,66.76 L121.382,62.936 L124.742,62.936 L124.742,61.8 L120.134,61.8 L120.134,73 L124.742,73 L124.742,71.864 L121.382,71.864 L121.382,67.88 L124.118,67.88 L124.118,66.76 L121.382,66.76 Z M131.803,73 L133.083,73 L130.155,66.904 L132.987,61.8 L131.723,61.8 L128.747,67.208 L128.747,61.8 L127.499,61.8 L127.499,73 L128.747,73 L128.747,69.24 L129.403,68.136 L131.803,73 Z M138.062,61.688 C136.35,61.688 135.55,62.808 135.55,64.504 L135.55,70.296 C135.55,71.992 136.35,73.112 138.062,73.112 C139.79,73.112 140.59,71.992 140.59,70.296 L140.59,68.904 L139.406,68.904 L139.406,70.36 C139.406,71.368 139.006,71.976 138.094,71.976 C137.198,71.976 136.782,71.368 136.782,70.36 L136.782,64.44 C136.782,63.432 137.198,62.824 138.094,62.824 C139.006,62.824 139.406,63.432 139.406,64.44 L139.406,65.512 L140.59,65.512 L140.59,64.504 C140.59,62.808 139.79,61.688 138.062,61.688 Z M147.324,67.96 L147.324,73 L148.572,73 L148.572,61.8 L147.324,61.8 L147.324,66.84 L144.572,66.84 L144.572,61.8 L143.324,61.8 L143.324,73 L144.572,73 L144.572,67.96 L147.324,67.96 Z M151.36,70.296 C151.36,71.992 152.208,73.112 153.92,73.112 C155.648,73.112 156.496,71.992 156.496,70.296 L156.496,64.504 C156.496,62.792 155.648,61.688 153.92,61.688 C152.208,61.688 151.36,62.792 151.36,64.504 L151.36,70.296 Z M152.592,64.44 C152.592,63.432 153.024,62.824 153.92,62.824 C154.832,62.824 155.248,63.432 155.248,64.44 L155.248,70.36 C155.248,71.384 154.832,71.976 153.92,71.976 C153.024,71.976 152.592,71.384 152.592,70.36 L152.592,64.44 Z M160.522,66.76 L160.522,62.936 L163.882,62.936 L163.882,61.8 L159.274,61.8 L159.274,73 L163.882,73 L163.882,71.864 L160.522,71.864 L160.522,67.88 L163.258,67.88 L163.258,66.76 L160.522,66.76 Z M2.9716,83.688 C1.25962,83.688 0.45962,84.808 0.45962,86.504 L0.45962,92.296 C0.45962,93.992 1.25962,95.112 2.9716,95.112 C4.6996,95.112 5.4996,93.992 5.4996,92.296 L5.4996,90.904 L4.3156,90.904 L4.3156,92.36 C4.3156,93.368 3.9156,93.976 3.0036,93.976 C2.1076,93.976 1.69162,93.368 1.69162,92.36 L1.69162,86.44 C1.69162,85.432 2.1076,84.824 3.0036,84.824 C3.9156,84.824 4.3156,85.432 4.3156,86.44 L4.3156,87.512 L5.4996,87.512 L5.4996,86.504 C5.4996,84.808 4.6996,83.688 2.9716,83.688 Z M8.1377,92.296 C8.1377,93.992 8.9857,95.112 10.6977,95.112 C12.4257,95.112 13.2737,93.992 13.2737,92.296 L13.2737,86.504 C13.2737,84.792 12.4257,83.688 10.6977,83.688 C8.9857,83.688 8.1377,84.792 8.1377,86.504 L8.1377,92.296 Z M9.3697,86.44 C9.3697,85.432 9.8017,84.824 10.6977,84.824 C11.6097,84.824 12.0257,85.432 12.0257,86.44 L12.0257,92.36 C12.0257,93.384 11.6097,93.976 10.6977,93.976 C9.8017,93.976 9.3697,93.384 9.3697,92.36 L9.3697,86.44 Z M20.0525,84.936 L20.0525,95 L21.3005,95 L21.3005,83.8 L16.0525,83.8 L16.0525,95 L17.3005,95 L17.3005,84.936 L20.0525,84.936 Z M24.1837,83.8 L24.1837,95 L25.4317,95 L25.4317,90.584 L26.5357,90.584 C28.3117,90.584 29.1437,89.656 29.1437,87.88 L29.1437,86.536 C29.1437,84.84 28.3917,83.8 26.6317,83.8 L24.1837,83.8 Z M25.4317,89.464 L25.4317,84.936 L26.6317,84.936 C27.5437,84.936 27.9117,85.448 27.9117,86.472 L27.9117,87.96 C27.9117,89.032 27.4637,89.464 26.5357,89.464 L25.4317,89.464 Z M31.6252,92.296 C31.6252,93.992 32.4732,95.112 34.1852,95.112 C35.9132,95.112 36.7612,93.992 36.7612,92.296 L36.7612,86.504 C36.7612,84.792 35.9132,83.688 34.1852,83.688 C32.4732,83.688 31.6252,84.792 31.6252,86.504 L31.6252,92.296 Z M32.8572,86.44 C32.8572,85.432 33.2892,84.824 34.1852,84.824 C35.0972,84.824 35.5132,85.432 35.5132,86.44 L35.5132,92.36 C35.5132,93.384 35.0972,93.976 34.1852,93.976 C33.2892,93.976 32.8572,93.384 32.8572,92.36 L32.8572,86.44 Z M39.54,83.8 L39.54,95 L42.116,95 C43.86,95 44.676,94.056 44.676,92.376 L44.676,91.432 C44.676,90.2 44.26,89.336 43.172,89.032 C44.148,88.728 44.484,87.992 44.484,86.808 L44.484,86.28 C44.484,84.632 43.796,83.8 42.052,83.8 L39.54,83.8 Z M40.788,88.552 L40.788,84.936 L42.02,84.936 C42.916,84.936 43.252,85.416 43.252,86.408 L43.252,87.064 C43.252,88.232 42.74,88.552 41.748,88.552 L40.788,88.552 Z M40.788,93.864 L40.788,89.688 L41.876,89.688 C42.948,89.688 43.444,90.104 43.444,91.352 L43.444,92.344 C43.444,93.384 43.028,93.864 42.116,93.864 L40.788,93.864 Z M47.3096,92.296 C47.3096,93.992 48.1576,95.112 49.8696,95.112 C51.5976,95.112 52.4456,93.992 52.4456,92.296 L52.4456,86.504 C52.4456,84.792 51.5976,83.688 49.8696,83.688 C48.1576,83.688 47.3096,84.792 47.3096,86.504 L47.3096,92.296 Z M48.5416,86.44 C48.5416,85.432 48.9736,84.824 49.8696,84.824 C50.7816,84.824 51.1976,85.432 51.1976,86.44 L51.1976,92.36 C51.1976,93.384 50.7816,93.976 49.8696,93.976 C48.9736,93.976 48.5416,93.384 48.5416,92.36 L48.5416,86.44 Z M62.8404,95 L64.1204,95 L61.5764,88.52 L64.0564,83.8 L62.8084,83.8 L60.1044,88.952 L60.1044,83.8 L58.8724,83.8 L58.8724,88.952 L56.1844,83.8 L54.9364,83.8 L57.4324,88.552 L54.8724,95 L56.1524,95 L58.2964,89.704 L58.8724,90.776 L58.8724,95 L60.1044,95 L60.1044,90.776 L60.6964,89.72 L62.8404,95 Z M73.3729,96.536 L73.3729,93.896 L72.5249,93.896 L72.5249,83.8 L68.0289,83.8 L67.5969,92.264 C67.5649,92.952 67.4849,93.464 67.1009,93.896 L66.3809,93.896 L66.3809,96.536 L67.5809,96.536 L67.5809,95 L72.1569,95 L72.1569,96.536 L73.3729,96.536 Z M69.1809,84.936 L71.2609,84.936 L71.2609,93.896 L68.3009,93.896 C68.6529,93.528 68.7649,93.048 68.8129,92.248 L69.1809,84.936 Z M77.313,88.76 L77.313,84.936 L80.673,84.936 L80.673,83.8 L76.065,83.8 L76.065,95 L80.673,95 L80.673,93.864 L77.313,93.864 L77.313,89.88 L80.049,89.88 L80.049,88.76 L77.313,88.76 Z M87.4306,89.96 L87.4306,95 L88.6786,95 L88.6786,83.8 L87.4306,83.8 L87.4306,88.84 L84.6786,88.84 L84.6786,83.8 L83.4306,83.8 L83.4306,95 L84.6786,95 L84.6786,89.96 L87.4306,89.96 Z M95.722,86.088 L95.722,95 L96.842,95 L96.842,83.8 L95.45,83.8 L93.658,89.064 L92.666,92.152 L92.666,83.8 L91.5619,83.8 L91.5619,95 L92.858,95 L94.506,89.832 L95.722,86.088 Z M100.957,88.76 L100.957,84.936 L104.317,84.936 L104.317,83.8 L99.709,83.8 L99.709,95 L104.317,95 L104.317,93.864 L100.957,93.864 L100.957,89.88 L103.693,89.88 L103.693,88.76 L100.957,88.76 Z M112.407,88.424 L112.407,84.936 L115.895,84.936 L115.895,83.8 L111.175,83.8 L111.175,95 L113.783,95 C115.543,95 116.359,94.024 116.359,92.28 L116.359,91.048 C116.359,89.256 115.463,88.424 113.719,88.424 L112.407,88.424 Z M112.407,93.864 L112.407,89.544 L113.719,89.544 C114.631,89.544 115.111,89.88 115.111,90.968 L115.111,92.36 C115.111,93.4 114.695,93.864 113.783,93.864 L112.407,93.864 Z M123.341,86.088 L123.341,95 L124.461,95 L124.461,83.8 L123.069,83.8 L121.277,89.064 L120.285,92.152 L120.285,83.8 L119.181,83.8 L119.181,95 L120.477,95 L122.125,89.832 L123.341,86.088 Z M129.776,83.688 C128.064,83.688 127.28,84.776 127.28,86.488 L127.28,87.192 L128.432,87.192 L128.432,86.44 C128.432,85.432 128.848,84.824 129.744,84.824 C130.656,84.824 131.056,85.4 131.056,86.552 L131.056,87.064 C131.056,88.04 130.512,88.6 129.68,88.6 L129.088,88.6 L129.088,89.72 L129.616,89.72 C130.56,89.72 131.056,90.296 131.056,91.384 L131.056,92.264 C131.056,93.384 130.656,93.976 129.744,93.976 C128.848,93.976 128.432,93.368 128.432,92.36 L128.432,91.208 L127.264,91.208 L127.264,92.296 C127.264,93.992 128.064,95.112 129.776,95.112 C131.504,95.112 132.304,93.992 132.304,92.296 L132.304,91.416 C132.304,90.296 131.872,89.432 130.928,89.112 C131.84,88.776 132.304,87.944 132.304,86.792 L132.304,86.504 C132.304,84.808 131.504,83.688 129.776,83.688 Z M139.115,89.96 L139.115,95 L140.363,95 L140.363,83.8 L139.115,83.8 L139.115,88.84 L136.363,88.84 L136.363,83.8 L135.115,83.8 L135.115,95 L136.363,95 L136.363,89.96 L139.115,89.96 Z M144.494,88.76 L144.494,84.936 L147.854,84.936 L147.854,83.8 L143.246,83.8 L143.246,95 L147.854,95 L147.854,93.864 L144.494,93.864 L144.494,89.88 L147.23,89.88 L147.23,88.76 L144.494,88.76 Z M153.028,83.688 C151.316,83.688 150.516,84.808 150.516,86.504 L150.516,92.296 C150.516,93.992 151.316,95.112 153.028,95.112 C154.756,95.112 155.556,93.992 155.556,92.296 L155.556,90.904 L154.372,90.904 L154.372,92.36 C154.372,93.368 153.972,93.976 153.06,93.976 C152.164,93.976 151.748,93.368 151.748,92.36 L151.748,86.44 C151.748,85.432 152.164,84.824 153.06,84.824 C153.972,84.824 154.372,85.432 154.372,86.44 L154.372,87.512 L155.556,87.512 L155.556,86.504 C155.556,84.808 154.756,83.688 153.028,83.688 Z M162.386,92.744 L162.818,95 L164.066,95 L161.922,83.8 L160.114,83.8 L157.97,95 L159.122,95 L159.554,92.744 L162.386,92.744 Z M160.946,85.208 L162.21,91.672 L159.714,91.672 L160.946,85.208 Z" id="Shape" fill="url(#linearGradient-2)"></path>
                <path d="M394.8,65.8 L404.68,65.8 L404.68,60.6 L389.08,60.6 L389.08,97 L404.68,97 L404.68,91.8 L394.8,91.8 L394.8,81.14 L402.652,81.14 L402.652,75.94 L394.8,75.94 L394.8,65.8 Z M416.857,60.6 L408.225,60.6 L408.225,97 L417.221,97 C422.941,97 425.905,93.984 425.905,88.368 L425.905,85.404 C425.905,81.556 424.709,78.8 421.641,77.604 C424.189,76.408 425.333,74.016 425.333,70.272 L425.333,68.972 C425.333,63.356 422.785,60.6 416.857,60.6 Z M416.493,80.62 C419.093,80.62 420.185,81.66 420.185,85.04 L420.185,88.212 C420.185,90.916 419.145,91.8 417.221,91.8 L413.945,91.8 L413.945,80.62 L416.493,80.62 Z M416.701,65.8 C418.729,65.8 419.613,66.944 419.613,69.544 L419.613,71.572 C419.613,74.484 418.313,75.42 416.181,75.42 L413.945,75.42 L413.945,65.8 L416.701,65.8 Z M435.122,97 L435.122,65.8 L444.482,65.8 L444.482,60.6 L429.402,60.6 L429.402,97 L435.122,97 Z M454.062,65.8 L463.942,65.8 L463.942,60.6 L448.342,60.6 L448.342,97 L463.942,97 L463.942,91.8 L454.062,91.8 L454.062,81.14 L461.914,81.14 L461.914,75.94 L454.062,75.94 L454.062,65.8 Z M473.206,81.4 L479.706,81.4 L479.706,97 L485.53,97 L485.53,60.6 L479.706,60.6 L479.706,76.2 L473.206,76.2 L473.206,60.6 L467.486,60.6 L467.486,97 L473.206,97 L473.206,81.4 Z M500.338,80.308 L502.678,71.364 L502.678,97 L507.826,97 L507.826,60.6 L501.534,60.6 L496.854,75.628 L494.774,83.636 L494.774,60.6 L489.678,60.6 L489.678,97 L495.554,97 L500.338,80.308 Z M517.745,97 L511.869,97 L511.869,60.6 L516.965,60.6 L516.965,83.636 L519.045,75.628 L523.725,60.6 L530.017,60.6 L530.017,97 L524.869,97 L524.869,71.364 L522.529,80.308 L517.745,97 Z M523.621,52.488 C523.465,54.412 522.581,54.88 521.021,54.88 C519.513,54.88 518.733,54.412 518.577,52.488 L515.041,52.488 C515.145,56.024 517.017,58.26 521.021,58.26 C525.077,58.26 527.105,56.024 527.105,52.488 L523.621,52.488 Z M397.712,112.6 L389.08,112.6 L389.08,149 L398.076,149 C403.796,149 406.76,145.984 406.76,140.368 L406.76,137.404 C406.76,133.556 405.564,130.8 402.496,129.604 C405.044,128.408 406.188,126.016 406.188,122.272 L406.188,120.972 C406.188,115.356 403.64,112.6 397.712,112.6 Z M397.348,132.62 C399.948,132.62 401.04,133.66 401.04,137.04 L401.04,140.212 C401.04,142.916 400,143.8 398.076,143.8 L394.8,143.8 L394.8,132.62 L397.348,132.62 Z M397.556,117.8 C399.584,117.8 400.468,118.944 400.468,121.544 L400.468,123.572 C400.468,126.484 399.168,127.42 397.036,127.42 L394.8,127.42 L394.8,117.8 L397.556,117.8 Z M415.457,120.972 C415.457,118.372 416.601,117.384 418.421,117.384 C420.241,117.384 421.385,118.372 421.385,120.972 L421.385,140.628 C421.385,143.228 420.241,144.216 418.421,144.216 C416.601,144.216 415.457,143.228 415.457,140.628 L415.457,120.972 Z M409.737,140.264 C409.737,146.088 412.805,149.416 418.421,149.416 C424.037,149.416 427.105,146.088 427.105,140.264 L427.105,121.336 C427.105,115.512 424.037,112.184 418.421,112.184 C412.805,112.184 409.737,115.512 409.737,121.336 L409.737,140.264 Z M439.246,112.6 L430.822,112.6 L430.822,149 L436.542,149 L436.542,135.324 L439.246,135.324 C444.966,135.324 447.774,132.152 447.774,126.328 L447.774,121.596 C447.774,115.772 444.966,112.6 439.246,112.6 Z M439.246,117.8 C441.066,117.8 442.054,118.632 442.054,121.232 L442.054,126.692 C442.054,129.292 441.066,130.124 439.246,130.124 L436.542,130.124 L436.542,117.8 L439.246,117.8 Z M455.676,120.972 C455.676,118.372 456.82,117.384 458.64,117.384 C460.46,117.384 461.604,118.372 461.604,120.972 L461.604,140.628 C461.604,143.228 460.46,144.216 458.64,144.216 C456.82,144.216 455.676,143.228 455.676,140.628 L455.676,120.972 Z M449.956,140.264 C449.956,146.088 453.024,149.416 458.64,149.416 C464.256,149.416 467.324,146.088 467.324,140.264 L467.324,121.336 C467.324,115.512 464.256,112.184 458.64,112.184 C453.024,112.184 449.956,115.512 449.956,121.336 L449.956,140.264 Z M480.141,149 C485.861,149 488.773,145.828 488.773,140.004 L488.773,136.104 C488.773,130.28 485.861,127.108 480.141,127.108 L476.813,127.108 L476.813,117.8 L487.109,117.8 L487.109,112.6 L471.093,112.6 L471.093,149 L480.141,149 Z M476.813,143.8 L476.813,132.308 L480.141,132.308 C481.961,132.308 483.053,133.14 483.053,135.74 L483.053,140.368 C483.053,142.968 481.961,143.8 480.141,143.8 L476.813,143.8 Z M498.343,117.8 L508.223,117.8 L508.223,112.6 L492.623,112.6 L492.623,149 L508.223,149 L508.223,143.8 L498.343,143.8 L498.343,133.14 L506.195,133.14 L506.195,127.94 L498.343,127.94 L498.343,117.8 Z M517.644,149 L511.768,149 L511.768,112.6 L516.864,112.6 L516.864,135.636 L518.944,127.628 L523.624,112.6 L529.916,112.6 L529.916,149 L524.768,149 L524.768,123.364 L522.428,132.308 L517.644,149 Z M523.52,104.488 C523.364,106.412 522.48,106.88 520.92,106.88 C519.412,106.88 518.632,106.412 518.476,104.488 L514.94,104.488 C515.044,108.024 516.916,110.26 520.92,110.26 C524.975,110.26 527.004,108.024 527.004,104.488 L523.52,104.488 Z" id="Shape" fill="url(#linearGradient-3)"></path>
                <path d="M395.924,45.382 L390.464,45.382 L389.288,48 L388.21,48 L392.69,38.2 L393.712,38.2 L398.192,48 L397.1,48 L395.924,45.382 Z M395.546,44.542 L393.194,39.278 L390.842,44.542 L395.546,44.542 Z M407.741,47.132 L407.741,49.778 L406.803,49.778 L406.803,48 L400.209,48 L400.209,49.778 L399.271,49.778 L399.271,47.132 L399.691,47.132 C400.186,47.104 400.522,46.74 400.699,46.04 C400.877,45.34 400.998,44.36 401.063,43.1 L401.161,40.636 L406.593,40.636 L406.593,47.132 L407.741,47.132 Z M401.973,43.156 C401.927,44.2013 401.838,45.0647 401.707,45.746 C401.577,46.418 401.343,46.88 401.007,47.132 L405.599,47.132 L405.599,41.518 L402.057,41.518 L401.973,43.156 Z M415.068,44.192 C416.067,44.4253 416.566,45.0273 416.566,45.998 C416.566,46.642 416.328,47.1367 415.852,47.482 C415.376,47.8273 414.667,48 413.724,48 L410.378,48 L410.378,40.636 L413.626,40.636 C414.466,40.636 415.124,40.7993 415.6,41.126 C416.076,41.4527 416.314,41.9193 416.314,42.526 C416.314,42.9273 416.202,43.2727 415.978,43.562 C415.764,43.842 415.46,44.052 415.068,44.192 Z M411.344,43.912 L413.556,43.912 C414.126,43.912 414.56,43.8047 414.858,43.59 C415.166,43.3753 415.32,43.0627 415.32,42.652 C415.32,42.2413 415.166,41.9333 414.858,41.728 C414.56,41.5227 414.126,41.42 413.556,41.42 L411.344,41.42 L411.344,43.912 Z M413.682,47.216 C414.317,47.216 414.793,47.1133 415.11,46.908 C415.428,46.7027 415.586,46.3807 415.586,45.942 C415.586,45.5033 415.442,45.1813 415.152,44.976 C414.863,44.7613 414.406,44.654 413.78,44.654 L411.344,44.654 L411.344,47.216 L413.682,47.216 Z M422.634,48.07 C421.925,48.07 421.285,47.9113 420.716,47.594 C420.147,47.2673 419.699,46.8193 419.372,46.25 C419.045,45.6807 418.882,45.0367 418.882,44.318 C418.882,43.5993 419.045,42.9553 419.372,42.386 C419.699,41.8167 420.147,41.3733 420.716,41.056 C421.285,40.7387 421.925,40.58 422.634,40.58 C423.343,40.58 423.983,40.7387 424.552,41.056 C425.121,41.3733 425.565,41.8167 425.882,42.386 C426.209,42.9553 426.372,43.5993 426.372,44.318 C426.372,45.0367 426.209,45.6807 425.882,46.25 C425.565,46.8193 425.121,47.2673 424.552,47.594 C423.983,47.9113 423.343,48.07 422.634,48.07 Z M422.634,47.188 C423.157,47.188 423.623,47.0713 424.034,46.838 C424.454,46.5953 424.781,46.2547 425.014,45.816 C425.247,45.3773 425.364,44.878 425.364,44.318 C425.364,43.758 425.247,43.2587 425.014,42.82 C424.781,42.3813 424.454,42.0453 424.034,41.812 C423.623,41.5693 423.157,41.448 422.634,41.448 C422.111,41.448 421.64,41.5693 421.22,41.812 C420.809,42.0453 420.483,42.3813 420.24,42.82 C420.007,43.2587 419.89,43.758 419.89,44.318 C419.89,44.878 420.007,45.3773 420.24,45.816 C420.483,46.2547 420.809,46.5953 421.22,46.838 C421.64,47.0713 422.111,47.188 422.634,47.188 Z M431.87,44.724 L430.19,44.724 L430.19,48 L429.196,48 L429.196,40.636 L430.19,40.636 L430.19,43.87 L431.884,43.87 L434.474,40.636 L435.552,40.636 L432.654,44.206 L435.762,48 L434.586,48 L431.87,44.724 Z M440.428,40.58 C441.39,40.58 442.127,40.8227 442.64,41.308 C443.154,41.784 443.41,42.4933 443.41,43.436 L443.41,48 L442.458,48 L442.458,46.852 C442.234,47.2347 441.903,47.5333 441.464,47.748 C441.035,47.9627 440.522,48.07 439.924,48.07 C439.103,48.07 438.45,47.874 437.964,47.482 C437.479,47.09 437.236,46.572 437.236,45.928 C437.236,45.3027 437.46,44.7987 437.908,44.416 C438.366,44.0333 439.089,43.842 440.078,43.842 L442.416,43.842 L442.416,43.394 C442.416,42.7593 442.239,42.2787 441.884,41.952 C441.53,41.616 441.012,41.448 440.33,41.448 C439.864,41.448 439.416,41.5273 438.986,41.686 C438.557,41.8353 438.188,42.0453 437.88,42.316 L437.432,41.574 C437.806,41.2567 438.254,41.014 438.776,40.846 C439.299,40.6687 439.85,40.58 440.428,40.58 Z M440.078,47.286 C440.638,47.286 441.119,47.16 441.52,46.908 C441.922,46.6467 442.22,46.2733 442.416,45.788 L442.416,44.584 L440.106,44.584 C438.846,44.584 438.216,45.0227 438.216,45.9 C438.216,46.3293 438.38,46.67 438.706,46.922 C439.033,47.1647 439.49,47.286 440.078,47.286 Z M451.937,41.518 L449.151,41.518 L449.151,48 L448.157,48 L448.157,41.518 L445.371,41.518 L445.371,40.636 L451.937,40.636 L451.937,41.518 Z" id="Shape" fill="#AB7968"></path>
                <path d="M270.792,125.417 L230.833,102.958 L230.833,186.083 L243.667,193.958 L243.958,128.042 L270.792,145.833 L270.792,220.208 L260.583,213.792 L230.833,195.125 L214.5,184.917 L212.167,183.458 L204,178.208 L204,27.7083 L230.833,16.625 L262.625,3.5 L270.792,0 L270.792,98.5833 L243.958,82.8333 L243.958,19.5417 L230.833,25.0833 L230.833,93.9167 L270.792,116.375 L270.792,125.417 Z M344.876,25.6667 L351.001,28 L350.126,179.958 L329.418,192.792 L298.793,211.75 L284.501,220.5 L283.918,0 L290.918,2.91667 L344.876,25.375 L344.876,25.6667 Z M324.46,97.4167 L324.168,25.0833 L311.043,19.5417 L311.043,106.167 L324.46,97.4167 Z M324.46,186.958 L324.168,106.458 L310.751,115.208 L310.751,195.417 L324.46,186.958 Z" id="Shape" fill="url(#linearGradient-4)"></path>
            </g>
            <g id="preloader-2-uk" transform="translate(204.000000, 0.000000)">
                <path d="M190.798,69.8 C190.798,67.5909 192.589,65.8 194.798,65.8 L200.678,65.8 L200.678,60.6 L195.078,60.6 C189.555,60.6 185.078,65.0772 185.078,70.6 L185.078,87 C185.078,92.5229 189.555,97 195.078,97 L200.678,97 L200.678,91.8 L194.798,91.8 C192.589,91.8 190.798,90.0091 190.798,87.8 L190.798,81.14 L198.65,81.14 L198.65,75.94 L190.798,75.94 L190.798,69.8 Z" id="Path" fill="url(#linearGradient-5)"></path>
                <path d="M212.855,60.6 L204.223,60.6 L204.223,97 L213.219,97 C218.939,97 221.903,93.984 221.903,88.368 L221.903,85.404 C221.903,81.556 220.707,78.8 217.639,77.604 C220.187,76.408 221.331,74.016 221.331,70.272 L221.331,68.972 C221.331,63.356 218.783,60.6 212.855,60.6 Z M212.491,80.62 C215.091,80.62 216.183,81.66 216.183,85.04 L216.183,88.212 C216.183,90.916 215.143,91.8 213.219,91.8 L209.943,91.8 L209.943,80.62 L212.491,80.62 Z M212.699,65.8 C214.727,65.8 215.611,66.944 215.611,69.544 L215.611,71.572 C215.611,74.484 214.311,75.42 212.179,75.42 L209.943,75.42 L209.943,65.8 L212.699,65.8 Z" id="Shape" fill="url(#linearGradient-6)" fill-rule="nonzero"></path>
                <polygon id="Path" fill="url(#linearGradient-7)" points="231.12 97 231.12 65.8 240.48 65.8 240.48 60.6 225.4 60.6 225.4 97"></polygon>
                <polygon id="Path" fill="url(#linearGradient-8)" points="250.06 65.8 259.94 65.8 259.94 60.6 244.34 60.6 244.34 97 259.94 97 259.94 91.8 250.06 91.8 250.06 81.14 257.912 81.14 257.912 75.94 250.06 75.94"></polygon>
                <polygon id="Path" fill="url(#linearGradient-9)" points="269.204 81.4 275.704 81.4 275.704 97 281.528 97 281.528 60.6 275.704 60.6 275.704 76.2 269.204 76.2 269.204 60.6 263.484 60.6 263.484 97 269.204 97"></polygon>
                <polygon id="Path" fill="url(#linearGradient-10)" points="285.676 97 291.396 97 291.396 60.6 285.676 60.6"></polygon>
                <path d="M301.454,97 L295.578,97 L295.578,60.6 L300.674,60.6 L300.674,83.636 L302.754,75.628 L307.434,60.6 L313.726,60.6 L313.726,97 L308.578,97 L308.578,71.364 L306.238,80.308 L301.454,97 Z M307.33,52.488 C307.174,54.412 306.29,54.88 304.73,54.88 C303.222,54.88 302.442,54.412 302.286,52.488 L298.75,52.488 C298.854,56.024 300.726,58.26 304.73,58.26 C308.786,58.26 310.814,56.024 310.814,52.488 L307.33,52.488 Z" id="Shape" fill="url(#linearGradient-11)" fill-rule="nonzero"></path>
                <path d="M193.71,112.6 L185.078,112.6 L185.078,149 L194.074,149 C199.794,149 202.758,145.984 202.758,140.368 L202.758,137.404 C202.758,133.556 201.562,130.8 198.494,129.604 C201.042,128.408 202.186,126.016 202.186,122.272 L202.186,120.972 C202.186,115.356 199.638,112.6 193.71,112.6 Z M193.346,132.62 C195.946,132.62 197.038,133.66 197.038,137.04 L197.038,140.212 C197.038,142.916 195.998,143.8 194.074,143.8 L190.798,143.8 L190.798,132.62 L193.346,132.62 Z M193.554,117.8 C195.582,117.8 196.466,118.944 196.466,121.544 L196.466,123.572 C196.466,126.484 195.166,127.42 193.034,127.42 L190.798,127.42 L190.798,117.8 L193.554,117.8 Z" id="Shape" fill="url(#linearGradient-12)" fill-rule="nonzero"></path>
                <path d="M211.455,120.972 C211.455,118.372 212.599,117.384 214.419,117.384 C216.239,117.384 217.383,118.372 217.383,120.972 L217.383,140.628 C217.383,143.228 216.239,144.216 214.419,144.216 C212.599,144.216 211.455,143.228 211.455,140.628 L211.455,120.972 Z M205.735,140.264 C205.735,146.088 208.803,149.416 214.419,149.416 C220.035,149.416 223.103,146.088 223.103,140.264 L223.103,121.336 C223.103,115.512 220.035,112.184 214.419,112.184 C208.803,112.184 205.735,115.512 205.735,121.336 L205.735,140.264 Z" id="Shape" fill="url(#linearGradient-13)" fill-rule="nonzero"></path>
                <path d="M235.244,112.6 L226.82,112.6 L226.82,149 L232.54,149 L232.54,135.324 L235.244,135.324 C240.964,135.324 243.772,132.152 243.772,126.328 L243.772,121.596 C243.772,115.772 240.964,112.6 235.244,112.6 Z M235.244,117.8 C237.064,117.8 238.052,118.632 238.052,121.232 L238.052,126.692 C238.052,129.292 237.064,130.124 235.244,130.124 L232.54,130.124 L232.54,117.8 L235.244,117.8 Z" id="Shape" fill="url(#linearGradient-14)" fill-rule="nonzero"></path>
                <path d="M251.674,120.972 C251.674,118.372 252.818,117.384 254.638,117.384 C256.458,117.384 257.602,118.372 257.602,120.972 L257.602,140.628 C257.602,143.228 256.458,144.216 254.638,144.216 C252.818,144.216 251.674,143.228 251.674,140.628 L251.674,120.972 Z M245.954,140.264 C245.954,146.088 249.022,149.416 254.638,149.416 C260.254,149.416 263.322,146.088 263.322,140.264 L263.322,121.336 C263.322,115.512 260.254,112.184 254.638,112.184 C249.022,112.184 245.954,115.512 245.954,121.336 L245.954,140.264 Z" id="Shape" fill="url(#linearGradient-15)" fill-rule="nonzero"></path>
                <path d="M276.139,149 C281.859,149 284.771,145.828 284.771,140.004 L284.771,136.104 C284.771,130.28 281.859,127.108 276.139,127.108 L272.811,127.108 L272.811,117.8 L283.107,117.8 L283.107,112.6 L267.091,112.6 L267.091,149 L276.139,149 Z M272.811,143.8 L272.811,132.308 L276.139,132.308 C277.959,132.308 279.051,133.14 279.051,135.74 L279.051,140.368 C279.051,142.968 277.959,143.8 276.139,143.8 L272.811,143.8 Z" id="Shape" fill="url(#linearGradient-16)" fill-rule="nonzero"></path>
                <polygon id="Path" fill="url(#linearGradient-17)" points="294.341 117.8 304.221 117.8 304.221 112.6 288.621 112.6 288.621 149 304.221 149 304.221 143.8 294.341 143.8 294.341 133.14 302.193 133.14 302.193 127.94 294.341 127.94"></polygon>
                <path d="M313.642,149 L307.766,149 L307.766,112.6 L312.862,112.6 L312.862,135.636 L314.942,127.628 L319.622,112.6 L325.914,112.6 L325.914,149 L320.766,149 L320.766,123.364 L318.426,132.308 L313.642,149 Z M319.518,104.488 C319.362,106.412 318.478,106.88 316.918,106.88 C315.41,106.88 314.63,106.412 314.474,104.488 L310.938,104.488 C311.042,108.024 312.914,110.26 316.918,110.26 C320.974,110.26 323.002,108.024 323.002,104.488 L319.518,104.488 Z" id="Shape" fill="url(#linearGradient-18)" fill-rule="nonzero"></path>
                <path d="M191.924,45.382 L186.464,45.382 L185.288,48 L184.21,48 L188.69,38.2 L189.712,38.2 L194.192,48 L193.1,48 L191.924,45.382 Z M191.546,44.542 L189.194,39.278 L186.842,44.542 L191.546,44.542 Z M203.741,47.132 L203.741,49.778 L202.803,49.778 L202.803,48 L196.209,48 L196.209,49.778 L195.271,49.778 L195.271,47.132 L195.691,47.132 C196.186,47.104 196.522,46.74 196.699,46.04 C196.877,45.34 196.998,44.36 197.063,43.1 L197.161,40.636 L202.593,40.636 L202.593,47.132 L203.741,47.132 Z M197.973,43.156 C197.927,44.2013 197.838,45.0647 197.707,45.746 C197.577,46.418 197.343,46.88 197.007,47.132 L201.599,47.132 L201.599,41.518 L198.057,41.518 L197.973,43.156 Z M211.068,44.192 C212.067,44.4253 212.566,45.0273 212.566,45.998 C212.566,46.642 212.328,47.1367 211.852,47.482 C211.376,47.8273 210.667,48 209.724,48 L206.378,48 L206.378,40.636 L209.626,40.636 C210.466,40.636 211.124,40.7993 211.6,41.126 C212.076,41.4527 212.314,41.9193 212.314,42.526 C212.314,42.9273 212.202,43.2727 211.978,43.562 C211.764,43.842 211.46,44.052 211.068,44.192 Z M207.344,43.912 L209.556,43.912 C210.126,43.912 210.56,43.8047 210.858,43.59 C211.166,43.3753 211.32,43.0627 211.32,42.652 C211.32,42.2413 211.166,41.9333 210.858,41.728 C210.56,41.5227 210.126,41.42 209.556,41.42 L207.344,41.42 L207.344,43.912 Z M209.682,47.216 C210.317,47.216 210.793,47.1133 211.11,46.908 C211.428,46.7027 211.586,46.3807 211.586,45.942 C211.586,45.5033 211.442,45.1813 211.152,44.976 C210.863,44.7613 210.406,44.654 209.78,44.654 L207.344,44.654 L207.344,47.216 L209.682,47.216 Z M218.634,48.07 C217.925,48.07 217.285,47.9113 216.716,47.594 C216.147,47.2673 215.699,46.8193 215.372,46.25 C215.045,45.6807 214.882,45.0367 214.882,44.318 C214.882,43.5993 215.045,42.9553 215.372,42.386 C215.699,41.8167 216.147,41.3733 216.716,41.056 C217.285,40.7387 217.925,40.58 218.634,40.58 C219.343,40.58 219.983,40.7387 220.552,41.056 C221.121,41.3733 221.565,41.8167 221.882,42.386 C222.209,42.9553 222.372,43.5993 222.372,44.318 C222.372,45.0367 222.209,45.6807 221.882,46.25 C221.565,46.8193 221.121,47.2673 220.552,47.594 C219.983,47.9113 219.343,48.07 218.634,48.07 Z M218.634,47.188 C219.157,47.188 219.623,47.0713 220.034,46.838 C220.454,46.5953 220.781,46.2547 221.014,45.816 C221.247,45.3773 221.364,44.878 221.364,44.318 C221.364,43.758 221.247,43.2587 221.014,42.82 C220.781,42.3813 220.454,42.0453 220.034,41.812 C219.623,41.5693 219.157,41.448 218.634,41.448 C218.111,41.448 217.64,41.5693 217.22,41.812 C216.809,42.0453 216.483,42.3813 216.24,42.82 C216.007,43.2587 215.89,43.758 215.89,44.318 C215.89,44.878 216.007,45.3773 216.24,45.816 C216.483,46.2547 216.809,46.5953 217.22,46.838 C217.64,47.0713 218.111,47.188 218.634,47.188 Z M227.87,44.724 L226.19,44.724 L226.19,48 L225.196,48 L225.196,40.636 L226.19,40.636 L226.19,43.87 L227.884,43.87 L230.474,40.636 L231.552,40.636 L228.654,44.206 L231.762,48 L230.586,48 L227.87,44.724 Z M236.428,40.58 C237.39,40.58 238.127,40.8227 238.64,41.308 C239.154,41.784 239.41,42.4933 239.41,43.436 L239.41,48 L238.458,48 L238.458,46.852 C238.234,47.2347 237.903,47.5333 237.464,47.748 C237.035,47.9627 236.522,48.07 235.924,48.07 C235.103,48.07 234.45,47.874 233.964,47.482 C233.479,47.09 233.236,46.572 233.236,45.928 C233.236,45.3027 233.46,44.7987 233.908,44.416 C234.366,44.0333 235.089,43.842 236.078,43.842 L238.416,43.842 L238.416,43.394 C238.416,42.7593 238.239,42.2787 237.884,41.952 C237.53,41.616 237.012,41.448 236.33,41.448 C235.864,41.448 235.416,41.5273 234.986,41.686 C234.557,41.8353 234.188,42.0453 233.88,42.316 L233.432,41.574 C233.806,41.2567 234.254,41.014 234.776,40.846 C235.299,40.6687 235.85,40.58 236.428,40.58 Z M236.078,47.286 C236.638,47.286 237.119,47.16 237.52,46.908 C237.922,46.6467 238.22,46.2733 238.416,45.788 L238.416,44.584 L236.106,44.584 C234.846,44.584 234.216,45.0227 234.216,45.9 C234.216,46.3293 234.38,46.67 234.706,46.922 C235.033,47.1647 235.49,47.286 236.078,47.286 Z M247.937,41.518 L245.151,41.518 L245.151,48 L244.157,48 L244.157,41.518 L241.371,41.518 L241.371,40.636 L247.937,40.636 L247.937,41.518 Z" id="Shape" fill="#AB7968" fill-rule="nonzero"></path>
                <path d="M66.792,125.417 L26.833,102.958 L26.833,186.083 L39.667,193.958 L39.958,128.042 L66.792,145.833 L66.792,220.208 L56.583,213.792 L26.833,195.125 L10.5,184.917 L8.167,183.458 L0,178.208 L0,27.7083 L26.833,16.625 L58.625,3.5 L66.792,0 L66.792,98.5833 L39.958,82.8333 L39.958,19.5417 L26.833,25.0833 L26.833,93.9167 L66.792,116.375 L66.792,125.417 Z M140.876,25.6667 L147.001,28 L146.126,179.958 L125.418,192.792 L94.793,211.75 L80.501,220.5 L79.918,0 L86.918,2.91667 L140.876,25.375 L140.876,25.6667 Z M120.46,97.4167 L120.168,25.0833 L107.043,19.5417 L107.043,106.167 L120.46,97.4167 Z M120.46,186.958 L120.168,106.458 L106.751,115.208 L106.751,195.417 L120.46,186.958 Z" id="Shape" fill="url(#linearGradient-4)"></path>
            </g>
        </g>
    </g>
</svg>