<svg width="220" height="331" viewBox="0 0 220 331" fill="none" xmlns="http://www.w3.org/2000/svg" id="el_Kr4Hzme85"><style>@-webkit-keyframes kf_el_dAIeZ2oKsk_an__QBVFy6moq{0%{opacity: 1;}98.89%{opacity: 1;}100%{opacity: 0;}}@keyframes kf_el_dAIeZ2oKsk_an__QBVFy6moq{0%{opacity: 1;}98.89%{opacity: 1;}100%{opacity: 0;}}@-webkit-keyframes kf_el_dAIeZ2oKsk_an_4zh0lbCR-{0%{-webkit-transform: translate(0px, 1px) scale(1, 1) translate(0px, -1px);transform: translate(0px, 1px) scale(1, 1) translate(0px, -1px);}98.89%{-webkit-transform: translate(0px, 1px) scale(1, 0) translate(0px, -1px);transform: translate(0px, 1px) scale(1, 0) translate(0px, -1px);}100%{-webkit-transform: translate(0px, 1px) scale(1, 0) translate(0px, -1px);transform: translate(0px, 1px) scale(1, 0) translate(0px, -1px);}}@keyframes kf_el_dAIeZ2oKsk_an_4zh0lbCR-{0%{-webkit-transform: translate(0px, 1px) scale(1, 1) translate(0px, -1px);transform: translate(0px, 1px) scale(1, 1) translate(0px, -1px);}98.89%{-webkit-transform: translate(0px, 1px) scale(1, 0) translate(0px, -1px);transform: translate(0px, 1px) scale(1, 0) translate(0px, -1px);}100%{-webkit-transform: translate(0px, 1px) scale(1, 0) translate(0px, -1px);transform: translate(0px, 1px) scale(1, 0) translate(0px, -1px);}}#el_Kr4Hzme85 *{-webkit-animation-duration: 3s;animation-duration: 3s;-webkit-animation-iteration-count: 1;animation-iteration-count: 1;-webkit-animation-timing-function: cubic-bezier(0, 0, 1, 1);animation-timing-function: cubic-bezier(0, 0, 1, 1);}#el_z8LkCsMoFA{opacity: 0.7;}#el_6DUpabw8R2{fill: url(#paint0_linear);}#el_dAIeZ2oKsk{fill: #1A2730;-webkit-animation-fill-mode: forwards;animation-fill-mode: forwards;opacity: 1;-webkit-animation-name: kf_el_dAIeZ2oKsk_an__QBVFy6moq;animation-name: kf_el_dAIeZ2oKsk_an__QBVFy6moq;-webkit-animation-timing-function: cubic-bezier(0, 0, 1, 1);animation-timing-function: cubic-bezier(0, 0, 1, 1);}#el_ktx_dx87Nc{fill: url(#paint1_linear);}#el_dAIeZ2oKsk_an_4zh0lbCR-{-webkit-animation-fill-mode: forwards;animation-fill-mode: forwards;-webkit-transform: translate(0px, 1px) scale(1, 1) translate(0px, -1px);transform: translate(0px, 1px) scale(1, 1) translate(0px, -1px);-webkit-animation-name: kf_el_dAIeZ2oKsk_an_4zh0lbCR-;animation-name: kf_el_dAIeZ2oKsk_an_4zh0lbCR-;-webkit-animation-timing-function: cubic-bezier(0, 0, 1, 1);animation-timing-function: cubic-bezier(0, 0, 1, 1);}</style>
<g clip-path="url(#clip0)" id="el_z8LkCsMoFA">
<path fill-rule="evenodd" clip-rule="evenodd" d="M99.9594 188.697L40.1584 155.086V279.49L59.3645 291.275L59.8011 192.625L99.9594 219.252V330.561L84.6818 320.957L40.1584 293.021L15.7141 277.744L12.2221 275.561L0 267.704V42.4679L40.1584 25.8807L87.7373 6.23805L99.9594 1V148.538L59.8011 124.967V30.2458L40.1584 38.5394V141.554L99.9594 175.165V188.697ZM210.833 39.4124L220 42.9044L218.69 270.323L187.699 289.529L141.866 317.902L120.477 330.997L119.604 1L130.08 5.36504L210.833 38.9759V39.4124ZM180.278 146.792L179.842 38.5394L160.199 30.2458V159.887L180.278 146.792ZM180.278 280.799L179.842 160.324L159.762 173.419V293.458L180.278 280.799Z" id="el_6DUpabw8R2"/>
<g id="el_dAIeZ2oKsk_an_4zh0lbCR-" data-animator-group="true" data-animator-type="2"><rect y="1" width="220" height="330" id="el_dAIeZ2oKsk"/></g>
<mask id="path-3-inside-1" fill="white">
<path fill-rule="evenodd" clip-rule="evenodd" d="M99.9594 188.697L40.1584 155.086V279.49L59.3645 291.275L59.8011 192.625L99.9594 219.252V330.561L84.6818 320.957L40.1584 293.021L15.7141 277.744L12.2221 275.561L0 267.704V42.4679L40.1584 25.8807L87.7373 6.23805L99.9594 1V148.538L59.8011 124.967V30.2458L40.1584 38.5394V141.554L99.9594 175.165V188.697ZM210.833 39.4124L220 42.9044L218.69 270.323L187.699 289.529L141.866 317.902L120.477 330.997L119.604 1L130.08 5.36504L210.833 38.9758V39.4124ZM180.278 146.792L179.842 38.5393L160.199 30.2458V159.887L180.278 146.792ZM180.278 280.799L179.842 160.324L159.762 173.419V293.458L180.278 280.799Z"/>
</mask>
<path d="M40.1584 155.086L40.7463 154.04L38.9584 153.035V155.086H40.1584ZM99.9594 188.697L99.3715 189.743L101.159 190.748V188.697H99.9594ZM40.1584 279.49H38.9584V280.161L39.5307 280.512L40.1584 279.49ZM59.3645 291.275L58.7369 292.298L60.5551 293.414L60.5645 291.281L59.3645 291.275ZM59.8011 192.625L60.4642 191.625L58.6109 190.396L58.6011 192.62L59.8011 192.625ZM99.9594 219.252H101.159V218.608L100.623 218.252L99.9594 219.252ZM99.9594 330.561L99.3208 331.577L101.159 332.732V330.561H99.9594ZM84.6818 320.957L85.3204 319.942L85.3196 319.941L84.6818 320.957ZM40.1584 293.021L40.7962 292.005L40.7944 292.004L40.1584 293.021ZM15.7141 277.744L15.0781 278.761L15.0781 278.761L15.7141 277.744ZM12.2221 275.561L11.5732 276.57L11.5796 276.575L11.5861 276.579L12.2221 275.561ZM0 267.704H-1.2V268.359L-0.64891 268.713L0 267.704ZM0 42.4679L-0.458112 41.3588L-1.2 41.6652V42.4679H0ZM40.1584 25.8807L39.7004 24.7715L39.7003 24.7716L40.1584 25.8807ZM87.7373 6.23805L88.1952 7.34724L88.2026 7.34418L88.21 7.34102L87.7373 6.23805ZM99.9594 1H101.159V-0.819847L99.4867 -0.102974L99.9594 1ZM99.9594 148.538L99.352 149.573L101.159 150.634V148.538H99.9594ZM59.8011 124.967H58.6011V125.654L59.1936 126.002L59.8011 124.967ZM59.8011 30.2458H61.0011V28.4365L59.3343 29.1403L59.8011 30.2458ZM40.1584 38.5394L39.6916 37.4339L38.9584 37.7434V38.5394H40.1584ZM40.1584 141.554H38.9584V142.256L39.5704 142.6L40.1584 141.554ZM99.9594 175.165H101.159V174.463L100.547 174.119L99.9594 175.165ZM220 42.9044L221.2 42.9113L221.205 42.0792L220.427 41.783L220 42.9044ZM210.833 39.4124H209.633V40.2393L210.406 40.5337L210.833 39.4124ZM218.69 270.323L219.323 271.343L219.887 270.993L219.89 270.33L218.69 270.323ZM187.699 289.529L188.33 290.549L188.331 290.549L187.699 289.529ZM141.866 317.902L142.492 318.925L142.497 318.922L141.866 317.902ZM120.477 330.997L119.277 331L119.283 333.135L121.104 332.02L120.477 330.997ZM119.604 1L120.066 -0.107692L118.399 -0.801988L118.404 1.00317L119.604 1ZM130.08 5.36504L129.619 6.47273L129.619 6.47291L130.08 5.36504ZM210.833 38.9758H212.033V38.1755L211.295 37.868L210.833 38.9758ZM179.842 38.5393L181.042 38.5345L181.038 37.7421L180.308 37.4338L179.842 38.5393ZM180.278 146.792L180.934 147.797L181.481 147.441L181.478 146.788L180.278 146.792ZM160.199 30.2458L160.666 29.1403L158.999 28.4365V30.2458H160.199ZM160.199 159.887H158.999V162.103L160.854 160.893L160.199 159.887ZM179.842 160.324L181.042 160.32L181.034 158.114L179.186 159.319L179.842 160.324ZM180.278 280.799L180.908 281.82L181.481 281.467L181.478 280.795L180.278 280.799ZM159.762 173.419L159.107 172.414L158.562 172.769V173.419H159.762ZM159.762 293.458H158.562V295.608L160.393 294.479L159.762 293.458ZM39.5704 156.132L99.3715 189.743L100.547 187.651L40.7463 154.04L39.5704 156.132ZM41.3584 279.49V155.086H38.9584V279.49H41.3584ZM59.9922 290.252L40.786 278.467L39.5307 280.512L58.7369 292.298L59.9922 290.252ZM58.6011 192.62L58.1646 291.27L60.5645 291.281L61.001 192.631L58.6011 192.62ZM100.623 218.252L60.4642 191.625L59.1379 193.625L99.2963 220.252L100.623 218.252ZM101.159 330.561V219.252H98.7594V330.561H101.159ZM84.0432 321.973L99.3208 331.577L100.598 329.545L85.3204 319.942L84.0432 321.973ZM39.5206 294.038L84.044 321.974L85.3196 319.941L40.7962 292.005L39.5206 294.038ZM15.0781 278.761L39.5224 294.039L40.7944 292.004L16.3501 276.726L15.0781 278.761ZM11.5861 276.579L15.0781 278.761L16.3501 276.726L12.8581 274.543L11.5861 276.579ZM-0.64891 268.713L11.5732 276.57L12.871 274.552L0.64891 266.695L-0.64891 268.713ZM-1.2 42.4679V267.704H1.2V42.4679H-1.2ZM39.7003 24.7716L-0.458112 41.3588L0.458112 43.577L40.6165 26.9898L39.7003 24.7716ZM87.2794 5.12886L39.7004 24.7715L40.6163 26.9899L88.1952 7.34724L87.2794 5.12886ZM99.4867 -0.102974L87.2646 5.13508L88.21 7.34102L100.432 2.10297L99.4867 -0.102974ZM101.159 148.538V1H98.7594V148.538H101.159ZM59.1936 126.002L99.352 149.573L100.567 147.503L60.4085 123.932L59.1936 126.002ZM58.6011 30.2458V124.967H61.0011V30.2458H58.6011ZM40.6251 39.6449L60.2678 31.3513L59.3343 29.1403L39.6916 37.4339L40.6251 39.6449ZM41.3584 141.554V38.5394H38.9584V141.554H41.3584ZM100.547 174.119L40.7463 140.508L39.5704 142.6L99.3715 176.211L100.547 174.119ZM101.159 188.697V175.165H98.7594V188.697H101.159ZM220.427 41.783L211.261 38.291L210.406 40.5337L219.573 44.0258L220.427 41.783ZM219.89 270.33L221.2 42.9113L218.8 42.8975L217.491 270.316L219.89 270.33ZM188.331 290.549L219.323 271.343L218.058 269.303L187.067 288.509L188.331 290.549ZM142.497 318.922L188.33 290.549L187.067 288.509L141.234 316.882L142.497 318.922ZM121.104 332.02L142.492 318.925L141.239 316.878L119.85 329.974L121.104 332.02ZM118.404 1.00317L119.277 331L121.677 330.994L120.804 0.996825L118.404 1.00317ZM130.542 4.25735L120.066 -0.107692L119.143 2.10769L129.619 6.47273L130.542 4.25735ZM211.295 37.868L130.541 4.25717L129.619 6.47291L210.372 40.0837L211.295 37.868ZM212.033 39.4124V38.9758H209.633V39.4124H212.033ZM178.642 38.5442L179.078 146.797L181.478 146.788L181.042 38.5345L178.642 38.5442ZM159.732 31.3513L179.375 39.6448L180.308 37.4338L160.666 29.1403L159.732 31.3513ZM161.399 159.887V30.2458H158.999V159.887H161.399ZM179.623 145.787L159.543 158.882L160.854 160.893L180.934 147.797L179.623 145.787ZM178.642 160.328L179.078 280.803L181.478 280.795L181.042 160.32L178.642 160.328ZM160.418 174.424L180.497 161.329L179.186 159.319L159.107 172.414L160.418 174.424ZM160.962 293.458V173.419H158.562V293.458H160.962ZM179.648 279.778L159.132 292.436L160.393 294.479L180.908 281.82L179.648 279.778Z" mask="url(#path-3-inside-1)" id="el_ktx_dx87Nc"/>
</g>
<defs>
<linearGradient id="paint0_linear" x1="113.066" y1="427.064" x2="112.569" y2="83.5994" gradientUnits="userSpaceOnUse">
<stop stop-color="#E9C0A0"/>
<stop offset="0.1666" stop-color="#E5BB9C"/>
<stop offset="0.3663" stop-color="#D8AC90"/>
<stop offset="0.582" stop-color="#C3947E"/>
<stop offset="0.7709" stop-color="#AB7968"/>
<stop offset="0.7953" stop-color="#BD8C76"/>
<stop offset="0.8298" stop-color="#D0A084"/>
<stop offset="0.8692" stop-color="#DDAE8E"/>
<stop offset="0.9175" stop-color="#E5B794"/>
<stop offset="1" stop-color="#E7B996"/>
</linearGradient>
<linearGradient id="paint1_linear" x1="113.066" y1="427.064" x2="112.569" y2="83.5994" gradientUnits="userSpaceOnUse">
<stop stop-color="#E9C0A0"/>
<stop offset="0.1666" stop-color="#E5BB9C"/>
<stop offset="0.3663" stop-color="#D8AC90"/>
<stop offset="0.582" stop-color="#C3947E"/>
<stop offset="0.7709" stop-color="#AB7968"/>
<stop offset="0.7953" stop-color="#BD8C76"/>
<stop offset="0.8298" stop-color="#D0A084"/>
<stop offset="0.8692" stop-color="#DDAE8E"/>
<stop offset="0.9175" stop-color="#E5B794"/>
<stop offset="1" stop-color="#E7B996"/>
</linearGradient>
<clipPath id="clip0">
<rect width="220" height="331" fill="white"/>
</clipPath>
</defs>
</svg>