<svg width="554" height="220" viewBox="0 0 554 220" fill="none" xmlns="http://www.w3.org/2000/svg" id="el_2ijZ0oNqW"><style>@-webkit-keyframes kf_el_lXwRPy7Lgj_an_KlSWFV15M{0%{opacity: 1;}76.30%{opacity: 1;}96.30%{opacity: 1;}97.04%{opacity: 0;}100%{opacity: 0;}}@keyframes kf_el_lXwRPy7Lgj_an_KlSWFV15M{0%{opacity: 1;}76.30%{opacity: 1;}96.30%{opacity: 1;}97.04%{opacity: 0;}100%{opacity: 0;}}@-webkit-keyframes kf_el_lXwRPy7Lgj_an_3qLAyNHCO{0%{-webkit-transform: translate(-4.76837158203125e-7px, 61.6879997253418px) translate(4.76837158203125e-7px, -61.6879997253418px) translate(0px, 0px);transform: translate(-4.76837158203125e-7px, 61.6879997253418px) translate(4.76837158203125e-7px, -61.6879997253418px) translate(0px, 0px);}76.30%{-webkit-transform: translate(-4.76837158203125e-7px, 61.6879997253418px) translate(4.76837158203125e-7px, -61.6879997253418px) translate(0px, 0px);transform: translate(-4.76837158203125e-7px, 61.6879997253418px) translate(4.76837158203125e-7px, -61.6879997253418px) translate(0px, 0px);}96.30%{-webkit-transform: translate(-4.76837158203125e-7px, 61.6879997253418px) translate(4.76837158203125e-7px, -61.6879997253418px) translate(170px, 0px);transform: translate(-4.76837158203125e-7px, 61.6879997253418px) translate(4.76837158203125e-7px, -61.6879997253418px) translate(170px, 0px);}100%{-webkit-transform: translate(-4.76837158203125e-7px, 61.6879997253418px) translate(4.76837158203125e-7px, -61.6879997253418px) translate(170px, 0px);transform: translate(-4.76837158203125e-7px, 61.6879997253418px) translate(4.76837158203125e-7px, -61.6879997253418px) translate(170px, 0px);}}@keyframes kf_el_lXwRPy7Lgj_an_3qLAyNHCO{0%{-webkit-transform: translate(-4.76837158203125e-7px, 61.6879997253418px) translate(4.76837158203125e-7px, -61.6879997253418px) translate(0px, 0px);transform: translate(-4.76837158203125e-7px, 61.6879997253418px) translate(4.76837158203125e-7px, -61.6879997253418px) translate(0px, 0px);}76.30%{-webkit-transform: translate(-4.76837158203125e-7px, 61.6879997253418px) translate(4.76837158203125e-7px, -61.6879997253418px) translate(0px, 0px);transform: translate(-4.76837158203125e-7px, 61.6879997253418px) translate(4.76837158203125e-7px, -61.6879997253418px) translate(0px, 0px);}96.30%{-webkit-transform: translate(-4.76837158203125e-7px, 61.6879997253418px) translate(4.76837158203125e-7px, -61.6879997253418px) translate(170px, 0px);transform: translate(-4.76837158203125e-7px, 61.6879997253418px) translate(4.76837158203125e-7px, -61.6879997253418px) translate(170px, 0px);}100%{-webkit-transform: translate(-4.76837158203125e-7px, 61.6879997253418px) translate(4.76837158203125e-7px, -61.6879997253418px) translate(170px, 0px);transform: translate(-4.76837158203125e-7px, 61.6879997253418px) translate(4.76837158203125e-7px, -61.6879997253418px) translate(170px, 0px);}}@-webkit-keyframes kf_el_zIq6A97CFL_an_f6vsGIgZh{0%{opacity: 1;}97.04%{opacity: 1;}100%{opacity: 0;}}@keyframes kf_el_zIq6A97CFL_an_f6vsGIgZh{0%{opacity: 1;}97.04%{opacity: 1;}100%{opacity: 0;}}@-webkit-keyframes kf_el_T1GExdPpH-_an_g3ytLG3Pw7{0%{opacity: 1;}65.93%{opacity: 1;}66.67%{opacity: 0;}100%{opacity: 0;}}@keyframes kf_el_T1GExdPpH-_an_g3ytLG3Pw7{0%{opacity: 1;}65.93%{opacity: 1;}66.67%{opacity: 0;}100%{opacity: 0;}}@-webkit-keyframes kf_el_T1GExdPpH-_an_8CJzq9Ie0{0%{-webkit-transform: translate(165px, 0px) scale(1, 1) translate(-165px, 0px);transform: translate(165px, 0px) scale(1, 1) translate(-165px, 0px);}65.93%{-webkit-transform: translate(165px, 0px) scale(1, 0) translate(-165px, 0px);transform: translate(165px, 0px) scale(1, 0) translate(-165px, 0px);}100%{-webkit-transform: translate(165px, 0px) scale(1, 0) translate(-165px, 0px);transform: translate(165px, 0px) scale(1, 0) translate(-165px, 0px);}}@keyframes kf_el_T1GExdPpH-_an_8CJzq9Ie0{0%{-webkit-transform: translate(165px, 0px) scale(1, 1) translate(-165px, 0px);transform: translate(165px, 0px) scale(1, 1) translate(-165px, 0px);}65.93%{-webkit-transform: translate(165px, 0px) scale(1, 0) translate(-165px, 0px);transform: translate(165px, 0px) scale(1, 0) translate(-165px, 0px);}100%{-webkit-transform: translate(165px, 0px) scale(1, 0) translate(-165px, 0px);transform: translate(165px, 0px) scale(1, 0) translate(-165px, 0px);}}#el_2ijZ0oNqW *{-webkit-animation-duration: 4.5s;animation-duration: 4.5s;-webkit-animation-iteration-count: 1;animation-iteration-count: 1;-webkit-animation-timing-function: cubic-bezier(0, 0, 1, 1);animation-timing-function: cubic-bezier(0, 0, 1, 1);}#el_lXwRPy7Lgj{fill: url(#paint0_linear);-webkit-animation-fill-mode: forwards;animation-fill-mode: forwards;opacity: 1;-webkit-animation-name: kf_el_lXwRPy7Lgj_an_KlSWFV15M;animation-name: kf_el_lXwRPy7Lgj_an_KlSWFV15M;-webkit-animation-timing-function: cubic-bezier(0, 0, 1, 1);animation-timing-function: cubic-bezier(0, 0, 1, 1);}#el_zIq6A97CFL{fill: #2A3742;-webkit-animation-fill-mode: forwards;animation-fill-mode: forwards;opacity: 1;-webkit-animation-name: kf_el_zIq6A97CFL_an_f6vsGIgZh;animation-name: kf_el_zIq6A97CFL_an_f6vsGIgZh;-webkit-animation-timing-function: cubic-bezier(0, 0, 1, 1);animation-timing-function: cubic-bezier(0, 0, 1, 1);}#el_4CYHhPt1si{fill: url(#paint1_linear);}#el_hQKhT0F0Wk{fill: url(#paint2_linear);}#el_T1GExdPpH-{fill: #2A3742;-webkit-animation-fill-mode: forwards;animation-fill-mode: forwards;opacity: 1;-webkit-animation-name: kf_el_T1GExdPpH-_an_g3ytLG3Pw7;animation-name: kf_el_T1GExdPpH-_an_g3ytLG3Pw7;-webkit-animation-timing-function: cubic-bezier(0, 0, 1, 1);animation-timing-function: cubic-bezier(0, 0, 1, 1);}#el_1-8DV9KLuO{fill: url(#paint3_linear);}#el_T1GExdPpH-_an_8CJzq9Ie0{-webkit-animation-fill-mode: forwards;animation-fill-mode: forwards;-webkit-transform: translate(165px, 0px) scale(1, 1) translate(-165px, 0px);transform: translate(165px, 0px) scale(1, 1) translate(-165px, 0px);-webkit-animation-name: kf_el_T1GExdPpH-_an_8CJzq9Ie0;animation-name: kf_el_T1GExdPpH-_an_8CJzq9Ie0;-webkit-animation-timing-function: cubic-bezier(0, 0, 1, 1);animation-timing-function: cubic-bezier(0, 0, 1, 1);}#el_lXwRPy7Lgj_an_3qLAyNHCO{-webkit-animation-fill-mode: forwards;animation-fill-mode: forwards;-webkit-transform: translate(-4.76837158203125e-7px, 61.6879997253418px) translate(4.76837158203125e-7px, -61.6879997253418px) translate(0px, 0px);transform: translate(-4.76837158203125e-7px, 61.6879997253418px) translate(4.76837158203125e-7px, -61.6879997253418px) translate(0px, 0px);-webkit-animation-name: kf_el_lXwRPy7Lgj_an_3qLAyNHCO;animation-name: kf_el_lXwRPy7Lgj_an_3qLAyNHCO;-webkit-animation-timing-function: cubic-bezier(0, 0, 0.58, 1);animation-timing-function: cubic-bezier(0, 0, 0.58, 1);}</style>
<g clip-path="url(#clip0)" id="el_Ng86oVTHQH">
<g id="el_lXwRPy7Lgj_an_3qLAyNHCO" data-animator-group="true" data-animator-type="0"><path fill-rule="evenodd" clip-rule="evenodd" d="M84.9438 70.296C84.9438 71.992 85.7918 73.112 87.5038 73.112C89.2318 73.112 90.0798 71.992 90.0798 70.296V64.504C90.0798 62.792 89.2318 61.688 87.5038 61.688C85.7918 61.688 84.9438 62.792 84.9438 64.504V70.296ZM86.1758 64.44C86.1758 63.432 86.6078 62.824 87.5038 62.824C88.4158 62.824 88.8318 63.432 88.8318 64.44V70.36C88.8318 71.384 88.4158 71.976 87.5038 71.976C86.6078 71.976 86.1758 71.384 86.1758 70.36V64.44ZM81.1969 73H82.4769L79.5489 66.904L82.3809 61.8H81.1169L78.1409 67.208V61.8H76.8929V73H78.1409V69.24L78.7969 68.136L81.1969 73ZM98.7625 73V63.992L96.9865 72.984H95.7865L93.9305 64.072V73H92.8425V61.8H94.5865L96.4265 70.744L98.2025 61.8H99.9465V73H98.7625ZM106.834 62.936V73H108.082V61.8H102.834V73H104.082V62.936H106.834ZM115.493 73V62.936H113.349L113.093 70.216C113.029 71.992 112.549 73 110.837 73.016H110.629V71.88C111.669 71.88 111.845 71.352 111.877 70.28L112.181 61.8H116.741V73H115.493ZM120.922 66.76V62.936H124.282V61.8H119.674V73H124.282V71.864H120.922V67.88H123.658V66.76H120.922ZM132.624 73H131.344L128.944 68.136L128.288 69.24V73H127.04V61.8H128.288V67.208L131.264 61.8H132.528L129.696 66.904L132.624 73ZM137.603 61.688C135.891 61.688 135.091 62.808 135.091 64.504V70.296C135.091 71.992 135.891 73.112 137.603 73.112C139.331 73.112 140.131 71.992 140.131 70.296V68.904H138.947V70.36C138.947 71.368 138.547 71.976 137.635 71.976C136.739 71.976 136.323 71.368 136.323 70.36V64.44C136.323 63.432 136.739 62.824 137.635 62.824C138.547 62.824 138.947 63.432 138.947 64.44V65.512H140.131V64.504C140.131 62.808 139.331 61.688 137.603 61.688ZM146.865 73V67.96H144.113V73H142.865V61.8H144.113V66.84H146.865V61.8H148.113V73H146.865ZM150.9 70.296C150.9 71.992 151.748 73.112 153.46 73.112C155.188 73.112 156.036 71.992 156.036 70.296V64.504C156.036 62.792 155.188 61.688 153.46 61.688C151.748 61.688 150.9 62.792 150.9 64.504V70.296ZM152.132 64.44C152.132 63.432 152.564 62.824 153.46 62.824C154.372 62.824 154.788 63.432 154.788 64.44V70.36C154.788 71.384 154.372 71.976 153.46 71.976C152.564 71.976 152.132 71.384 152.132 70.36V64.44ZM160.063 62.936V66.76H162.799V67.88H160.063V71.864H163.423V73H158.815V61.8H163.423V62.936H160.063ZM2.512 83.688C0.8 83.688 0 84.808 0 86.504V92.296C0 93.992 0.8 95.112 2.512 95.112C4.24 95.112 5.04 93.992 5.04 92.296V90.904H3.856V92.36C3.856 93.368 3.456 93.976 2.544 93.976C1.648 93.976 1.232 93.368 1.232 92.36V86.44C1.232 85.432 1.648 84.824 2.544 84.824C3.456 84.824 3.856 85.432 3.856 86.44V87.512H5.04V86.504C5.04 84.808 4.24 83.688 2.512 83.688ZM10.2381 95.112C8.52613 95.112 7.67813 93.992 7.67813 92.296V86.504C7.67813 84.792 8.52613 83.688 10.2381 83.688C11.9661 83.688 12.8141 84.792 12.8141 86.504V92.296C12.8141 93.992 11.9661 95.112 10.2381 95.112ZM10.2381 84.824C9.34213 84.824 8.91013 85.432 8.91013 86.44V92.36C8.91013 93.384 9.34213 93.976 10.2381 93.976C11.1501 93.976 11.5661 93.384 11.5661 92.36V86.44C11.5661 85.432 11.1501 84.824 10.2381 84.824ZM19.5929 84.936V95H20.8409V83.8H15.5929V95H16.8409V84.936H19.5929ZM23.7241 95V83.8H26.1721C27.9321 83.8 28.6841 84.84 28.6841 86.536V87.88C28.6841 89.656 27.8521 90.584 26.0761 90.584H24.9721V95H23.7241ZM24.9721 84.936V89.464H26.0761C27.0041 89.464 27.4521 89.032 27.4521 87.96V86.472C27.4521 85.448 27.0841 84.936 26.1721 84.936H24.9721ZM31.1656 92.296C31.1656 93.992 32.0136 95.112 33.7256 95.112C35.4536 95.112 36.3016 93.992 36.3016 92.296V86.504C36.3016 84.792 35.4536 83.688 33.7256 83.688C32.0136 83.688 31.1656 84.792 31.1656 86.504V92.296ZM32.3976 86.44C32.3976 85.432 32.8296 84.824 33.7256 84.824C34.6376 84.824 35.0536 85.432 35.0536 86.44V92.36C35.0536 93.384 34.6376 93.976 33.7256 93.976C32.8296 93.976 32.3976 93.384 32.3976 92.36V86.44ZM39.0804 95V83.8H41.5924C43.3364 83.8 44.0244 84.632 44.0244 86.28V86.808C44.0244 87.992 43.6884 88.728 42.7124 89.032C43.8004 89.336 44.2164 90.2 44.2164 91.432V92.376C44.2164 94.056 43.4004 95 41.6564 95H39.0804ZM40.3284 84.936V88.552H41.2884C42.2804 88.552 42.7924 88.232 42.7924 87.064V86.408C42.7924 85.416 42.4564 84.936 41.5604 84.936H40.3284ZM40.3284 89.688V93.864H41.6564C42.5684 93.864 42.9844 93.384 42.9844 92.344V91.352C42.9844 90.104 42.4884 89.688 41.4164 89.688H40.3284ZM46.85 92.296C46.85 93.992 47.698 95.112 49.41 95.112C51.138 95.112 51.986 93.992 51.986 92.296V86.504C51.986 84.792 51.138 83.688 49.41 83.688C47.698 83.688 46.85 84.792 46.85 86.504V92.296ZM48.082 86.44C48.082 85.432 48.514 84.824 49.41 84.824C50.322 84.824 50.738 85.432 50.738 86.44V92.36C50.738 93.384 50.322 93.976 49.41 93.976C48.514 93.976 48.082 93.384 48.082 92.36V86.44ZM63.6608 95H62.3808L60.2368 89.72L59.6448 90.776V95H58.4128V90.776L57.8368 89.704L55.6927 95H54.4128L56.9728 88.552L54.4768 83.8H55.7248L58.4128 88.952V83.8H59.6448V88.952L62.3488 83.8H63.5967L61.1168 88.52L63.6608 95ZM72.9133 96.536V93.896H72.0653V83.8H67.5693L67.1373 92.264C67.1053 92.952 67.0253 93.464 66.6413 93.896H65.9213V96.536H67.1213V95H71.6973V96.536H72.9133ZM68.7213 84.936H70.8013V93.896H67.8413C68.1933 93.528 68.3053 93.048 68.3533 92.248L68.7213 84.936ZM76.8534 84.936V88.76H79.5894V89.88H76.8534V93.864H80.2134V95H75.6054V83.8H80.2134V84.936H76.8534ZM86.971 89.96V95H88.219V83.8H86.971V88.84H84.219V83.8H82.971V95H84.219V89.96H86.971ZM95.2623 95V86.088L94.0462 89.832L92.3982 95H91.1022V83.8H92.2063V92.152L93.1982 89.064L94.9902 83.8H96.3822V95H95.2623ZM100.497 88.76V84.936H103.857V83.8H99.2491V95H103.857V93.864H100.497V89.88H103.233V88.76H100.497ZM111.947 84.936V88.424H113.259C115.003 88.424 115.899 89.256 115.899 91.048V92.28C115.899 94.024 115.083 95 113.323 95H110.715V83.8H115.435V84.936H111.947ZM111.947 89.544V93.864H113.323C114.235 93.864 114.651 93.4 114.651 92.36V90.968C114.651 89.88 114.171 89.544 113.259 89.544H111.947ZM122.881 86.088V95H124.001V83.8H122.609L120.817 89.064L119.825 92.152V83.8H118.721V95H120.017L121.665 89.832L122.881 86.088ZM126.82 86.488C126.82 84.776 127.604 83.688 129.316 83.688C131.044 83.688 131.844 84.808 131.844 86.504V86.792C131.844 87.944 131.38 88.776 130.468 89.112C131.412 89.432 131.844 90.296 131.844 91.416V92.296C131.844 93.992 131.044 95.112 129.316 95.112C127.604 95.112 126.804 93.992 126.804 92.296V91.208H127.972V92.36C127.972 93.368 128.388 93.976 129.284 93.976C130.196 93.976 130.596 93.384 130.596 92.264V91.384C130.596 90.296 130.1 89.72 129.156 89.72H128.628V88.6H129.22C130.052 88.6 130.596 88.04 130.596 87.064V86.552C130.596 85.4 130.196 84.824 129.284 84.824C128.388 84.824 127.972 85.432 127.972 86.44V87.192H126.82V86.488ZM138.655 89.96V95H139.903V83.8H138.655V88.84H135.903V83.8H134.655V95H135.903V89.96H138.655ZM144.035 84.936V88.76H146.771V89.88H144.035V93.864H147.395V95H142.787V83.8H147.395V84.936H144.035ZM152.568 83.688C150.856 83.688 150.056 84.808 150.056 86.504V92.296C150.056 93.992 150.856 95.112 152.568 95.112C154.296 95.112 155.096 93.992 155.096 92.296V90.904H153.912V92.36C153.912 93.368 153.512 93.976 152.6 93.976C151.704 93.976 151.288 93.368 151.288 92.36V86.44C151.288 85.432 151.704 84.824 152.6 84.824C153.512 84.824 153.912 85.432 153.912 86.44V87.512H155.096V86.504C155.096 84.808 154.296 83.688 152.568 83.688ZM162.358 95L161.926 92.744H159.094L158.662 95H157.51L159.654 83.8H161.462L163.606 95H162.358ZM161.75 91.672L160.486 85.208L159.254 91.672H161.75ZM100.941 121.504C100.941 119.808 101.741 118.688 103.453 118.688C105.181 118.688 105.981 119.808 105.981 121.504V122.512H104.797V121.44C104.797 120.432 104.397 119.824 103.485 119.824C102.589 119.824 102.173 120.432 102.173 121.44V127.36C102.173 128.368 102.589 128.976 103.485 128.976C104.397 128.976 104.797 128.368 104.797 127.36V125.904H105.981V127.296C105.981 128.992 105.181 130.112 103.453 130.112C101.741 130.112 100.941 128.992 100.941 127.296V121.504ZM113.18 118.8H114.476L112.076 127.536C111.692 129.216 111.116 130.112 109.084 130.016V128.896C110.044 128.944 110.476 128.64 110.684 127.792L110.94 127.056L108.364 118.8H109.612L110.748 122.688L111.516 125.504L112.172 122.688L113.18 118.8ZM123.723 131.536V128.896H122.875V118.8H118.379L117.947 127.264C117.915 127.952 117.835 128.464 117.451 128.896H116.731V131.536H117.931V130H122.507V131.536H123.723ZM119.531 119.936H121.611V128.896H118.651C119.003 128.528 119.115 128.048 119.163 127.248L119.531 119.936ZM127.664 119.936V123.76H130.4V124.88H127.664V128.864H131.024V130H126.416V118.8H131.024V119.936H127.664ZM135.029 123.424V119.936H138.517V118.8H133.797V130H136.405C138.165 130 138.981 129.024 138.981 127.28V126.048C138.981 124.256 138.085 123.424 136.341 123.424H135.029ZM135.029 128.864V124.544H136.341C137.253 124.544 137.733 124.88 137.733 125.968V127.36C137.733 128.4 137.317 128.864 136.405 128.864H135.029ZM145.803 130V124.96H143.051V130H141.803V118.8H143.051V123.84H145.803V118.8H147.051V130H145.803ZM154.03 127.744L154.462 130H155.71L153.566 118.8H151.758L149.614 130H150.766L151.198 127.744H154.03ZM152.59 120.208L153.854 126.672H151.358L152.59 120.208ZM162.06 130V125.216H161.18C160.14 125.216 159.548 125.616 159.548 126.88V128.64C159.548 129.392 159.484 129.68 159.34 130H158.076C158.268 129.616 158.3 129.152 158.3 128.656V126.912C158.3 125.712 158.684 124.88 159.692 124.576C158.748 124.272 158.316 123.504 158.316 122.272V121.36C158.316 119.696 159.052 118.8 160.812 118.8H163.308V130H162.06ZM162.06 124.08V119.936H160.844C159.916 119.936 159.548 120.464 159.548 121.472V122.544C159.548 123.76 160.14 124.08 161.116 124.08H162.06ZM105.819 141.936V152H107.067V140.8H101.819V152H103.067V141.936H105.819ZM109.95 152V140.8H112.398C114.158 140.8 114.91 141.84 114.91 143.536V144.88C114.91 146.656 114.078 147.584 112.302 147.584H111.198V152H109.95ZM111.198 141.936V146.464H112.302C113.23 146.464 113.678 146.032 113.678 144.96V143.472C113.678 142.448 113.31 141.936 112.398 141.936H111.198ZM121.583 149.744L122.015 152H123.263L121.119 140.8H119.311L117.167 152H118.319L118.751 149.744H121.583ZM120.143 142.208L121.407 148.672H118.911L120.143 142.208ZM131.421 152H130.141L127.741 147.136L127.085 148.24V152H125.837V140.8H127.085V146.208L130.061 140.8H131.325L128.493 145.904L131.421 152ZM136.944 152V141.936H139.008V140.8H133.632V141.936H135.696V152H136.944ZM145.697 152V143.088L144.481 146.832L142.833 152H141.537V140.8H142.641V149.152L143.633 146.064L145.425 140.8H146.817V152H145.697ZM153.988 152H155.268L152.34 145.904L155.172 140.8H153.908L150.932 146.208V140.8H149.684V152H150.932V148.24L151.588 147.136L153.988 152ZM162.359 152L161.927 149.744H159.095L158.663 152H157.511L159.655 140.8H161.463L163.607 152H162.359ZM161.751 148.672L160.487 142.208L159.255 148.672H161.751Z" id="el_lXwRPy7Lgj"/></g>
<rect x="165" width="221" height="220" id="el_zIq6A97CFL"/>
<path fill-rule="evenodd" clip-rule="evenodd" d="M390.004 45.382L388.828 48H387.75L392.23 38.2H393.252L397.732 48H396.64L395.464 45.382H390.004ZM395.086 44.542L392.734 39.278L390.382 44.542H395.086ZM407.281 47.132V49.778H406.343V48H399.749V49.778H398.811V47.132H399.231C399.726 47.104 400.062 46.74 400.239 46.04C400.417 45.34 400.538 44.36 400.603 43.1L400.701 40.636H406.133V47.132H407.281ZM401.513 43.156C401.467 44.2013 401.378 45.0646 401.247 45.746C401.117 46.418 400.883 46.88 400.547 47.132H405.139V41.518H401.597L401.513 43.156ZM416.106 45.998C416.106 45.0273 415.607 44.4253 414.608 44.192C415 44.052 415.304 43.842 415.518 43.562C415.742 43.2726 415.854 42.9273 415.854 42.526C415.854 41.9193 415.616 41.4526 415.14 41.126C414.664 40.7993 414.006 40.636 413.166 40.636H409.918V48H413.264C414.207 48 414.916 47.8273 415.392 47.482C415.868 47.1366 416.106 46.642 416.106 45.998ZM413.096 43.912H410.884V41.42H413.096C413.666 41.42 414.1 41.5226 414.398 41.728C414.706 41.9333 414.86 42.2413 414.86 42.652C414.86 43.0626 414.706 43.3753 414.398 43.59C414.1 43.8046 413.666 43.912 413.096 43.912ZM414.65 46.908C414.333 47.1133 413.857 47.216 413.222 47.216H410.884V44.654H413.32C413.946 44.654 414.403 44.7613 414.692 44.976C414.982 45.1813 415.126 45.5033 415.126 45.942C415.126 46.3806 414.968 46.7026 414.65 46.908ZM422.174 48.07C421.465 48.07 420.825 47.9113 420.256 47.594C419.687 47.2673 419.239 46.8193 418.912 46.25C418.585 45.6806 418.422 45.0366 418.422 44.318C418.422 43.5993 418.585 42.9553 418.912 42.386C419.239 41.8166 419.687 41.3733 420.256 41.056C420.825 40.7386 421.465 40.58 422.174 40.58C422.883 40.58 423.523 40.7386 424.092 41.056C424.661 41.3733 425.105 41.8166 425.422 42.386C425.749 42.9553 425.912 43.5993 425.912 44.318C425.912 45.0366 425.749 45.6806 425.422 46.25C425.105 46.8193 424.661 47.2673 424.092 47.594C423.523 47.9113 422.883 48.07 422.174 48.07ZM422.174 47.188C422.697 47.188 423.163 47.0713 423.574 46.838C423.994 46.5953 424.321 46.2546 424.554 45.816C424.787 45.3773 424.904 44.878 424.904 44.318C424.904 43.758 424.787 43.2586 424.554 42.82C424.321 42.3813 423.994 42.0453 423.574 41.812C423.163 41.5693 422.697 41.448 422.174 41.448C421.651 41.448 421.18 41.5693 420.76 41.812C420.349 42.0453 420.023 42.3813 419.78 42.82C419.547 43.2586 419.43 43.758 419.43 44.318C419.43 44.878 419.547 45.3773 419.78 45.816C420.023 46.2546 420.349 46.5953 420.76 46.838C421.18 47.0713 421.651 47.188 422.174 47.188ZM429.73 44.724H431.41L434.126 48H435.302L432.194 44.206L435.092 40.636H434.014L431.424 43.87H429.73V40.636H428.736V48H429.73V44.724ZM439.968 40.58C440.93 40.58 441.667 40.8226 442.18 41.308C442.694 41.784 442.95 42.4933 442.95 43.436V48H441.998V46.852C441.774 47.2346 441.443 47.5333 441.004 47.748C440.575 47.9626 440.062 48.07 439.464 48.07C438.643 48.07 437.99 47.874 437.504 47.482C437.019 47.09 436.776 46.572 436.776 45.928C436.776 45.3026 437 44.7986 437.448 44.416C437.906 44.0333 438.629 43.842 439.618 43.842H441.956V43.394C441.956 42.7593 441.779 42.2786 441.424 41.952C441.07 41.616 440.552 41.448 439.87 41.448C439.404 41.448 438.956 41.5273 438.526 41.686C438.097 41.8353 437.728 42.0453 437.42 42.316L436.972 41.574C437.346 41.2566 437.794 41.014 438.316 40.846C438.839 40.6686 439.39 40.58 439.968 40.58ZM439.618 47.286C440.178 47.286 440.659 47.16 441.06 46.908C441.462 46.6466 441.76 46.2733 441.956 45.788V44.584H439.646C438.386 44.584 437.756 45.0226 437.756 45.9C437.756 46.3293 437.92 46.67 438.246 46.922C438.573 47.1646 439.03 47.286 439.618 47.286ZM448.691 41.518H451.477V40.636H444.911V41.518H447.697V48H448.691V41.518ZM517.282 97H511.406V60.6H516.502V83.636L518.582 75.628L523.262 60.6H529.554V97H524.406V71.364L522.066 80.308L517.282 97ZM523.158 52.488C523.002 54.412 522.118 54.88 520.558 54.88C519.05 54.88 518.27 54.412 518.114 52.488H514.578C514.682 56.024 516.554 58.26 520.558 58.26C524.614 58.26 526.642 56.024 526.642 52.488H523.158ZM404.217 65.8H394.337V75.94H402.189V81.14H394.337V91.8H404.217V97H388.617V60.6H404.217V65.8ZM407.762 60.6H416.394C422.322 60.6 424.87 63.356 424.87 68.972V70.272C424.87 74.016 423.726 76.408 421.178 77.604C424.246 78.8 425.442 81.556 425.442 85.404V88.368C425.442 93.984 422.478 97 416.758 97H407.762V60.6ZM419.722 85.04C419.722 81.66 418.63 80.62 416.03 80.62H413.482V91.8H416.758C418.682 91.8 419.722 90.916 419.722 88.212V85.04ZM419.15 69.544C419.15 66.944 418.266 65.8 416.238 65.8H413.482V75.42H415.718C417.85 75.42 419.15 74.484 419.15 71.572V69.544ZM434.659 97V65.8H444.019V60.6H428.939V97H434.659ZM463.479 65.8H453.599V75.94H461.451V81.14H453.599V91.8H463.479V97H447.879V60.6H463.479V65.8ZM472.743 81.4H479.243V97H485.067V60.6H479.243V76.2H472.743V60.6H467.023V97H472.743V81.4ZM502.215 71.364L499.875 80.308L495.091 97H489.215V60.6H494.311V83.636L496.391 75.628L501.071 60.6H507.363V97H502.215V71.364ZM388.617 112.6H397.249C403.177 112.6 405.725 115.356 405.725 120.972V122.272C405.725 126.016 404.581 128.408 402.033 129.604C405.101 130.8 406.297 133.556 406.297 137.404V140.368C406.297 145.984 403.333 149 397.613 149H388.617V112.6ZM400.577 137.04C400.577 133.66 399.485 132.62 396.885 132.62H394.337V143.8H397.613C399.537 143.8 400.577 142.916 400.577 140.212V137.04ZM400.005 121.544C400.005 118.944 399.121 117.8 397.093 117.8H394.337V127.42H396.573C398.705 127.42 400.005 126.484 400.005 123.572V121.544ZM414.994 120.972C414.994 118.372 416.138 117.384 417.958 117.384C419.778 117.384 420.922 118.372 420.922 120.972V140.628C420.922 143.228 419.778 144.216 417.958 144.216C416.138 144.216 414.994 143.228 414.994 140.628V120.972ZM409.274 140.264C409.274 146.088 412.342 149.416 417.958 149.416C423.574 149.416 426.642 146.088 426.642 140.264V121.336C426.642 115.512 423.574 112.184 417.958 112.184C412.342 112.184 409.274 115.512 409.274 121.336V140.264ZM430.359 112.6H438.783C444.503 112.6 447.311 115.772 447.311 121.596V126.328C447.311 132.152 444.503 135.324 438.783 135.324H436.079V149H430.359V112.6ZM441.591 121.232C441.591 118.632 440.603 117.8 438.783 117.8H436.079V130.124H438.783C440.603 130.124 441.591 129.292 441.591 126.692V121.232ZM455.213 120.972C455.213 118.372 456.357 117.384 458.177 117.384C459.997 117.384 461.141 118.372 461.141 120.972V140.628C461.141 143.228 459.997 144.216 458.177 144.216C456.357 144.216 455.213 143.228 455.213 140.628V120.972ZM449.493 140.264C449.493 146.088 452.561 149.416 458.177 149.416C463.793 149.416 466.861 146.088 466.861 140.264V121.336C466.861 115.512 463.793 112.184 458.177 112.184C452.561 112.184 449.493 115.512 449.493 121.336V140.264ZM488.31 140.004C488.31 145.828 485.398 149 479.678 149H470.63V112.6H486.646V117.8H476.35V127.108H479.678C485.398 127.108 488.31 130.28 488.31 136.104V140.004ZM476.35 132.308V143.8H479.678C481.498 143.8 482.59 142.968 482.59 140.368V135.74C482.59 133.14 481.498 132.308 479.678 132.308H476.35ZM497.88 117.8H507.76V112.6H492.16V149H507.76V143.8H497.88V133.14H505.732V127.94H497.88V117.8ZM511.305 149H517.181L521.965 132.308L524.305 123.364V149H529.453V112.6H523.161L518.481 127.628L516.401 135.636V112.6H511.305V149ZM520.457 106.88C522.017 106.88 522.901 106.412 523.057 104.488H526.541C526.541 108.024 524.513 110.26 520.457 110.26C516.453 110.26 514.581 108.024 514.477 104.488H518.013C518.169 106.412 518.949 106.88 520.457 106.88Z" id="el_4CYHhPt1si"/>
<path fill-rule="evenodd" clip-rule="evenodd" d="M270.331 125.417L230.372 102.958V186.083L243.206 193.958L243.497 128.042L270.331 145.833V220.208L260.122 213.792L230.372 195.125L214.039 184.917L211.706 183.458L203.539 178.208V27.7083L230.372 16.625L262.164 3.5L270.331 0V98.5833L243.497 82.8333V19.5417L230.372 25.0833V93.9167L270.331 116.375V125.417ZM344.415 25.6667L350.54 28L349.665 179.958L328.957 192.792L298.332 211.75L284.04 220.5L283.457 0L290.457 2.91667L344.415 25.375V25.6667ZM323.999 97.4167L323.707 25.0833L310.582 19.5417V106.167L323.999 97.4167ZM323.999 186.958L323.707 106.458L310.29 115.208V195.417L323.999 186.958Z" id="el_hQKhT0F0Wk"/>
<g id="el_T1GExdPpH-_an_8CJzq9Ie0" data-animator-group="true" data-animator-type="2"><rect x="165" width="221" height="220" id="el_T1GExdPpH-"/></g>
<mask id="path-6-inside-1" fill="white">
<path fill-rule="evenodd" clip-rule="evenodd" d="M270.331 125.417L230.372 102.958V186.083L243.206 193.958L243.497 128.042L270.331 145.833V220.208L260.122 213.792L230.372 195.125L214.039 184.917L211.706 183.458L203.539 178.208V27.7083L230.372 16.625L262.164 3.5L270.331 0V98.5833L243.497 82.8333V19.5417L230.372 25.0833V93.9167L270.331 116.375V125.417ZM344.415 25.6667L350.54 28L349.665 179.958L328.957 192.792L298.332 211.75L284.04 220.5L283.457 0L290.457 2.91667L344.415 25.375V25.6667ZM323.999 97.4167L323.707 25.0833L310.582 19.5417V106.167L323.999 97.4167ZM323.999 186.958L323.707 106.458L310.29 115.208V195.417L323.999 186.958Z"/>
</mask>
<path d="M230.372 102.958L230.96 101.912L229.172 100.907V102.958H230.372ZM270.331 125.417L269.743 126.463L271.531 127.468V125.417H270.331ZM230.372 186.083H229.172V186.755L229.745 187.106L230.372 186.083ZM243.206 193.958L242.578 194.981L244.396 196.097L244.406 193.964L243.206 193.958ZM243.497 128.042L244.161 127.042L242.307 125.813L242.297 128.036L243.497 128.042ZM270.331 145.833H271.531V145.189L270.994 144.833L270.331 145.833ZM270.331 220.208L269.692 221.224L271.531 222.38V220.208H270.331ZM260.122 213.792L260.761 212.776L260.76 212.775L260.122 213.792ZM230.372 195.125L231.01 194.109L231.008 194.107L230.372 195.125ZM214.039 184.917L214.675 183.899L214.675 183.899L214.039 184.917ZM211.706 183.458L211.057 184.468L211.063 184.472L211.07 184.476L211.706 183.458ZM203.539 178.208H202.339V178.863L202.89 179.218L203.539 178.208ZM203.539 27.7083L203.081 26.5992L202.339 26.9057V27.7083H203.539ZM230.372 16.625L229.914 15.5158L229.914 15.5159L230.372 16.625ZM262.164 3.5L262.622 4.60919L262.629 4.60613L262.637 4.60297L262.164 3.5ZM270.331 0H271.531V-1.81985L269.858 -1.10297L270.331 0ZM270.331 98.5833L269.723 99.6182L271.531 100.679V98.5833H270.331ZM243.497 82.8333H242.297V83.5204L242.89 83.8682L243.497 82.8333ZM243.497 19.5417H244.697V17.7324L243.031 18.4362L243.497 19.5417ZM230.372 25.0833L229.906 23.9778L229.172 24.2874V25.0833H230.372ZM230.372 93.9167H229.172V94.6188L229.784 94.9628L230.372 93.9167ZM270.331 116.375H271.531V115.673L270.919 115.329L270.331 116.375ZM350.54 28L351.74 28.0069L351.745 27.1748L350.968 26.8786L350.54 28ZM344.415 25.6667H343.215V26.4937L343.988 26.7881L344.415 25.6667ZM349.665 179.958L350.297 180.978L350.862 180.629L350.865 179.965L349.665 179.958ZM328.957 192.792L329.589 193.812L329.589 193.812L328.957 192.792ZM298.332 211.75L298.959 212.773L298.964 212.77L298.332 211.75ZM284.04 220.5L282.84 220.503L282.846 222.638L284.667 221.523L284.04 220.5ZM283.457 0L283.919 -1.10769L282.252 -1.80199L282.257 0.00317461L283.457 0ZM290.457 2.91667L289.995 4.02436L289.996 4.02454L290.457 2.91667ZM344.415 25.375H345.615V24.5747L344.876 24.2671L344.415 25.375ZM323.707 25.0833L324.907 25.0785L324.904 24.2861L324.174 23.9778L323.707 25.0833ZM323.999 97.4167L324.654 98.4218L325.201 98.065L325.199 97.4118L323.999 97.4167ZM310.582 19.5417L311.049 18.4362L309.382 17.7324V19.5417H310.582ZM310.582 106.167H309.382V108.382L311.238 107.172L310.582 106.167ZM323.707 106.458L324.907 106.454L324.899 104.248L323.052 105.453L323.707 106.458ZM323.999 186.958L324.629 187.98L325.201 187.626L325.199 186.954L323.999 186.958ZM310.29 115.208L309.635 114.203L309.09 114.558V115.208H310.29ZM310.29 195.417H309.09V197.567L310.92 196.438L310.29 195.417ZM229.784 104.004L269.743 126.463L270.919 124.371L230.96 101.912L229.784 104.004ZM231.572 186.083V102.958H229.172V186.083H231.572ZM243.833 192.936L231 185.061L229.745 187.106L242.578 194.981L243.833 192.936ZM242.297 128.036L242.006 193.953L244.406 193.964L244.697 128.047L242.297 128.036ZM270.994 144.833L244.161 127.042L242.834 129.042L269.668 146.833L270.994 144.833ZM271.531 220.208V145.833H269.131V220.208H271.531ZM259.484 214.808L269.692 221.224L270.969 219.192L260.761 212.776L259.484 214.808ZM229.735 196.141L259.485 214.808L260.76 212.775L231.01 194.109L229.735 196.141ZM213.403 185.934L229.736 196.143L231.008 194.107L214.675 183.899L213.403 185.934ZM211.07 184.476L213.403 185.934L214.675 183.899L212.342 182.441L211.07 184.476ZM202.89 179.218L211.057 184.468L212.355 182.449L204.188 177.199L202.89 179.218ZM202.339 27.7083V178.208H204.739V27.7083H202.339ZM229.914 15.5159L203.081 26.5992L203.997 28.8174L230.831 17.7341L229.914 15.5159ZM261.706 2.39081L229.914 15.5158L230.83 17.7342L262.622 4.60919L261.706 2.39081ZM269.858 -1.10297L261.691 2.39703L262.637 4.60297L270.803 1.10297L269.858 -1.10297ZM271.531 98.5833V0H269.131V98.5833H271.531ZM242.89 83.8682L269.723 99.6182L270.938 97.5484L244.105 81.7984L242.89 83.8682ZM242.297 19.5417V82.8333H244.697V19.5417H242.297ZM230.839 26.1888L243.964 20.6472L243.031 18.4362L229.906 23.9778L230.839 26.1888ZM231.572 93.9167V25.0833H229.172V93.9167H231.572ZM270.919 115.329L230.96 92.8706L229.784 94.9628L269.743 117.421L270.919 115.329ZM271.531 125.417V116.375H269.131V125.417H271.531ZM350.968 26.8786L344.843 24.5453L343.988 26.7881L350.113 29.1214L350.968 26.8786ZM350.865 179.965L351.74 28.0069L349.34 27.9931L348.465 179.951L350.865 179.965ZM329.589 193.812L350.297 180.978L349.033 178.938L328.325 191.772L329.589 193.812ZM298.964 212.77L329.589 193.812L328.325 191.771L297.7 210.73L298.964 212.77ZM284.667 221.523L298.959 212.773L297.705 210.727L283.414 219.477L284.667 221.523ZM282.257 0.00317461L282.84 220.503L285.24 220.497L284.657 -0.00317461L282.257 0.00317461ZM290.919 1.80897L283.919 -1.10769L282.995 1.10769L289.995 4.02436L290.919 1.80897ZM344.876 24.2671L290.918 1.8088L289.996 4.02454L343.954 26.4829L344.876 24.2671ZM345.615 25.6667V25.375H343.215V25.6667H345.615ZM322.507 25.0882L322.799 97.4215L325.199 97.4118L324.907 25.0785L322.507 25.0882ZM310.115 20.6472L323.24 26.1888L324.174 23.9778L311.049 18.4362L310.115 20.6472ZM311.782 106.167V19.5417H309.382V106.167H311.782ZM323.343 96.4115L309.927 105.162L311.238 107.172L324.654 98.4218L323.343 96.4115ZM322.507 106.463L322.799 186.963L325.199 186.954L324.907 106.454L322.507 106.463ZM310.946 116.213L324.363 107.463L323.052 105.453L309.635 114.203L310.946 116.213ZM311.49 195.417V115.208H309.09V195.417H311.49ZM323.369 185.937L309.66 194.395L310.92 196.438L324.629 187.98L323.369 185.937Z" mask="url(#path-6-inside-1)" id="el_1-8DV9KLuO"/>
</g>
<defs>
<linearGradient id="paint0_linear" x1="85" y1="164" x2="87.7351" y2="78.0552" gradientUnits="userSpaceOnUse">
<stop stop-color="#E9C0A0"/>
<stop offset="0.1666" stop-color="#E5BB9C"/>
<stop offset="0.3663" stop-color="#D8AC90"/>
<stop offset="0.582" stop-color="#C3947E"/>
<stop offset="0.7709" stop-color="#AB7968"/>
<stop offset="0.7953" stop-color="#BD8C76"/>
<stop offset="0.8298" stop-color="#D0A084"/>
<stop offset="0.8692" stop-color="#DDAE8E"/>
<stop offset="0.9175" stop-color="#E5B794"/>
<stop offset="1" stop-color="#E7B996"/>
</linearGradient>
<linearGradient id="paint1_linear" x1="460.629" y1="181.793" x2="460.541" y2="66.0375" gradientUnits="userSpaceOnUse">
<stop stop-color="#E9C0A0"/>
<stop offset="0.1666" stop-color="#E5BB9C"/>
<stop offset="0.3663" stop-color="#D8AC90"/>
<stop offset="0.582" stop-color="#C3947E"/>
<stop offset="0.7709" stop-color="#AB7968"/>
<stop offset="0.7953" stop-color="#BD8C76"/>
<stop offset="0.8298" stop-color="#D0A084"/>
<stop offset="0.8692" stop-color="#DDAE8E"/>
<stop offset="0.9175" stop-color="#E5B794"/>
<stop offset="1" stop-color="#E7B996"/>
</linearGradient>
<linearGradient id="paint2_linear" x1="279.089" y1="284.691" x2="278.756" y2="55.1919" gradientUnits="userSpaceOnUse">
<stop stop-color="#E9C0A0"/>
<stop offset="0.1666" stop-color="#E5BB9C"/>
<stop offset="0.3663" stop-color="#D8AC90"/>
<stop offset="0.582" stop-color="#C3947E"/>
<stop offset="0.7709" stop-color="#AB7968"/>
<stop offset="0.7953" stop-color="#BD8C76"/>
<stop offset="0.8298" stop-color="#D0A084"/>
<stop offset="0.8692" stop-color="#DDAE8E"/>
<stop offset="0.9175" stop-color="#E5B794"/>
<stop offset="1" stop-color="#E7B996"/>
</linearGradient>
<linearGradient id="paint3_linear" x1="279.089" y1="284.691" x2="278.756" y2="55.1919" gradientUnits="userSpaceOnUse">
<stop stop-color="#E9C0A0"/>
<stop offset="0.1666" stop-color="#E5BB9C"/>
<stop offset="0.3663" stop-color="#D8AC90"/>
<stop offset="0.582" stop-color="#C3947E"/>
<stop offset="0.7709" stop-color="#AB7968"/>
<stop offset="0.7953" stop-color="#BD8C76"/>
<stop offset="0.8298" stop-color="#D0A084"/>
<stop offset="0.8692" stop-color="#DDAE8E"/>
<stop offset="0.9175" stop-color="#E5B794"/>
<stop offset="1" stop-color="#E7B996"/>
</linearGradient>
<clipPath id="clip0">
<rect width="554" height="220" fill="white"/>
</clipPath>
</defs>
</svg>